<?xml version="1.0" encoding="utf-8" standalone="no"?>
<!DOCTYPE svg PUBLIC "-//W3C//DTD SVG 1.1//EN"
  "http://www.w3.org/Graphics/SVG/1.1/DTD/svg11.dtd">
<svg xmlns:xlink="http://www.w3.org/1999/xlink" width="446.4pt" height="138.6pt" viewBox="0 0 446.4 138.6" xmlns="http://www.w3.org/2000/svg" version="1.1">
 <metadata>
  <rdf:RDF xmlns:dc="http://purl.org/dc/elements/1.1/" xmlns:cc="http://creativecommons.org/ns#" xmlns:rdf="http://www.w3.org/1999/02/22-rdf-syntax-ns#">
   <cc:Work>
    <dc:type rdf:resource="http://purl.org/dc/dcmitype/StillImage"/>
    <dc:date>2024-01-08T10:20:11.244844</dc:date>
    <dc:format>image/svg+xml</dc:format>
    <dc:creator>
     <cc:Agent>
      <dc:title>Matplotlib v3.7.2, https://matplotlib.org/</dc:title>
     </cc:Agent>
    </dc:creator>
   </cc:Work>
  </rdf:RDF>
 </metadata>
 <defs>
  <style type="text/css">*{stroke-linejoin: round; stroke-linecap: butt}</style>
 </defs>
 <g id="figure_1">
  <g id="patch_1">
   <path d="M 0 138.6 
L 446.4 138.6 
L 446.4 0 
L 0 0 
z
" style="fill: #ffffff"/>
  </g>
  <g id="axes_1">
   <g id="patch_2">
    <path d="M 20.290909 72.722563 
L 47.671413 72.722563 
L 47.671413 45.342059 
L 20.290909 45.342059 
z
" clip-path="url(#p2a88b64528)" style="fill: #b2b2b2; stroke: #000000; stroke-linejoin: miter"/>
   </g>
   <g id="patch_3">
    <path d="M 75.051917 72.722563 
L 102.432421 72.722563 
L 102.432421 45.342059 
L 75.051917 45.342059 
z
" clip-path="url(#p2a88b64528)" style="fill: #b2b2b2; stroke: #000000; stroke-linejoin: miter"/>
   </g>
   <g id="patch_4">
    <path d="M 77.985542 75.656188 
L 105.366046 75.656188 
L 105.366046 48.275685 
L 77.985542 48.275685 
z
" clip-path="url(#p2a88b64528)" style="fill: #808080; stroke: #000000; stroke-linejoin: miter"/>
   </g>
   <g id="patch_5">
    <path d="M 94.609419 65.388499 
C 94.739087 65.388499 94.863462 65.336982 94.955151 65.245293 
C 95.04684 65.153604 95.098357 65.02923 95.098357 64.899562 
C 95.098357 64.769894 95.04684 64.64552 94.955151 64.553831 
C 94.863462 64.462142 94.739087 64.410624 94.609419 64.410624 
C 94.479752 64.410624 94.355377 64.462142 94.263688 64.553831 
C 94.171999 64.64552 94.120482 64.769894 94.120482 64.899562 
C 94.120482 65.02923 94.171999 65.153604 94.263688 65.245293 
C 94.355377 65.336982 94.479752 65.388499 94.609419 65.388499 
z
" clip-path="url(#p2a88b64528)" style="stroke: #000000; stroke-linejoin: miter"/>
   </g>
   <g id="patch_6">
    <path d="M 97.543045 68.322125 
C 97.672713 68.322125 97.797087 68.270607 97.888776 68.178918 
C 97.980465 68.087229 98.031982 67.962855 98.031982 67.833187 
C 98.031982 67.70352 97.980465 67.579145 97.888776 67.487456 
C 97.797087 67.395767 97.672713 67.34425 97.543045 67.34425 
C 97.413377 67.34425 97.289003 67.395767 97.197314 67.487456 
C 97.105625 67.579145 97.054107 67.70352 97.054107 67.833187 
C 97.054107 67.962855 97.105625 68.087229 97.197314 68.178918 
C 97.289003 68.270607 97.413377 68.322125 97.543045 68.322125 
z
" clip-path="url(#p2a88b64528)" style="stroke: #000000; stroke-linejoin: miter"/>
   </g>
   <g id="patch_7">
    <path d="M 100.47667 71.25575 
C 100.606338 71.25575 100.730712 71.204233 100.822401 71.112544 
C 100.91409 71.020855 100.965608 70.89648 100.965608 70.766813 
C 100.965608 70.637145 100.91409 70.512771 100.822401 70.421082 
C 100.730712 70.329393 100.606338 70.277875 100.47667 70.277875 
C 100.347003 70.277875 100.222628 70.329393 100.130939 70.421082 
C 100.03925 70.512771 99.987733 70.637145 99.987733 70.766813 
C 99.987733 70.89648 100.03925 71.020855 100.130939 71.112544 
C 100.222628 71.204233 100.347003 71.25575 100.47667 71.25575 
z
" clip-path="url(#p2a88b64528)" style="stroke: #000000; stroke-linejoin: miter"/>
   </g>
   <g id="patch_8">
    <path d="M 103.410296 74.189376 
C 103.539963 74.189376 103.664338 74.137858 103.756027 74.046169 
C 103.847716 73.95448 103.899233 73.830106 103.899233 73.700438 
C 103.899233 73.57077 103.847716 73.446396 103.756027 73.354707 
C 103.664338 73.263018 103.539963 73.211501 103.410296 73.211501 
C 103.280628 73.211501 103.156254 73.263018 103.064565 73.354707 
C 102.972876 73.446396 102.921358 73.57077 102.921358 73.700438 
C 102.921358 73.830106 102.972876 73.95448 103.064565 74.046169 
C 103.156254 74.137858 103.280628 74.189376 103.410296 74.189376 
z
" clip-path="url(#p2a88b64528)" style="stroke: #000000; stroke-linejoin: miter"/>
   </g>
   <g id="patch_9">
    <path d="M 92.653669 90.324315 
L 120.034173 90.324315 
L 120.034173 62.943812 
L 92.653669 62.943812 
z
" clip-path="url(#p2a88b64528)" style="fill: #b2b2b2; stroke: #000000; stroke-linejoin: miter"/>
   </g>
   <g id="patch_10">
    <path d="M 95.587295 93.257941 
L 122.967798 93.257941 
L 122.967798 65.877437 
L 95.587295 65.877437 
z
" clip-path="url(#p2a88b64528)" style="fill: #808080; stroke: #000000; stroke-linejoin: miter"/>
   </g>
   <g id="patch_11">
    <path d="M 27.33161 54.142935 
L 37.110361 54.142935 
L 37.110361 63.921687 
L 27.33161 63.921687 
z
" clip-path="url(#p2a88b64528)" style="fill: #4c4c4c; stroke: #000000; stroke-linejoin: miter"/>
   </g>
   <g id="patch_12">
    <path d="M 129.812924 52.187185 
L 136.65805 52.187185 
L 136.65805 45.342059 
L 129.812924 45.342059 
z
" clip-path="url(#p2a88b64528)" style="fill: #b2b2b2; stroke: #000000; stroke-linejoin: miter"/>
   </g>
   <g id="patch_13">
    <path d="M 132.74655 55.120811 
L 139.591676 55.120811 
L 139.591676 48.275685 
L 132.74655 48.275685 
z
" clip-path="url(#p2a88b64528)" style="fill: #808080; stroke: #000000; stroke-linejoin: miter"/>
   </g>
   <g id="patch_14">
    <path d="M 139.102738 55.120811 
C 139.232406 55.120811 139.35678 55.069293 139.448469 54.977604 
C 139.540158 54.885915 139.591676 54.761541 139.591676 54.631873 
C 139.591676 54.502205 139.540158 54.377831 139.448469 54.286142 
C 139.35678 54.194453 139.232406 54.142935 139.102738 54.142935 
C 138.97307 54.142935 138.848696 54.194453 138.757007 54.286142 
C 138.665318 54.377831 138.613801 54.502205 138.613801 54.631873 
C 138.613801 54.761541 138.665318 54.885915 138.757007 54.977604 
C 138.848696 55.069293 138.97307 55.120811 139.102738 55.120811 
z
" clip-path="url(#p2a88b64528)" style="stroke: #000000; stroke-linejoin: miter"/>
   </g>
   <g id="patch_15">
    <path d="M 142.036364 58.054436 
C 142.166031 58.054436 142.290406 58.002918 142.382095 57.911229 
C 142.473784 57.81954 142.525301 57.695166 142.525301 57.565498 
C 142.525301 57.435831 142.473784 57.311456 142.382095 57.219767 
C 142.290406 57.128078 142.166031 57.076561 142.036364 57.076561 
C 141.906696 57.076561 141.782322 57.128078 141.690633 57.219767 
C 141.598944 57.311456 141.547426 57.435831 141.547426 57.565498 
C 141.547426 57.695166 141.598944 57.81954 141.690633 57.911229 
C 141.782322 58.002918 141.906696 58.054436 142.036364 58.054436 
z
" clip-path="url(#p2a88b64528)" style="stroke: #000000; stroke-linejoin: miter"/>
   </g>
   <g id="patch_16">
    <path d="M 144.969989 60.988061 
C 145.099657 60.988061 145.224031 60.936544 145.31572 60.844855 
C 145.407409 60.753166 145.458927 60.628792 145.458927 60.499124 
C 145.458927 60.369456 145.407409 60.245082 145.31572 60.153393 
C 145.224031 60.061704 145.099657 60.010186 144.969989 60.010186 
C 144.840321 60.010186 144.715947 60.061704 144.624258 60.153393 
C 144.532569 60.245082 144.481051 60.369456 144.481051 60.499124 
C 144.481051 60.628792 144.532569 60.753166 144.624258 60.844855 
C 144.715947 60.936544 144.840321 60.988061 144.969989 60.988061 
z
" clip-path="url(#p2a88b64528)" style="stroke: #000000; stroke-linejoin: miter"/>
   </g>
   <g id="patch_17">
    <path d="M 147.903614 63.921687 
C 148.033282 63.921687 148.157657 63.870169 148.249346 63.77848 
C 148.341034 63.686791 148.392552 63.562417 148.392552 63.432749 
C 148.392552 63.303081 148.341034 63.178707 148.249346 63.087018 
C 148.157657 62.995329 148.033282 62.943812 147.903614 62.943812 
C 147.773947 62.943812 147.649572 62.995329 147.557883 63.087018 
C 147.466194 63.178707 147.414677 63.303081 147.414677 63.432749 
C 147.414677 63.562417 147.466194 63.686791 147.557883 63.77848 
C 147.649572 63.870169 147.773947 63.921687 147.903614 63.921687 
z
" clip-path="url(#p2a88b64528)" style="stroke: #000000; stroke-linejoin: miter"/>
   </g>
   <g id="patch_18">
    <path d="M 147.414677 69.788938 
L 154.259803 69.788938 
L 154.259803 62.943812 
L 147.414677 62.943812 
z
" clip-path="url(#p2a88b64528)" style="fill: #b2b2b2; stroke: #000000; stroke-linejoin: miter"/>
   </g>
   <g id="patch_19">
    <path d="M 150.348302 72.722563 
L 157.193428 72.722563 
L 157.193428 65.877437 
L 150.348302 65.877437 
z
" clip-path="url(#p2a88b64528)" style="fill: #808080; stroke: #000000; stroke-linejoin: miter"/>
   </g>
   <g id="patch_20">
    <path d="M 104.974896 84.65264 
L 108.886396 84.65264 
L 108.886396 88.56414 
L 104.974896 88.56414 
z
" clip-path="url(#p2a88b64528)" style="fill: #4c4c4c; stroke: #000000; stroke-linejoin: miter"/>
   </g>
   <g id="patch_21">
    <path d="M 184.573932 48.275685 
L 187.507558 48.275685 
L 187.507558 45.342059 
L 184.573932 45.342059 
z
" clip-path="url(#p2a88b64528)" style="fill: #b2b2b2; stroke: #000000; stroke-linejoin: miter"/>
   </g>
   <g id="patch_22">
    <path d="M 187.507558 51.20931 
L 190.441183 51.20931 
L 190.441183 48.275685 
L 187.507558 48.275685 
z
" clip-path="url(#p2a88b64528)" style="fill: #808080; stroke: #000000; stroke-linejoin: miter"/>
   </g>
   <g id="patch_23">
    <path d="M 191.907996 53.16506 
C 192.037663 53.16506 192.162038 53.113543 192.253727 53.021854 
C 192.345416 52.930165 192.396933 52.80579 192.396933 52.676123 
C 192.396933 52.546455 192.345416 52.422081 192.253727 52.330392 
C 192.162038 52.238703 192.037663 52.187185 191.907996 52.187185 
C 191.778328 52.187185 191.653954 52.238703 191.562265 52.330392 
C 191.470576 52.422081 191.419058 52.546455 191.419058 52.676123 
C 191.419058 52.80579 191.470576 52.930165 191.562265 53.021854 
C 191.653954 53.113543 191.778328 53.16506 191.907996 53.16506 
z
" clip-path="url(#p2a88b64528)" style="stroke: #000000; stroke-linejoin: miter"/>
   </g>
   <g id="patch_24">
    <path d="M 194.841621 56.098686 
C 194.971289 56.098686 195.095663 56.047168 195.187352 55.955479 
C 195.279041 55.86379 195.330559 55.739416 195.330559 55.609748 
C 195.330559 55.48008 195.279041 55.355706 195.187352 55.264017 
C 195.095663 55.172328 194.971289 55.120811 194.841621 55.120811 
C 194.711953 55.120811 194.587579 55.172328 194.49589 55.264017 
C 194.404201 55.355706 194.352683 55.48008 194.352683 55.609748 
C 194.352683 55.739416 194.404201 55.86379 194.49589 55.955479 
C 194.587579 56.047168 194.711953 56.098686 194.841621 56.098686 
z
" clip-path="url(#p2a88b64528)" style="stroke: #000000; stroke-linejoin: miter"/>
   </g>
   <g id="patch_25">
    <path d="M 197.775246 59.032311 
C 197.904914 59.032311 198.029289 58.980794 198.120978 58.889105 
C 198.212666 58.797416 198.264184 58.673041 198.264184 58.543373 
C 198.264184 58.413706 198.212666 58.289331 198.120978 58.197642 
C 198.029289 58.105953 197.904914 58.054436 197.775246 58.054436 
C 197.645579 58.054436 197.521204 58.105953 197.429515 58.197642 
C 197.337826 58.289331 197.286309 58.413706 197.286309 58.543373 
C 197.286309 58.673041 197.337826 58.797416 197.429515 58.889105 
C 197.521204 58.980794 197.645579 59.032311 197.775246 59.032311 
z
" clip-path="url(#p2a88b64528)" style="stroke: #000000; stroke-linejoin: miter"/>
   </g>
   <g id="patch_26">
    <path d="M 200.708872 61.965936 
C 200.83854 61.965936 200.962914 61.914419 201.054603 61.82273 
C 201.146292 61.731041 201.197809 61.606667 201.197809 61.476999 
C 201.197809 61.347331 201.146292 61.222957 201.054603 61.131268 
C 200.962914 61.039579 200.83854 60.988061 200.708872 60.988061 
C 200.579204 60.988061 200.45483 61.039579 200.363141 61.131268 
C 200.271452 61.222957 200.219934 61.347331 200.219934 61.476999 
C 200.219934 61.606667 200.271452 61.731041 200.363141 61.82273 
C 200.45483 61.914419 200.579204 61.965936 200.708872 61.965936 
z
" clip-path="url(#p2a88b64528)" style="stroke: #000000; stroke-linejoin: miter"/>
   </g>
   <g id="patch_27">
    <path d="M 202.175685 65.877437 
L 205.10931 65.877437 
L 205.10931 62.943812 
L 202.175685 62.943812 
z
" clip-path="url(#p2a88b64528)" style="fill: #b2b2b2; stroke: #000000; stroke-linejoin: miter"/>
   </g>
   <g id="patch_28">
    <path d="M 205.10931 68.811062 
L 208.042935 68.811062 
L 208.042935 65.877437 
L 205.10931 65.877437 
z
" clip-path="url(#p2a88b64528)" style="fill: #808080; stroke: #000000; stroke-linejoin: miter"/>
   </g>
   <g id="patch_29">
    <path d="M 151.130602 66.855312 
L 156.019978 66.855312 
L 156.019978 71.744688 
L 151.130602 71.744688 
z
" clip-path="url(#p2a88b64528)" style="fill: #4c4c4c; stroke: #000000; stroke-linejoin: miter"/>
   </g>
   <g id="patch_30">
    <path d="M 239.33494 46.319934 
L 240.312815 46.319934 
L 240.312815 45.342059 
L 239.33494 45.342059 
z
" clip-path="url(#p2a88b64528)" style="fill: #b2b2b2; stroke: #000000; stroke-linejoin: miter"/>
   </g>
   <g id="patch_31">
    <path d="M 242.268565 49.25356 
L 243.24644 49.25356 
L 243.24644 48.275685 
L 242.268565 48.275685 
z
" clip-path="url(#p2a88b64528)" style="fill: #808080; stroke: #000000; stroke-linejoin: miter"/>
   </g>
   <g id="patch_32">
    <path d="M 245.691128 52.187185 
C 245.820796 52.187185 245.94517 52.135668 246.036859 52.043979 
C 246.128548 51.95229 246.180066 51.827915 246.180066 51.698248 
C 246.180066 51.56858 246.128548 51.444205 246.036859 51.352516 
C 245.94517 51.260828 245.820796 51.20931 245.691128 51.20931 
C 245.56146 51.20931 245.437086 51.260828 245.345397 51.352516 
C 245.253708 51.444205 245.202191 51.56858 245.202191 51.698248 
C 245.202191 51.827915 245.253708 51.95229 245.345397 52.043979 
C 245.437086 52.135668 245.56146 52.187185 245.691128 52.187185 
z
" clip-path="url(#p2a88b64528)" style="stroke: #000000; stroke-linejoin: miter"/>
   </g>
   <g id="patch_33">
    <path d="M 248.624754 55.120811 
C 248.754421 55.120811 248.878796 55.069293 248.970485 54.977604 
C 249.062174 54.885915 249.113691 54.761541 249.113691 54.631873 
C 249.113691 54.502205 249.062174 54.377831 248.970485 54.286142 
C 248.878796 54.194453 248.754421 54.142935 248.624754 54.142935 
C 248.495086 54.142935 248.370711 54.194453 248.279022 54.286142 
C 248.187334 54.377831 248.135816 54.502205 248.135816 54.631873 
C 248.135816 54.761541 248.187334 54.885915 248.279022 54.977604 
C 248.370711 55.069293 248.495086 55.120811 248.624754 55.120811 
z
" clip-path="url(#p2a88b64528)" style="stroke: #000000; stroke-linejoin: miter"/>
   </g>
   <g id="patch_34">
    <path d="M 251.558379 58.054436 
C 251.688047 58.054436 251.812421 58.002918 251.90411 57.911229 
C 251.995799 57.81954 252.047317 57.695166 252.047317 57.565498 
C 252.047317 57.435831 251.995799 57.311456 251.90411 57.219767 
C 251.812421 57.128078 251.688047 57.076561 251.558379 57.076561 
C 251.428711 57.076561 251.304337 57.128078 251.212648 57.219767 
C 251.120959 57.311456 251.069441 57.435831 251.069441 57.565498 
C 251.069441 57.695166 251.120959 57.81954 251.212648 57.911229 
C 251.304337 58.002918 251.428711 58.054436 251.558379 58.054436 
z
" clip-path="url(#p2a88b64528)" style="stroke: #000000; stroke-linejoin: miter"/>
   </g>
   <g id="patch_35">
    <path d="M 254.492004 60.988061 
C 254.621672 60.988061 254.746046 60.936544 254.837735 60.844855 
C 254.929424 60.753166 254.980942 60.628792 254.980942 60.499124 
C 254.980942 60.369456 254.929424 60.245082 254.837735 60.153393 
C 254.746046 60.061704 254.621672 60.010186 254.492004 60.010186 
C 254.362337 60.010186 254.237962 60.061704 254.146273 60.153393 
C 254.054584 60.245082 254.003067 60.369456 254.003067 60.499124 
C 254.003067 60.628792 254.054584 60.753166 254.146273 60.844855 
C 254.237962 60.936544 254.362337 60.988061 254.492004 60.988061 
z
" clip-path="url(#p2a88b64528)" style="stroke: #000000; stroke-linejoin: miter"/>
   </g>
   <g id="patch_36">
    <path d="M 256.936692 63.921687 
L 257.914567 63.921687 
L 257.914567 62.943812 
L 256.936692 62.943812 
z
" clip-path="url(#p2a88b64528)" style="fill: #b2b2b2; stroke: #000000; stroke-linejoin: miter"/>
   </g>
   <g id="patch_37">
    <path d="M 259.870318 66.855312 
L 260.848193 66.855312 
L 260.848193 65.877437 
L 259.870318 65.877437 
z
" clip-path="url(#p2a88b64528)" style="fill: #808080; stroke: #000000; stroke-linejoin: miter"/>
   </g>
   <g id="patch_38">
    <path d="M 205.10931 65.877437 
L 208.042935 65.877437 
L 208.042935 68.811062 
L 205.10931 68.811062 
z
" clip-path="url(#p2a88b64528)" style="fill: #4c4c4c; stroke: #000000; stroke-linejoin: miter"/>
   </g>
   <g id="patch_39">
    <path d="M 294.095947 47.297809 
L 296.051698 47.297809 
L 296.051698 45.342059 
L 294.095947 45.342059 
z
" clip-path="url(#p2a88b64528)" style="fill: #b2b2b2; stroke: #000000; stroke-linejoin: miter"/>
   </g>
   <g id="patch_40">
    <path d="M 297.029573 50.231435 
L 298.985323 50.231435 
L 298.985323 48.275685 
L 297.029573 48.275685 
z
" clip-path="url(#p2a88b64528)" style="fill: #808080; stroke: #000000; stroke-linejoin: miter"/>
   </g>
   <g id="patch_41">
    <path d="M 300.941073 52.676123 
C 301.070741 52.676123 301.195116 52.624605 301.286804 52.532916 
C 301.378493 52.441227 301.430011 52.316853 301.430011 52.187185 
C 301.430011 52.057517 301.378493 51.933143 301.286804 51.841454 
C 301.195116 51.749765 301.070741 51.698248 300.941073 51.698248 
C 300.811406 51.698248 300.687031 51.749765 300.595342 51.841454 
C 300.503653 51.933143 300.452136 52.057517 300.452136 52.187185 
C 300.452136 52.316853 300.503653 52.441227 300.595342 52.532916 
C 300.687031 52.624605 300.811406 52.676123 300.941073 52.676123 
z
" clip-path="url(#p2a88b64528)" style="stroke: #000000; stroke-linejoin: miter"/>
   </g>
   <g id="patch_42">
    <path d="M 303.874699 55.609748 
C 304.004367 55.609748 304.128741 55.558231 304.22043 55.466542 
C 304.312119 55.374853 304.363636 55.250478 304.363636 55.120811 
C 304.363636 54.991143 304.312119 54.866768 304.22043 54.775079 
C 304.128741 54.68339 304.004367 54.631873 303.874699 54.631873 
C 303.745031 54.631873 303.620657 54.68339 303.528968 54.775079 
C 303.437279 54.866768 303.385761 54.991143 303.385761 55.120811 
C 303.385761 55.250478 303.437279 55.374853 303.528968 55.466542 
C 303.620657 55.558231 303.745031 55.609748 303.874699 55.609748 
z
" clip-path="url(#p2a88b64528)" style="stroke: #000000; stroke-linejoin: miter"/>
   </g>
   <g id="patch_43">
    <path d="M 306.808324 58.543373 
C 306.937992 58.543373 307.062366 58.491856 307.154055 58.400167 
C 307.245744 58.308478 307.297262 58.184104 307.297262 58.054436 
C 307.297262 57.924768 307.245744 57.800394 307.154055 57.708705 
C 307.062366 57.617016 306.937992 57.565498 306.808324 57.565498 
C 306.678656 57.565498 306.554282 57.617016 306.462593 57.708705 
C 306.370904 57.800394 306.319387 57.924768 306.319387 58.054436 
C 306.319387 58.184104 306.370904 58.308478 306.462593 58.400167 
C 306.554282 58.491856 306.678656 58.543373 306.808324 58.543373 
z
" clip-path="url(#p2a88b64528)" style="stroke: #000000; stroke-linejoin: miter"/>
   </g>
   <g id="patch_44">
    <path d="M 309.74195 61.476999 
C 309.871617 61.476999 309.995992 61.425481 310.087681 61.333792 
C 310.17937 61.242103 310.230887 61.117729 310.230887 60.988061 
C 310.230887 60.858394 310.17937 60.734019 310.087681 60.64233 
C 309.995992 60.550641 309.871617 60.499124 309.74195 60.499124 
C 309.612282 60.499124 309.487907 60.550641 309.396219 60.64233 
C 309.30453 60.734019 309.253012 60.858394 309.253012 60.988061 
C 309.253012 61.117729 309.30453 61.242103 309.396219 61.333792 
C 309.487907 61.425481 309.612282 61.476999 309.74195 61.476999 
z
" clip-path="url(#p2a88b64528)" style="stroke: #000000; stroke-linejoin: miter"/>
   </g>
   <g id="patch_45">
    <path d="M 311.6977 64.899562 
L 313.65345 64.899562 
L 313.65345 62.943812 
L 311.6977 62.943812 
z
" clip-path="url(#p2a88b64528)" style="fill: #b2b2b2; stroke: #000000; stroke-linejoin: miter"/>
   </g>
   <g id="patch_46">
    <path d="M 314.631325 67.833187 
L 316.587076 67.833187 
L 316.587076 65.877437 
L 314.631325 65.877437 
z
" clip-path="url(#p2a88b64528)" style="fill: #808080; stroke: #000000; stroke-linejoin: miter"/>
   </g>
   <g id="patch_47">
    <path d="M 348.856955 47.297809 
L 350.812705 47.297809 
L 350.812705 45.342059 
L 348.856955 45.342059 
z
" clip-path="url(#p2a88b64528)" style="fill: #b2b2b2; stroke: #000000; stroke-linejoin: miter"/>
   </g>
   <g id="patch_48">
    <path d="M 351.790581 50.231435 
L 353.746331 50.231435 
L 353.746331 48.275685 
L 351.790581 48.275685 
z
" clip-path="url(#p2a88b64528)" style="fill: #808080; stroke: #000000; stroke-linejoin: miter"/>
   </g>
   <g id="patch_49">
    <path d="M 355.702081 52.676123 
C 355.831749 52.676123 355.956123 52.624605 356.047812 52.532916 
C 356.139501 52.441227 356.191019 52.316853 356.191019 52.187185 
C 356.191019 52.057517 356.139501 51.933143 356.047812 51.841454 
C 355.956123 51.749765 355.831749 51.698248 355.702081 51.698248 
C 355.572413 51.698248 355.448039 51.749765 355.35635 51.841454 
C 355.264661 51.933143 355.213143 52.057517 355.213143 52.187185 
C 355.213143 52.316853 355.264661 52.441227 355.35635 52.532916 
C 355.448039 52.624605 355.572413 52.676123 355.702081 52.676123 
z
" clip-path="url(#p2a88b64528)" style="stroke: #000000; stroke-linejoin: miter"/>
   </g>
   <g id="patch_50">
    <path d="M 358.635706 55.609748 
C 358.765374 55.609748 358.889749 55.558231 358.981438 55.466542 
C 359.073126 55.374853 359.124644 55.250478 359.124644 55.120811 
C 359.124644 54.991143 359.073126 54.866768 358.981438 54.775079 
C 358.889749 54.68339 358.765374 54.631873 358.635706 54.631873 
C 358.506039 54.631873 358.381664 54.68339 358.289975 54.775079 
C 358.198286 54.866768 358.146769 54.991143 358.146769 55.120811 
C 358.146769 55.250478 358.198286 55.374853 358.289975 55.466542 
C 358.381664 55.558231 358.506039 55.609748 358.635706 55.609748 
z
" clip-path="url(#p2a88b64528)" style="stroke: #000000; stroke-linejoin: miter"/>
   </g>
   <g id="patch_51">
    <path d="M 361.569332 58.543373 
C 361.699 58.543373 361.823374 58.491856 361.915063 58.400167 
C 362.006752 58.308478 362.058269 58.184104 362.058269 58.054436 
C 362.058269 57.924768 362.006752 57.800394 361.915063 57.708705 
C 361.823374 57.617016 361.699 57.565498 361.569332 57.565498 
C 361.439664 57.565498 361.31529 57.617016 361.223601 57.708705 
C 361.131912 57.800394 361.080394 57.924768 361.080394 58.054436 
C 361.080394 58.184104 361.131912 58.308478 361.223601 58.400167 
C 361.31529 58.491856 361.439664 58.543373 361.569332 58.543373 
z
" clip-path="url(#p2a88b64528)" style="stroke: #000000; stroke-linejoin: miter"/>
   </g>
   <g id="patch_52">
    <path d="M 364.502957 61.476999 
C 364.632625 61.476999 364.756999 61.425481 364.848688 61.333792 
C 364.940377 61.242103 364.991895 61.117729 364.991895 60.988061 
C 364.991895 60.858394 364.940377 60.734019 364.848688 60.64233 
C 364.756999 60.550641 364.632625 60.499124 364.502957 60.499124 
C 364.37329 60.499124 364.248915 60.550641 364.157226 60.64233 
C 364.065537 60.734019 364.01402 60.858394 364.01402 60.988061 
C 364.01402 61.117729 364.065537 61.242103 364.157226 61.333792 
C 364.248915 61.425481 364.37329 61.476999 364.502957 61.476999 
z
" clip-path="url(#p2a88b64528)" style="stroke: #000000; stroke-linejoin: miter"/>
   </g>
   <g id="patch_53">
    <path d="M 366.458708 64.899562 
L 368.414458 64.899562 
L 368.414458 62.943812 
L 366.458708 62.943812 
z
" clip-path="url(#p2a88b64528)" style="fill: #b2b2b2; stroke: #000000; stroke-linejoin: miter"/>
   </g>
   <g id="patch_54">
    <path d="M 369.392333 67.833187 
L 371.348083 67.833187 
L 371.348083 65.877437 
L 369.392333 65.877437 
z
" clip-path="url(#p2a88b64528)" style="fill: #808080; stroke: #000000; stroke-linejoin: miter"/>
   </g>
   <g id="patch_55">
    <path d="M 403.617963 47.297809 
L 405.573713 47.297809 
L 405.573713 45.342059 
L 403.617963 45.342059 
z
" clip-path="url(#p2a88b64528)" style="fill: #b2b2b2; stroke: #000000; stroke-linejoin: miter"/>
   </g>
   <g id="patch_56">
    <path d="M 406.551588 50.231435 
L 408.507338 50.231435 
L 408.507338 48.275685 
L 406.551588 48.275685 
z
" clip-path="url(#p2a88b64528)" style="fill: #808080; stroke: #000000; stroke-linejoin: miter"/>
   </g>
   <g id="patch_57">
    <path d="M 410.463089 52.676123 
C 410.592756 52.676123 410.717131 52.624605 410.80882 52.532916 
C 410.900509 52.441227 410.952026 52.316853 410.952026 52.187185 
C 410.952026 52.057517 410.900509 51.933143 410.80882 51.841454 
C 410.717131 51.749765 410.592756 51.698248 410.463089 51.698248 
C 410.333421 51.698248 410.209047 51.749765 410.117358 51.841454 
C 410.025669 51.933143 409.974151 52.057517 409.974151 52.187185 
C 409.974151 52.316853 410.025669 52.441227 410.117358 52.532916 
C 410.209047 52.624605 410.333421 52.676123 410.463089 52.676123 
z
" clip-path="url(#p2a88b64528)" style="stroke: #000000; stroke-linejoin: miter"/>
   </g>
   <g id="patch_58">
    <path d="M 413.396714 55.609748 
C 413.526382 55.609748 413.650756 55.558231 413.742445 55.466542 
C 413.834134 55.374853 413.885652 55.250478 413.885652 55.120811 
C 413.885652 54.991143 413.834134 54.866768 413.742445 54.775079 
C 413.650756 54.68339 413.526382 54.631873 413.396714 54.631873 
C 413.267046 54.631873 413.142672 54.68339 413.050983 54.775079 
C 412.959294 54.866768 412.907777 54.991143 412.907777 55.120811 
C 412.907777 55.250478 412.959294 55.374853 413.050983 55.466542 
C 413.142672 55.558231 413.267046 55.609748 413.396714 55.609748 
z
" clip-path="url(#p2a88b64528)" style="stroke: #000000; stroke-linejoin: miter"/>
   </g>
   <g id="patch_59">
    <path d="M 416.33034 58.543373 
C 416.460007 58.543373 416.584382 58.491856 416.676071 58.400167 
C 416.76776 58.308478 416.819277 58.184104 416.819277 58.054436 
C 416.819277 57.924768 416.76776 57.800394 416.676071 57.708705 
C 416.584382 57.617016 416.460007 57.565498 416.33034 57.565498 
C 416.200672 57.565498 416.076297 57.617016 415.984608 57.708705 
C 415.89292 57.800394 415.841402 57.924768 415.841402 58.054436 
C 415.841402 58.184104 415.89292 58.308478 415.984608 58.400167 
C 416.076297 58.491856 416.200672 58.543373 416.33034 58.543373 
z
" clip-path="url(#p2a88b64528)" style="stroke: #000000; stroke-linejoin: miter"/>
   </g>
   <g id="patch_60">
    <path d="M 419.263965 61.476999 
C 419.393633 61.476999 419.518007 61.425481 419.609696 61.333792 
C 419.701385 61.242103 419.752903 61.117729 419.752903 60.988061 
C 419.752903 60.858394 419.701385 60.734019 419.609696 60.64233 
C 419.518007 60.550641 419.393633 60.499124 419.263965 60.499124 
C 419.134297 60.499124 419.009923 60.550641 418.918234 60.64233 
C 418.826545 60.734019 418.775027 60.858394 418.775027 60.988061 
C 418.775027 61.117729 418.826545 61.242103 418.918234 61.333792 
C 419.009923 61.425481 419.134297 61.476999 419.263965 61.476999 
z
" clip-path="url(#p2a88b64528)" style="stroke: #000000; stroke-linejoin: miter"/>
   </g>
   <g id="patch_61">
    <path d="M 421.219715 64.899562 
L 423.175465 64.899562 
L 423.175465 62.943812 
L 421.219715 62.943812 
z
" clip-path="url(#p2a88b64528)" style="fill: #b2b2b2; stroke: #000000; stroke-linejoin: miter"/>
   </g>
   <g id="patch_62">
    <path d="M 424.153341 67.833187 
L 426.109091 67.833187 
L 426.109091 65.877437 
L 424.153341 65.877437 
z
" clip-path="url(#p2a88b64528)" style="fill: #808080; stroke: #000000; stroke-linejoin: miter"/>
   </g>
   <g id="line2d_1">
    <path d="M 27.33161 54.142935 
L 106.539496 79.567689 
" clip-path="url(#p2a88b64528)" style="fill: none; stroke: #262626; stroke-width: 1.5; stroke-linecap: square"/>
   </g>
   <g id="line2d_2">
    <path d="M 37.110361 54.142935 
L 106.539496 79.567689 
" clip-path="url(#p2a88b64528)" style="fill: none; stroke: #262626; stroke-width: 1.5; stroke-linecap: square"/>
   </g>
   <g id="line2d_3">
    <path d="M 27.33161 63.921687 
L 106.539496 79.567689 
" clip-path="url(#p2a88b64528)" style="fill: none; stroke: #262626; stroke-width: 1.5; stroke-linecap: square"/>
   </g>
   <g id="line2d_4">
    <path d="M 37.110361 63.921687 
L 106.539496 79.567689 
" clip-path="url(#p2a88b64528)" style="fill: none; stroke: #262626; stroke-width: 1.5; stroke-linecap: square"/>
   </g>
   <g id="line2d_5">
    <path d="M 104.974896 84.65264 
L 153.086353 71.353538 
" clip-path="url(#p2a88b64528)" style="fill: none; stroke: #262626; stroke-width: 1.5; stroke-linecap: square"/>
   </g>
   <g id="line2d_6">
    <path d="M 108.886396 84.65264 
L 153.086353 71.353538 
" clip-path="url(#p2a88b64528)" style="fill: none; stroke: #262626; stroke-width: 1.5; stroke-linecap: square"/>
   </g>
   <g id="line2d_7">
    <path d="M 104.974896 88.56414 
L 153.086353 71.353538 
" clip-path="url(#p2a88b64528)" style="fill: none; stroke: #262626; stroke-width: 1.5; stroke-linecap: square"/>
   </g>
   <g id="line2d_8">
    <path d="M 108.886396 88.56414 
L 153.086353 71.353538 
" clip-path="url(#p2a88b64528)" style="fill: none; stroke: #262626; stroke-width: 1.5; stroke-linecap: square"/>
   </g>
   <g id="line2d_9">
    <path d="M 151.130602 66.855312 
L 206.28276 67.34425 
" clip-path="url(#p2a88b64528)" style="fill: none; stroke: #262626; stroke-width: 1.5; stroke-linecap: square"/>
   </g>
   <g id="line2d_10">
    <path d="M 156.019978 66.855312 
L 206.28276 67.34425 
" clip-path="url(#p2a88b64528)" style="fill: none; stroke: #262626; stroke-width: 1.5; stroke-linecap: square"/>
   </g>
   <g id="line2d_11">
    <path d="M 151.130602 71.744688 
L 206.28276 67.34425 
" clip-path="url(#p2a88b64528)" style="fill: none; stroke: #262626; stroke-width: 1.5; stroke-linecap: square"/>
   </g>
   <g id="line2d_12">
    <path d="M 156.019978 71.744688 
L 206.28276 67.34425 
" clip-path="url(#p2a88b64528)" style="fill: none; stroke: #262626; stroke-width: 1.5; stroke-linecap: square"/>
   </g>
   <g id="line2d_13">
    <path d="M 205.10931 65.877437 
L 260.261468 66.659737 
" clip-path="url(#p2a88b64528)" style="fill: none; stroke: #262626; stroke-width: 1.5; stroke-linecap: square"/>
   </g>
   <g id="line2d_14">
    <path d="M 208.042935 65.877437 
L 260.261468 66.659737 
" clip-path="url(#p2a88b64528)" style="fill: none; stroke: #262626; stroke-width: 1.5; stroke-linecap: square"/>
   </g>
   <g id="line2d_15">
    <path d="M 205.10931 68.811062 
L 260.261468 66.659737 
" clip-path="url(#p2a88b64528)" style="fill: none; stroke: #262626; stroke-width: 1.5; stroke-linecap: square"/>
   </g>
   <g id="line2d_16">
    <path d="M 208.042935 68.811062 
L 260.261468 66.659737 
" clip-path="url(#p2a88b64528)" style="fill: none; stroke: #262626; stroke-width: 1.5; stroke-linecap: square"/>
   </g>
   <g id="text_1">
    <!-- Inputs -->
    <g transform="translate(20.290909 34.711871) scale(0.06 -0.06)">
     <defs>
      <path id="DejaVuSans-49" d="M 628 4666 
L 1259 4666 
L 1259 0 
L 628 0 
L 628 4666 
z
" transform="scale(0.015625)"/>
      <path id="DejaVuSans-6e" d="M 3513 2113 
L 3513 0 
L 2938 0 
L 2938 2094 
Q 2938 2591 2744 2837 
Q 2550 3084 2163 3084 
Q 1697 3084 1428 2787 
Q 1159 2491 1159 1978 
L 1159 0 
L 581 0 
L 581 3500 
L 1159 3500 
L 1159 2956 
Q 1366 3272 1645 3428 
Q 1925 3584 2291 3584 
Q 2894 3584 3203 3211 
Q 3513 2838 3513 2113 
z
" transform="scale(0.015625)"/>
      <path id="DejaVuSans-70" d="M 1159 525 
L 1159 -1331 
L 581 -1331 
L 581 3500 
L 1159 3500 
L 1159 2969 
Q 1341 3281 1617 3432 
Q 1894 3584 2278 3584 
Q 2916 3584 3314 3078 
Q 3713 2572 3713 1747 
Q 3713 922 3314 415 
Q 2916 -91 2278 -91 
Q 1894 -91 1617 61 
Q 1341 213 1159 525 
z
M 3116 1747 
Q 3116 2381 2855 2742 
Q 2594 3103 2138 3103 
Q 1681 3103 1420 2742 
Q 1159 2381 1159 1747 
Q 1159 1113 1420 752 
Q 1681 391 2138 391 
Q 2594 391 2855 752 
Q 3116 1113 3116 1747 
z
" transform="scale(0.015625)"/>
      <path id="DejaVuSans-75" d="M 544 1381 
L 544 3500 
L 1119 3500 
L 1119 1403 
Q 1119 906 1312 657 
Q 1506 409 1894 409 
Q 2359 409 2629 706 
Q 2900 1003 2900 1516 
L 2900 3500 
L 3475 3500 
L 3475 0 
L 2900 0 
L 2900 538 
Q 2691 219 2414 64 
Q 2138 -91 1772 -91 
Q 1169 -91 856 284 
Q 544 659 544 1381 
z
M 1991 3584 
L 1991 3584 
z
" transform="scale(0.015625)"/>
      <path id="DejaVuSans-74" d="M 1172 4494 
L 1172 3500 
L 2356 3500 
L 2356 3053 
L 1172 3053 
L 1172 1153 
Q 1172 725 1289 603 
Q 1406 481 1766 481 
L 2356 481 
L 2356 0 
L 1766 0 
Q 1100 0 847 248 
Q 594 497 594 1153 
L 594 3053 
L 172 3053 
L 172 3500 
L 594 3500 
L 594 4494 
L 1172 4494 
z
" transform="scale(0.015625)"/>
      <path id="DejaVuSans-73" d="M 2834 3397 
L 2834 2853 
Q 2591 2978 2328 3040 
Q 2066 3103 1784 3103 
Q 1356 3103 1142 2972 
Q 928 2841 928 2578 
Q 928 2378 1081 2264 
Q 1234 2150 1697 2047 
L 1894 2003 
Q 2506 1872 2764 1633 
Q 3022 1394 3022 966 
Q 3022 478 2636 193 
Q 2250 -91 1575 -91 
Q 1294 -91 989 -36 
Q 684 19 347 128 
L 347 722 
Q 666 556 975 473 
Q 1284 391 1588 391 
Q 1994 391 2212 530 
Q 2431 669 2431 922 
Q 2431 1156 2273 1281 
Q 2116 1406 1581 1522 
L 1381 1569 
Q 847 1681 609 1914 
Q 372 2147 372 2553 
Q 372 3047 722 3315 
Q 1072 3584 1716 3584 
Q 2034 3584 2315 3537 
Q 2597 3491 2834 3397 
z
" transform="scale(0.015625)"/>
     </defs>
     <use xlink:href="#DejaVuSans-49"/>
     <use xlink:href="#DejaVuSans-6e" x="29.492188"/>
     <use xlink:href="#DejaVuSans-70" x="92.871094"/>
     <use xlink:href="#DejaVuSans-75" x="156.347656"/>
     <use xlink:href="#DejaVuSans-74" x="219.726562"/>
     <use xlink:href="#DejaVuSans-73" x="258.935547"/>
    </g>
    <!-- 1@28x28 -->
    <g transform="translate(20.290909 41.430559) scale(0.06 -0.06)">
     <defs>
      <path id="DejaVuSans-31" d="M 794 531 
L 1825 531 
L 1825 4091 
L 703 3866 
L 703 4441 
L 1819 4666 
L 2450 4666 
L 2450 531 
L 3481 531 
L 3481 0 
L 794 0 
L 794 531 
z
" transform="scale(0.015625)"/>
      <path id="DejaVuSans-40" d="M 2381 1678 
Q 2381 1231 2603 976 
Q 2825 722 3213 722 
Q 3597 722 3817 978 
Q 4038 1234 4038 1678 
Q 4038 2116 3813 2373 
Q 3588 2631 3206 2631 
Q 2828 2631 2604 2375 
Q 2381 2119 2381 1678 
z
M 4084 744 
Q 3897 503 3655 389 
Q 3413 275 3091 275 
Q 2553 275 2217 664 
Q 1881 1053 1881 1678 
Q 1881 2303 2218 2693 
Q 2556 3084 3091 3084 
Q 3413 3084 3656 2967 
Q 3900 2850 4084 2613 
L 4084 3022 
L 4531 3022 
L 4531 722 
Q 4988 791 5245 1139 
Q 5503 1488 5503 2041 
Q 5503 2375 5404 2669 
Q 5306 2963 5106 3213 
Q 4781 3622 4314 3839 
Q 3847 4056 3297 4056 
Q 2913 4056 2559 3954 
Q 2206 3853 1906 3653 
Q 1416 3334 1139 2817 
Q 863 2300 863 1697 
Q 863 1200 1042 765 
Q 1222 331 1563 0 
Q 1891 -325 2322 -495 
Q 2753 -666 3244 -666 
Q 3647 -666 4036 -530 
Q 4425 -394 4750 -141 
L 5031 -488 
Q 4641 -791 4180 -952 
Q 3719 -1113 3244 -1113 
Q 2666 -1113 2153 -908 
Q 1641 -703 1241 -313 
Q 841 78 631 592 
Q 422 1106 422 1697 
Q 422 2266 634 2781 
Q 847 3297 1241 3688 
Q 1644 4084 2172 4295 
Q 2700 4506 3291 4506 
Q 3953 4506 4520 4234 
Q 5088 3963 5472 3463 
Q 5706 3156 5829 2797 
Q 5953 2438 5953 2053 
Q 5953 1231 5456 756 
Q 4959 281 4084 263 
L 4084 744 
z
" transform="scale(0.015625)"/>
      <path id="DejaVuSans-32" d="M 1228 531 
L 3431 531 
L 3431 0 
L 469 0 
L 469 531 
Q 828 903 1448 1529 
Q 2069 2156 2228 2338 
Q 2531 2678 2651 2914 
Q 2772 3150 2772 3378 
Q 2772 3750 2511 3984 
Q 2250 4219 1831 4219 
Q 1534 4219 1204 4116 
Q 875 4013 500 3803 
L 500 4441 
Q 881 4594 1212 4672 
Q 1544 4750 1819 4750 
Q 2544 4750 2975 4387 
Q 3406 4025 3406 3419 
Q 3406 3131 3298 2873 
Q 3191 2616 2906 2266 
Q 2828 2175 2409 1742 
Q 1991 1309 1228 531 
z
" transform="scale(0.015625)"/>
      <path id="DejaVuSans-38" d="M 2034 2216 
Q 1584 2216 1326 1975 
Q 1069 1734 1069 1313 
Q 1069 891 1326 650 
Q 1584 409 2034 409 
Q 2484 409 2743 651 
Q 3003 894 3003 1313 
Q 3003 1734 2745 1975 
Q 2488 2216 2034 2216 
z
M 1403 2484 
Q 997 2584 770 2862 
Q 544 3141 544 3541 
Q 544 4100 942 4425 
Q 1341 4750 2034 4750 
Q 2731 4750 3128 4425 
Q 3525 4100 3525 3541 
Q 3525 3141 3298 2862 
Q 3072 2584 2669 2484 
Q 3125 2378 3379 2068 
Q 3634 1759 3634 1313 
Q 3634 634 3220 271 
Q 2806 -91 2034 -91 
Q 1263 -91 848 271 
Q 434 634 434 1313 
Q 434 1759 690 2068 
Q 947 2378 1403 2484 
z
M 1172 3481 
Q 1172 3119 1398 2916 
Q 1625 2713 2034 2713 
Q 2441 2713 2670 2916 
Q 2900 3119 2900 3481 
Q 2900 3844 2670 4047 
Q 2441 4250 2034 4250 
Q 1625 4250 1398 4047 
Q 1172 3844 1172 3481 
z
" transform="scale(0.015625)"/>
      <path id="DejaVuSans-78" d="M 3513 3500 
L 2247 1797 
L 3578 0 
L 2900 0 
L 1881 1375 
L 863 0 
L 184 0 
L 1544 1831 
L 300 3500 
L 978 3500 
L 1906 2253 
L 2834 3500 
L 3513 3500 
z
" transform="scale(0.015625)"/>
     </defs>
     <use xlink:href="#DejaVuSans-31"/>
     <use xlink:href="#DejaVuSans-40" x="63.623047"/>
     <use xlink:href="#DejaVuSans-32" x="163.623047"/>
     <use xlink:href="#DejaVuSans-38" x="227.246094"/>
     <use xlink:href="#DejaVuSans-78" x="290.869141"/>
     <use xlink:href="#DejaVuSans-32" x="350.048828"/>
     <use xlink:href="#DejaVuSans-38" x="413.671875"/>
    </g>
   </g>
   <g id="text_2">
    <!-- Feature -->
    <g transform="translate(75.051917 27.993184) scale(0.06 -0.06)">
     <defs>
      <path id="DejaVuSans-46" d="M 628 4666 
L 3309 4666 
L 3309 4134 
L 1259 4134 
L 1259 2759 
L 3109 2759 
L 3109 2228 
L 1259 2228 
L 1259 0 
L 628 0 
L 628 4666 
z
" transform="scale(0.015625)"/>
      <path id="DejaVuSans-65" d="M 3597 1894 
L 3597 1613 
L 953 1613 
Q 991 1019 1311 708 
Q 1631 397 2203 397 
Q 2534 397 2845 478 
Q 3156 559 3463 722 
L 3463 178 
Q 3153 47 2828 -22 
Q 2503 -91 2169 -91 
Q 1331 -91 842 396 
Q 353 884 353 1716 
Q 353 2575 817 3079 
Q 1281 3584 2069 3584 
Q 2775 3584 3186 3129 
Q 3597 2675 3597 1894 
z
M 3022 2063 
Q 3016 2534 2758 2815 
Q 2500 3097 2075 3097 
Q 1594 3097 1305 2825 
Q 1016 2553 972 2059 
L 3022 2063 
z
" transform="scale(0.015625)"/>
      <path id="DejaVuSans-61" d="M 2194 1759 
Q 1497 1759 1228 1600 
Q 959 1441 959 1056 
Q 959 750 1161 570 
Q 1363 391 1709 391 
Q 2188 391 2477 730 
Q 2766 1069 2766 1631 
L 2766 1759 
L 2194 1759 
z
M 3341 1997 
L 3341 0 
L 2766 0 
L 2766 531 
Q 2569 213 2275 61 
Q 1981 -91 1556 -91 
Q 1019 -91 701 211 
Q 384 513 384 1019 
Q 384 1609 779 1909 
Q 1175 2209 1959 2209 
L 2766 2209 
L 2766 2266 
Q 2766 2663 2505 2880 
Q 2244 3097 1772 3097 
Q 1472 3097 1187 3025 
Q 903 2953 641 2809 
L 641 3341 
Q 956 3463 1253 3523 
Q 1550 3584 1831 3584 
Q 2591 3584 2966 3190 
Q 3341 2797 3341 1997 
z
" transform="scale(0.015625)"/>
      <path id="DejaVuSans-72" d="M 2631 2963 
Q 2534 3019 2420 3045 
Q 2306 3072 2169 3072 
Q 1681 3072 1420 2755 
Q 1159 2438 1159 1844 
L 1159 0 
L 581 0 
L 581 3500 
L 1159 3500 
L 1159 2956 
Q 1341 3275 1631 3429 
Q 1922 3584 2338 3584 
Q 2397 3584 2469 3576 
Q 2541 3569 2628 3553 
L 2631 2963 
z
" transform="scale(0.015625)"/>
     </defs>
     <use xlink:href="#DejaVuSans-46"/>
     <use xlink:href="#DejaVuSans-65" x="52.019531"/>
     <use xlink:href="#DejaVuSans-61" x="113.542969"/>
     <use xlink:href="#DejaVuSans-74" x="174.822266"/>
     <use xlink:href="#DejaVuSans-75" x="214.03125"/>
     <use xlink:href="#DejaVuSans-72" x="277.410156"/>
     <use xlink:href="#DejaVuSans-65" x="316.273438"/>
    </g>
    <!-- maps -->
    <g transform="translate(75.051917 34.711871) scale(0.06 -0.06)">
     <defs>
      <path id="DejaVuSans-6d" d="M 3328 2828 
Q 3544 3216 3844 3400 
Q 4144 3584 4550 3584 
Q 5097 3584 5394 3201 
Q 5691 2819 5691 2113 
L 5691 0 
L 5113 0 
L 5113 2094 
Q 5113 2597 4934 2840 
Q 4756 3084 4391 3084 
Q 3944 3084 3684 2787 
Q 3425 2491 3425 1978 
L 3425 0 
L 2847 0 
L 2847 2094 
Q 2847 2600 2669 2842 
Q 2491 3084 2119 3084 
Q 1678 3084 1418 2786 
Q 1159 2488 1159 1978 
L 1159 0 
L 581 0 
L 581 3500 
L 1159 3500 
L 1159 2956 
Q 1356 3278 1631 3431 
Q 1906 3584 2284 3584 
Q 2666 3584 2933 3390 
Q 3200 3197 3328 2828 
z
" transform="scale(0.015625)"/>
     </defs>
     <use xlink:href="#DejaVuSans-6d"/>
     <use xlink:href="#DejaVuSans-61" x="97.412109"/>
     <use xlink:href="#DejaVuSans-70" x="158.691406"/>
     <use xlink:href="#DejaVuSans-73" x="222.167969"/>
    </g>
    <!-- 50@28x28 -->
    <g transform="translate(75.051917 41.430559) scale(0.06 -0.06)">
     <defs>
      <path id="DejaVuSans-35" d="M 691 4666 
L 3169 4666 
L 3169 4134 
L 1269 4134 
L 1269 2991 
Q 1406 3038 1543 3061 
Q 1681 3084 1819 3084 
Q 2600 3084 3056 2656 
Q 3513 2228 3513 1497 
Q 3513 744 3044 326 
Q 2575 -91 1722 -91 
Q 1428 -91 1123 -41 
Q 819 9 494 109 
L 494 744 
Q 775 591 1075 516 
Q 1375 441 1709 441 
Q 2250 441 2565 725 
Q 2881 1009 2881 1497 
Q 2881 1984 2565 2268 
Q 2250 2553 1709 2553 
Q 1456 2553 1204 2497 
Q 953 2441 691 2322 
L 691 4666 
z
" transform="scale(0.015625)"/>
      <path id="DejaVuSans-30" d="M 2034 4250 
Q 1547 4250 1301 3770 
Q 1056 3291 1056 2328 
Q 1056 1369 1301 889 
Q 1547 409 2034 409 
Q 2525 409 2770 889 
Q 3016 1369 3016 2328 
Q 3016 3291 2770 3770 
Q 2525 4250 2034 4250 
z
M 2034 4750 
Q 2819 4750 3233 4129 
Q 3647 3509 3647 2328 
Q 3647 1150 3233 529 
Q 2819 -91 2034 -91 
Q 1250 -91 836 529 
Q 422 1150 422 2328 
Q 422 3509 836 4129 
Q 1250 4750 2034 4750 
z
" transform="scale(0.015625)"/>
     </defs>
     <use xlink:href="#DejaVuSans-35"/>
     <use xlink:href="#DejaVuSans-30" x="63.623047"/>
     <use xlink:href="#DejaVuSans-40" x="127.246094"/>
     <use xlink:href="#DejaVuSans-32" x="227.246094"/>
     <use xlink:href="#DejaVuSans-38" x="290.869141"/>
     <use xlink:href="#DejaVuSans-78" x="354.492188"/>
     <use xlink:href="#DejaVuSans-32" x="413.671875"/>
     <use xlink:href="#DejaVuSans-38" x="477.294922"/>
    </g>
   </g>
   <g id="text_3">
    <!-- Convolution -->
    <g transform="translate(47.671413 104.141006) scale(0.06 -0.06)">
     <defs>
      <path id="DejaVuSans-43" d="M 4122 4306 
L 4122 3641 
Q 3803 3938 3442 4084 
Q 3081 4231 2675 4231 
Q 1875 4231 1450 3742 
Q 1025 3253 1025 2328 
Q 1025 1406 1450 917 
Q 1875 428 2675 428 
Q 3081 428 3442 575 
Q 3803 722 4122 1019 
L 4122 359 
Q 3791 134 3420 21 
Q 3050 -91 2638 -91 
Q 1578 -91 968 557 
Q 359 1206 359 2328 
Q 359 3453 968 4101 
Q 1578 4750 2638 4750 
Q 3056 4750 3426 4639 
Q 3797 4528 4122 4306 
z
" transform="scale(0.015625)"/>
      <path id="DejaVuSans-6f" d="M 1959 3097 
Q 1497 3097 1228 2736 
Q 959 2375 959 1747 
Q 959 1119 1226 758 
Q 1494 397 1959 397 
Q 2419 397 2687 759 
Q 2956 1122 2956 1747 
Q 2956 2369 2687 2733 
Q 2419 3097 1959 3097 
z
M 1959 3584 
Q 2709 3584 3137 3096 
Q 3566 2609 3566 1747 
Q 3566 888 3137 398 
Q 2709 -91 1959 -91 
Q 1206 -91 779 398 
Q 353 888 353 1747 
Q 353 2609 779 3096 
Q 1206 3584 1959 3584 
z
" transform="scale(0.015625)"/>
      <path id="DejaVuSans-76" d="M 191 3500 
L 800 3500 
L 1894 563 
L 2988 3500 
L 3597 3500 
L 2284 0 
L 1503 0 
L 191 3500 
z
" transform="scale(0.015625)"/>
      <path id="DejaVuSans-6c" d="M 603 4863 
L 1178 4863 
L 1178 0 
L 603 0 
L 603 4863 
z
" transform="scale(0.015625)"/>
      <path id="DejaVuSans-69" d="M 603 3500 
L 1178 3500 
L 1178 0 
L 603 0 
L 603 3500 
z
M 603 4863 
L 1178 4863 
L 1178 4134 
L 603 4134 
L 603 4863 
z
" transform="scale(0.015625)"/>
     </defs>
     <use xlink:href="#DejaVuSans-43"/>
     <use xlink:href="#DejaVuSans-6f" x="69.824219"/>
     <use xlink:href="#DejaVuSans-6e" x="131.005859"/>
     <use xlink:href="#DejaVuSans-76" x="194.384766"/>
     <use xlink:href="#DejaVuSans-6f" x="253.564453"/>
     <use xlink:href="#DejaVuSans-6c" x="314.746094"/>
     <use xlink:href="#DejaVuSans-75" x="342.529297"/>
     <use xlink:href="#DejaVuSans-74" x="405.908203"/>
     <use xlink:href="#DejaVuSans-69" x="445.117188"/>
     <use xlink:href="#DejaVuSans-6f" x="472.900391"/>
     <use xlink:href="#DejaVuSans-6e" x="534.082031"/>
    </g>
    <!-- 10x10 kernel -->
    <g transform="translate(47.671413 110.859693) scale(0.06 -0.06)">
     <defs>
      <path id="DejaVuSans-20" transform="scale(0.015625)"/>
      <path id="DejaVuSans-6b" d="M 581 4863 
L 1159 4863 
L 1159 1991 
L 2875 3500 
L 3609 3500 
L 1753 1863 
L 3688 0 
L 2938 0 
L 1159 1709 
L 1159 0 
L 581 0 
L 581 4863 
z
" transform="scale(0.015625)"/>
     </defs>
     <use xlink:href="#DejaVuSans-31"/>
     <use xlink:href="#DejaVuSans-30" x="63.623047"/>
     <use xlink:href="#DejaVuSans-78" x="127.246094"/>
     <use xlink:href="#DejaVuSans-31" x="186.425781"/>
     <use xlink:href="#DejaVuSans-30" x="250.048828"/>
     <use xlink:href="#DejaVuSans-20" x="313.671875"/>
     <use xlink:href="#DejaVuSans-6b" x="345.458984"/>
     <use xlink:href="#DejaVuSans-65" x="399.744141"/>
     <use xlink:href="#DejaVuSans-72" x="461.267578"/>
     <use xlink:href="#DejaVuSans-6e" x="500.630859"/>
     <use xlink:href="#DejaVuSans-65" x="564.009766"/>
     <use xlink:href="#DejaVuSans-6c" x="625.533203"/>
    </g>
   </g>
   <g id="text_4">
    <!-- Feature -->
    <g transform="translate(129.812924 27.993184) scale(0.06 -0.06)">
     <use xlink:href="#DejaVuSans-46"/>
     <use xlink:href="#DejaVuSans-65" x="52.019531"/>
     <use xlink:href="#DejaVuSans-61" x="113.542969"/>
     <use xlink:href="#DejaVuSans-74" x="174.822266"/>
     <use xlink:href="#DejaVuSans-75" x="214.03125"/>
     <use xlink:href="#DejaVuSans-72" x="277.410156"/>
     <use xlink:href="#DejaVuSans-65" x="316.273438"/>
    </g>
    <!-- maps -->
    <g transform="translate(129.812924 34.711871) scale(0.06 -0.06)">
     <use xlink:href="#DejaVuSans-6d"/>
     <use xlink:href="#DejaVuSans-61" x="97.412109"/>
     <use xlink:href="#DejaVuSans-70" x="158.691406"/>
     <use xlink:href="#DejaVuSans-73" x="222.167969"/>
    </g>
    <!-- 50@7x7 -->
    <g transform="translate(129.812924 41.430559) scale(0.06 -0.06)">
     <defs>
      <path id="DejaVuSans-37" d="M 525 4666 
L 3525 4666 
L 3525 4397 
L 1831 0 
L 1172 0 
L 2766 4134 
L 525 4134 
L 525 4666 
z
" transform="scale(0.015625)"/>
     </defs>
     <use xlink:href="#DejaVuSans-35"/>
     <use xlink:href="#DejaVuSans-30" x="63.623047"/>
     <use xlink:href="#DejaVuSans-40" x="127.246094"/>
     <use xlink:href="#DejaVuSans-37" x="227.246094"/>
     <use xlink:href="#DejaVuSans-78" x="290.869141"/>
     <use xlink:href="#DejaVuSans-37" x="350.048828"/>
    </g>
   </g>
   <g id="text_5">
    <!-- Max-Pooling -->
    <g transform="translate(102.432421 104.141006) scale(0.06 -0.06)">
     <defs>
      <path id="DejaVuSans-4d" d="M 628 4666 
L 1569 4666 
L 2759 1491 
L 3956 4666 
L 4897 4666 
L 4897 0 
L 4281 0 
L 4281 4097 
L 3078 897 
L 2444 897 
L 1241 4097 
L 1241 0 
L 628 0 
L 628 4666 
z
" transform="scale(0.015625)"/>
      <path id="DejaVuSans-2d" d="M 313 2009 
L 1997 2009 
L 1997 1497 
L 313 1497 
L 313 2009 
z
" transform="scale(0.015625)"/>
      <path id="DejaVuSans-50" d="M 1259 4147 
L 1259 2394 
L 2053 2394 
Q 2494 2394 2734 2622 
Q 2975 2850 2975 3272 
Q 2975 3691 2734 3919 
Q 2494 4147 2053 4147 
L 1259 4147 
z
M 628 4666 
L 2053 4666 
Q 2838 4666 3239 4311 
Q 3641 3956 3641 3272 
Q 3641 2581 3239 2228 
Q 2838 1875 2053 1875 
L 1259 1875 
L 1259 0 
L 628 0 
L 628 4666 
z
" transform="scale(0.015625)"/>
      <path id="DejaVuSans-67" d="M 2906 1791 
Q 2906 2416 2648 2759 
Q 2391 3103 1925 3103 
Q 1463 3103 1205 2759 
Q 947 2416 947 1791 
Q 947 1169 1205 825 
Q 1463 481 1925 481 
Q 2391 481 2648 825 
Q 2906 1169 2906 1791 
z
M 3481 434 
Q 3481 -459 3084 -895 
Q 2688 -1331 1869 -1331 
Q 1566 -1331 1297 -1286 
Q 1028 -1241 775 -1147 
L 775 -588 
Q 1028 -725 1275 -790 
Q 1522 -856 1778 -856 
Q 2344 -856 2625 -561 
Q 2906 -266 2906 331 
L 2906 616 
Q 2728 306 2450 153 
Q 2172 0 1784 0 
Q 1141 0 747 490 
Q 353 981 353 1791 
Q 353 2603 747 3093 
Q 1141 3584 1784 3584 
Q 2172 3584 2450 3431 
Q 2728 3278 2906 2969 
L 2906 3500 
L 3481 3500 
L 3481 434 
z
" transform="scale(0.015625)"/>
     </defs>
     <use xlink:href="#DejaVuSans-4d"/>
     <use xlink:href="#DejaVuSans-61" x="86.279297"/>
     <use xlink:href="#DejaVuSans-78" x="147.558594"/>
     <use xlink:href="#DejaVuSans-2d" x="206.738281"/>
     <use xlink:href="#DejaVuSans-50" x="242.822266"/>
     <use xlink:href="#DejaVuSans-6f" x="299.5"/>
     <use xlink:href="#DejaVuSans-6f" x="360.681641"/>
     <use xlink:href="#DejaVuSans-6c" x="421.863281"/>
     <use xlink:href="#DejaVuSans-69" x="449.646484"/>
     <use xlink:href="#DejaVuSans-6e" x="477.429688"/>
     <use xlink:href="#DejaVuSans-67" x="540.808594"/>
    </g>
    <!-- 4x4 kernel -->
    <g transform="translate(102.432421 110.859693) scale(0.06 -0.06)">
     <defs>
      <path id="DejaVuSans-34" d="M 2419 4116 
L 825 1625 
L 2419 1625 
L 2419 4116 
z
M 2253 4666 
L 3047 4666 
L 3047 1625 
L 3713 1625 
L 3713 1100 
L 3047 1100 
L 3047 0 
L 2419 0 
L 2419 1100 
L 313 1100 
L 313 1709 
L 2253 4666 
z
" transform="scale(0.015625)"/>
     </defs>
     <use xlink:href="#DejaVuSans-34"/>
     <use xlink:href="#DejaVuSans-78" x="63.623047"/>
     <use xlink:href="#DejaVuSans-34" x="122.802734"/>
     <use xlink:href="#DejaVuSans-20" x="186.425781"/>
     <use xlink:href="#DejaVuSans-6b" x="218.212891"/>
     <use xlink:href="#DejaVuSans-65" x="272.498047"/>
     <use xlink:href="#DejaVuSans-72" x="334.021484"/>
     <use xlink:href="#DejaVuSans-6e" x="373.384766"/>
     <use xlink:href="#DejaVuSans-65" x="436.763672"/>
     <use xlink:href="#DejaVuSans-6c" x="498.287109"/>
    </g>
   </g>
   <g id="text_6">
    <!-- Feature -->
    <g transform="translate(184.573932 27.993184) scale(0.06 -0.06)">
     <use xlink:href="#DejaVuSans-46"/>
     <use xlink:href="#DejaVuSans-65" x="52.019531"/>
     <use xlink:href="#DejaVuSans-61" x="113.542969"/>
     <use xlink:href="#DejaVuSans-74" x="174.822266"/>
     <use xlink:href="#DejaVuSans-75" x="214.03125"/>
     <use xlink:href="#DejaVuSans-72" x="277.410156"/>
     <use xlink:href="#DejaVuSans-65" x="316.273438"/>
    </g>
    <!-- maps -->
    <g transform="translate(184.573932 34.711871) scale(0.06 -0.06)">
     <use xlink:href="#DejaVuSans-6d"/>
     <use xlink:href="#DejaVuSans-61" x="97.412109"/>
     <use xlink:href="#DejaVuSans-70" x="158.691406"/>
     <use xlink:href="#DejaVuSans-73" x="222.167969"/>
    </g>
    <!-- 30@3x3 -->
    <g transform="translate(184.573932 41.430559) scale(0.06 -0.06)">
     <defs>
      <path id="DejaVuSans-33" d="M 2597 2516 
Q 3050 2419 3304 2112 
Q 3559 1806 3559 1356 
Q 3559 666 3084 287 
Q 2609 -91 1734 -91 
Q 1441 -91 1130 -33 
Q 819 25 488 141 
L 488 750 
Q 750 597 1062 519 
Q 1375 441 1716 441 
Q 2309 441 2620 675 
Q 2931 909 2931 1356 
Q 2931 1769 2642 2001 
Q 2353 2234 1838 2234 
L 1294 2234 
L 1294 2753 
L 1863 2753 
Q 2328 2753 2575 2939 
Q 2822 3125 2822 3475 
Q 2822 3834 2567 4026 
Q 2313 4219 1838 4219 
Q 1578 4219 1281 4162 
Q 984 4106 628 3988 
L 628 4550 
Q 988 4650 1302 4700 
Q 1616 4750 1894 4750 
Q 2613 4750 3031 4423 
Q 3450 4097 3450 3541 
Q 3450 3153 3228 2886 
Q 3006 2619 2597 2516 
z
" transform="scale(0.015625)"/>
     </defs>
     <use xlink:href="#DejaVuSans-33"/>
     <use xlink:href="#DejaVuSans-30" x="63.623047"/>
     <use xlink:href="#DejaVuSans-40" x="127.246094"/>
     <use xlink:href="#DejaVuSans-33" x="227.246094"/>
     <use xlink:href="#DejaVuSans-78" x="290.869141"/>
     <use xlink:href="#DejaVuSans-33" x="350.048828"/>
    </g>
   </g>
   <g id="text_7">
    <!-- Convolution -->
    <g transform="translate(157.193428 104.141006) scale(0.06 -0.06)">
     <use xlink:href="#DejaVuSans-43"/>
     <use xlink:href="#DejaVuSans-6f" x="69.824219"/>
     <use xlink:href="#DejaVuSans-6e" x="131.005859"/>
     <use xlink:href="#DejaVuSans-76" x="194.384766"/>
     <use xlink:href="#DejaVuSans-6f" x="253.564453"/>
     <use xlink:href="#DejaVuSans-6c" x="314.746094"/>
     <use xlink:href="#DejaVuSans-75" x="342.529297"/>
     <use xlink:href="#DejaVuSans-74" x="405.908203"/>
     <use xlink:href="#DejaVuSans-69" x="445.117188"/>
     <use xlink:href="#DejaVuSans-6f" x="472.900391"/>
     <use xlink:href="#DejaVuSans-6e" x="534.082031"/>
    </g>
    <!-- 5x5 kernel -->
    <g transform="translate(157.193428 110.859693) scale(0.06 -0.06)">
     <use xlink:href="#DejaVuSans-35"/>
     <use xlink:href="#DejaVuSans-78" x="63.623047"/>
     <use xlink:href="#DejaVuSans-35" x="122.802734"/>
     <use xlink:href="#DejaVuSans-20" x="186.425781"/>
     <use xlink:href="#DejaVuSans-6b" x="218.212891"/>
     <use xlink:href="#DejaVuSans-65" x="272.498047"/>
     <use xlink:href="#DejaVuSans-72" x="334.021484"/>
     <use xlink:href="#DejaVuSans-6e" x="373.384766"/>
     <use xlink:href="#DejaVuSans-65" x="436.763672"/>
     <use xlink:href="#DejaVuSans-6c" x="498.287109"/>
    </g>
   </g>
   <g id="text_8">
    <!-- Feature -->
    <g transform="translate(239.33494 27.993184) scale(0.06 -0.06)">
     <use xlink:href="#DejaVuSans-46"/>
     <use xlink:href="#DejaVuSans-65" x="52.019531"/>
     <use xlink:href="#DejaVuSans-61" x="113.542969"/>
     <use xlink:href="#DejaVuSans-74" x="174.822266"/>
     <use xlink:href="#DejaVuSans-75" x="214.03125"/>
     <use xlink:href="#DejaVuSans-72" x="277.410156"/>
     <use xlink:href="#DejaVuSans-65" x="316.273438"/>
    </g>
    <!-- maps -->
    <g transform="translate(239.33494 34.711871) scale(0.06 -0.06)">
     <use xlink:href="#DejaVuSans-6d"/>
     <use xlink:href="#DejaVuSans-61" x="97.412109"/>
     <use xlink:href="#DejaVuSans-70" x="158.691406"/>
     <use xlink:href="#DejaVuSans-73" x="222.167969"/>
    </g>
    <!-- 30@1x1 -->
    <g transform="translate(239.33494 41.430559) scale(0.06 -0.06)">
     <use xlink:href="#DejaVuSans-33"/>
     <use xlink:href="#DejaVuSans-30" x="63.623047"/>
     <use xlink:href="#DejaVuSans-40" x="127.246094"/>
     <use xlink:href="#DejaVuSans-31" x="227.246094"/>
     <use xlink:href="#DejaVuSans-78" x="290.869141"/>
     <use xlink:href="#DejaVuSans-31" x="350.048828"/>
    </g>
   </g>
   <g id="text_9">
    <!-- Avg-Pooling -->
    <g transform="translate(211.954436 104.141006) scale(0.06 -0.06)">
     <defs>
      <path id="DejaVuSans-41" d="M 2188 4044 
L 1331 1722 
L 3047 1722 
L 2188 4044 
z
M 1831 4666 
L 2547 4666 
L 4325 0 
L 3669 0 
L 3244 1197 
L 1141 1197 
L 716 0 
L 50 0 
L 1831 4666 
z
" transform="scale(0.015625)"/>
     </defs>
     <use xlink:href="#DejaVuSans-41"/>
     <use xlink:href="#DejaVuSans-76" x="62.533203"/>
     <use xlink:href="#DejaVuSans-67" x="121.712891"/>
     <use xlink:href="#DejaVuSans-2d" x="185.189453"/>
     <use xlink:href="#DejaVuSans-50" x="221.273438"/>
     <use xlink:href="#DejaVuSans-6f" x="277.951172"/>
     <use xlink:href="#DejaVuSans-6f" x="339.132812"/>
     <use xlink:href="#DejaVuSans-6c" x="400.314453"/>
     <use xlink:href="#DejaVuSans-69" x="428.097656"/>
     <use xlink:href="#DejaVuSans-6e" x="455.880859"/>
     <use xlink:href="#DejaVuSans-67" x="519.259766"/>
    </g>
    <!-- 3x3 kernel -->
    <g transform="translate(211.954436 110.859693) scale(0.06 -0.06)">
     <use xlink:href="#DejaVuSans-33"/>
     <use xlink:href="#DejaVuSans-78" x="63.623047"/>
     <use xlink:href="#DejaVuSans-33" x="122.802734"/>
     <use xlink:href="#DejaVuSans-20" x="186.425781"/>
     <use xlink:href="#DejaVuSans-6b" x="218.212891"/>
     <use xlink:href="#DejaVuSans-65" x="272.498047"/>
     <use xlink:href="#DejaVuSans-72" x="334.021484"/>
     <use xlink:href="#DejaVuSans-6e" x="373.384766"/>
     <use xlink:href="#DejaVuSans-65" x="436.763672"/>
     <use xlink:href="#DejaVuSans-6c" x="498.287109"/>
    </g>
   </g>
   <g id="text_10">
    <!-- Hidden -->
    <g transform="translate(294.095947 27.993184) scale(0.06 -0.06)">
     <defs>
      <path id="DejaVuSans-48" d="M 628 4666 
L 1259 4666 
L 1259 2753 
L 3553 2753 
L 3553 4666 
L 4184 4666 
L 4184 0 
L 3553 0 
L 3553 2222 
L 1259 2222 
L 1259 0 
L 628 0 
L 628 4666 
z
" transform="scale(0.015625)"/>
      <path id="DejaVuSans-64" d="M 2906 2969 
L 2906 4863 
L 3481 4863 
L 3481 0 
L 2906 0 
L 2906 525 
Q 2725 213 2448 61 
Q 2172 -91 1784 -91 
Q 1150 -91 751 415 
Q 353 922 353 1747 
Q 353 2572 751 3078 
Q 1150 3584 1784 3584 
Q 2172 3584 2448 3432 
Q 2725 3281 2906 2969 
z
M 947 1747 
Q 947 1113 1208 752 
Q 1469 391 1925 391 
Q 2381 391 2643 752 
Q 2906 1113 2906 1747 
Q 2906 2381 2643 2742 
Q 2381 3103 1925 3103 
Q 1469 3103 1208 2742 
Q 947 2381 947 1747 
z
" transform="scale(0.015625)"/>
     </defs>
     <use xlink:href="#DejaVuSans-48"/>
     <use xlink:href="#DejaVuSans-69" x="75.195312"/>
     <use xlink:href="#DejaVuSans-64" x="102.978516"/>
     <use xlink:href="#DejaVuSans-64" x="166.455078"/>
     <use xlink:href="#DejaVuSans-65" x="229.931641"/>
     <use xlink:href="#DejaVuSans-6e" x="291.455078"/>
    </g>
    <!-- units -->
    <g transform="translate(294.095947 34.711871) scale(0.06 -0.06)">
     <use xlink:href="#DejaVuSans-75"/>
     <use xlink:href="#DejaVuSans-6e" x="63.378906"/>
     <use xlink:href="#DejaVuSans-69" x="126.757812"/>
     <use xlink:href="#DejaVuSans-74" x="154.541016"/>
     <use xlink:href="#DejaVuSans-73" x="193.75"/>
    </g>
    <!-- 30 -->
    <g transform="translate(294.095947 41.430559) scale(0.06 -0.06)">
     <use xlink:href="#DejaVuSans-33"/>
     <use xlink:href="#DejaVuSans-30" x="63.623047"/>
    </g>
   </g>
   <g id="text_11">
    <!-- Flatten -->
    <g transform="translate(266.715444 110.859693) scale(0.06 -0.06)">
     <use xlink:href="#DejaVuSans-46"/>
     <use xlink:href="#DejaVuSans-6c" x="57.519531"/>
     <use xlink:href="#DejaVuSans-61" x="85.302734"/>
     <use xlink:href="#DejaVuSans-74" x="146.582031"/>
     <use xlink:href="#DejaVuSans-74" x="185.791016"/>
     <use xlink:href="#DejaVuSans-65" x="225"/>
     <use xlink:href="#DejaVuSans-6e" x="286.523438"/>
    </g>
   </g>
   <g id="text_12">
    <!-- Hidden -->
    <g transform="translate(348.856955 27.993184) scale(0.06 -0.06)">
     <use xlink:href="#DejaVuSans-48"/>
     <use xlink:href="#DejaVuSans-69" x="75.195312"/>
     <use xlink:href="#DejaVuSans-64" x="102.978516"/>
     <use xlink:href="#DejaVuSans-64" x="166.455078"/>
     <use xlink:href="#DejaVuSans-65" x="229.931641"/>
     <use xlink:href="#DejaVuSans-6e" x="291.455078"/>
    </g>
    <!-- units -->
    <g transform="translate(348.856955 34.711871) scale(0.06 -0.06)">
     <use xlink:href="#DejaVuSans-75"/>
     <use xlink:href="#DejaVuSans-6e" x="63.378906"/>
     <use xlink:href="#DejaVuSans-69" x="126.757812"/>
     <use xlink:href="#DejaVuSans-74" x="154.541016"/>
     <use xlink:href="#DejaVuSans-73" x="193.75"/>
    </g>
    <!-- 124 -->
    <g transform="translate(348.856955 41.430559) scale(0.06 -0.06)">
     <use xlink:href="#DejaVuSans-31"/>
     <use xlink:href="#DejaVuSans-32" x="63.623047"/>
     <use xlink:href="#DejaVuSans-34" x="127.246094"/>
    </g>
   </g>
   <g id="text_13">
    <!-- Fully -->
    <g transform="translate(321.476451 104.141006) scale(0.06 -0.06)">
     <defs>
      <path id="DejaVuSans-79" d="M 2059 -325 
Q 1816 -950 1584 -1140 
Q 1353 -1331 966 -1331 
L 506 -1331 
L 506 -850 
L 844 -850 
Q 1081 -850 1212 -737 
Q 1344 -625 1503 -206 
L 1606 56 
L 191 3500 
L 800 3500 
L 1894 763 
L 2988 3500 
L 3597 3500 
L 2059 -325 
z
" transform="scale(0.015625)"/>
     </defs>
     <use xlink:href="#DejaVuSans-46"/>
     <use xlink:href="#DejaVuSans-75" x="52.019531"/>
     <use xlink:href="#DejaVuSans-6c" x="115.398438"/>
     <use xlink:href="#DejaVuSans-6c" x="143.181641"/>
     <use xlink:href="#DejaVuSans-79" x="170.964844"/>
    </g>
    <!-- connected -->
    <g transform="translate(321.476451 110.859693) scale(0.06 -0.06)">
     <defs>
      <path id="DejaVuSans-63" d="M 3122 3366 
L 3122 2828 
Q 2878 2963 2633 3030 
Q 2388 3097 2138 3097 
Q 1578 3097 1268 2742 
Q 959 2388 959 1747 
Q 959 1106 1268 751 
Q 1578 397 2138 397 
Q 2388 397 2633 464 
Q 2878 531 3122 666 
L 3122 134 
Q 2881 22 2623 -34 
Q 2366 -91 2075 -91 
Q 1284 -91 818 406 
Q 353 903 353 1747 
Q 353 2603 823 3093 
Q 1294 3584 2113 3584 
Q 2378 3584 2631 3529 
Q 2884 3475 3122 3366 
z
" transform="scale(0.015625)"/>
     </defs>
     <use xlink:href="#DejaVuSans-63"/>
     <use xlink:href="#DejaVuSans-6f" x="54.980469"/>
     <use xlink:href="#DejaVuSans-6e" x="116.162109"/>
     <use xlink:href="#DejaVuSans-6e" x="179.541016"/>
     <use xlink:href="#DejaVuSans-65" x="242.919922"/>
     <use xlink:href="#DejaVuSans-63" x="304.443359"/>
     <use xlink:href="#DejaVuSans-74" x="359.423828"/>
     <use xlink:href="#DejaVuSans-65" x="398.632812"/>
     <use xlink:href="#DejaVuSans-64" x="460.15625"/>
    </g>
   </g>
   <g id="text_14">
    <!-- Outputs -->
    <g transform="translate(403.617963 34.711871) scale(0.06 -0.06)">
     <defs>
      <path id="DejaVuSans-4f" d="M 2522 4238 
Q 1834 4238 1429 3725 
Q 1025 3213 1025 2328 
Q 1025 1447 1429 934 
Q 1834 422 2522 422 
Q 3209 422 3611 934 
Q 4013 1447 4013 2328 
Q 4013 3213 3611 3725 
Q 3209 4238 2522 4238 
z
M 2522 4750 
Q 3503 4750 4090 4092 
Q 4678 3434 4678 2328 
Q 4678 1225 4090 567 
Q 3503 -91 2522 -91 
Q 1538 -91 948 565 
Q 359 1222 359 2328 
Q 359 3434 948 4092 
Q 1538 4750 2522 4750 
z
" transform="scale(0.015625)"/>
     </defs>
     <use xlink:href="#DejaVuSans-4f"/>
     <use xlink:href="#DejaVuSans-75" x="78.710938"/>
     <use xlink:href="#DejaVuSans-74" x="142.089844"/>
     <use xlink:href="#DejaVuSans-70" x="181.298828"/>
     <use xlink:href="#DejaVuSans-75" x="244.775391"/>
     <use xlink:href="#DejaVuSans-74" x="308.154297"/>
     <use xlink:href="#DejaVuSans-73" x="347.363281"/>
    </g>
    <!-- 10 -->
    <g transform="translate(403.617963 41.430559) scale(0.06 -0.06)">
     <use xlink:href="#DejaVuSans-31"/>
     <use xlink:href="#DejaVuSans-30" x="63.623047"/>
    </g>
   </g>
   <g id="text_15">
    <!-- Fully -->
    <g transform="translate(376.237459 104.141006) scale(0.06 -0.06)">
     <use xlink:href="#DejaVuSans-46"/>
     <use xlink:href="#DejaVuSans-75" x="52.019531"/>
     <use xlink:href="#DejaVuSans-6c" x="115.398438"/>
     <use xlink:href="#DejaVuSans-6c" x="143.181641"/>
     <use xlink:href="#DejaVuSans-79" x="170.964844"/>
    </g>
    <!-- connected -->
    <g transform="translate(376.237459 110.859693) scale(0.06 -0.06)">
     <use xlink:href="#DejaVuSans-63"/>
     <use xlink:href="#DejaVuSans-6f" x="54.980469"/>
     <use xlink:href="#DejaVuSans-6e" x="116.162109"/>
     <use xlink:href="#DejaVuSans-6e" x="179.541016"/>
     <use xlink:href="#DejaVuSans-65" x="242.919922"/>
     <use xlink:href="#DejaVuSans-63" x="304.443359"/>
     <use xlink:href="#DejaVuSans-74" x="359.423828"/>
     <use xlink:href="#DejaVuSans-65" x="398.632812"/>
     <use xlink:href="#DejaVuSans-64" x="460.15625"/>
    </g>
   </g>
  </g>
 </g>
 <defs>
  <clipPath id="p2a88b64528">
   <rect x="0" y="0" width="446.4" height="138.6"/>
  </clipPath>
 </defs>
</svg>
