<?xml version="1.0" encoding="utf-8" standalone="no"?>
<!DOCTYPE svg PUBLIC "-//W3C//DTD SVG 1.1//EN"
  "http://www.w3.org/Graphics/SVG/1.1/DTD/svg11.dtd">
<svg xmlns:xlink="http://www.w3.org/1999/xlink" width="446.4pt" height="138.6pt" viewBox="0 0 446.4 138.6" xmlns="http://www.w3.org/2000/svg" version="1.1">
 <metadata>
  <rdf:RDF xmlns:dc="http://purl.org/dc/elements/1.1/" xmlns:cc="http://creativecommons.org/ns#" xmlns:rdf="http://www.w3.org/1999/02/22-rdf-syntax-ns#">
   <cc:Work>
    <dc:type rdf:resource="http://purl.org/dc/dcmitype/StillImage"/>
    <dc:date>2024-01-18T16:11:12.009063</dc:date>
    <dc:format>image/svg+xml</dc:format>
    <dc:creator>
     <cc:Agent>
      <dc:title>Matplotlib v3.7.2, https://matplotlib.org/</dc:title>
     </cc:Agent>
    </dc:creator>
   </cc:Work>
  </rdf:RDF>
 </metadata>
 <defs>
  <style type="text/css">*{stroke-linejoin: round; stroke-linecap: butt}</style>
 </defs>
 <g id="figure_1">
  <g id="patch_1">
   <path d="M 0 138.6 
L 446.4 138.6 
L 446.4 0 
L 0 0 
z
" style="fill: #ffffff"/>
  </g>
  <g id="axes_1">
   <g id="patch_2">
    <path d="M 20.290909 75.656188 
L 47.671413 75.656188 
L 47.671413 48.275685 
L 20.290909 48.275685 
z
" clip-path="url(#p7a4924531a)" style="fill: #b2b2b2; stroke: #000000; stroke-linejoin: miter"/>
   </g>
   <g id="patch_3">
    <path d="M 75.051917 69.788938 
L 96.56517 69.788938 
L 96.56517 48.275685 
L 75.051917 48.275685 
z
" clip-path="url(#p7a4924531a)" style="fill: #b2b2b2; stroke: #000000; stroke-linejoin: miter"/>
   </g>
   <g id="patch_4">
    <path d="M 77.985542 72.722563 
L 99.498795 72.722563 
L 99.498795 51.20931 
L 77.985542 51.20931 
z
" clip-path="url(#p7a4924531a)" style="fill: #808080; stroke: #000000; stroke-linejoin: miter"/>
   </g>
   <g id="patch_5">
    <path d="M 91.675794 65.388499 
C 91.805462 65.388499 91.929836 65.336982 92.021525 65.245293 
C 92.113214 65.153604 92.164732 65.02923 92.164732 64.899562 
C 92.164732 64.769894 92.113214 64.64552 92.021525 64.553831 
C 91.929836 64.462142 91.805462 64.410624 91.675794 64.410624 
C 91.546126 64.410624 91.421752 64.462142 91.330063 64.553831 
C 91.238374 64.64552 91.186857 64.769894 91.186857 64.899562 
C 91.186857 65.02923 91.238374 65.153604 91.330063 65.245293 
C 91.421752 65.336982 91.546126 65.388499 91.675794 65.388499 
z
" clip-path="url(#p7a4924531a)" style="stroke: #000000; stroke-linejoin: miter"/>
   </g>
   <g id="patch_6">
    <path d="M 94.609419 68.322125 
C 94.739087 68.322125 94.863462 68.270607 94.955151 68.178918 
C 95.04684 68.087229 95.098357 67.962855 95.098357 67.833187 
C 95.098357 67.70352 95.04684 67.579145 94.955151 67.487456 
C 94.863462 67.395767 94.739087 67.34425 94.609419 67.34425 
C 94.479752 67.34425 94.355377 67.395767 94.263688 67.487456 
C 94.171999 67.579145 94.120482 67.70352 94.120482 67.833187 
C 94.120482 67.962855 94.171999 68.087229 94.263688 68.178918 
C 94.355377 68.270607 94.479752 68.322125 94.609419 68.322125 
z
" clip-path="url(#p7a4924531a)" style="stroke: #000000; stroke-linejoin: miter"/>
   </g>
   <g id="patch_7">
    <path d="M 97.543045 71.25575 
C 97.672713 71.25575 97.797087 71.204233 97.888776 71.112544 
C 97.980465 71.020855 98.031982 70.89648 98.031982 70.766813 
C 98.031982 70.637145 97.980465 70.512771 97.888776 70.421082 
C 97.797087 70.329393 97.672713 70.277875 97.543045 70.277875 
C 97.413377 70.277875 97.289003 70.329393 97.197314 70.421082 
C 97.105625 70.512771 97.054107 70.637145 97.054107 70.766813 
C 97.054107 70.89648 97.105625 71.020855 97.197314 71.112544 
C 97.289003 71.204233 97.413377 71.25575 97.543045 71.25575 
z
" clip-path="url(#p7a4924531a)" style="stroke: #000000; stroke-linejoin: miter"/>
   </g>
   <g id="patch_8">
    <path d="M 100.47667 74.189376 
C 100.606338 74.189376 100.730712 74.137858 100.822401 74.046169 
C 100.91409 73.95448 100.965608 73.830106 100.965608 73.700438 
C 100.965608 73.57077 100.91409 73.446396 100.822401 73.354707 
C 100.730712 73.263018 100.606338 73.211501 100.47667 73.211501 
C 100.347003 73.211501 100.222628 73.263018 100.130939 73.354707 
C 100.03925 73.446396 99.987733 73.57077 99.987733 73.700438 
C 99.987733 73.830106 100.03925 73.95448 100.130939 74.046169 
C 100.222628 74.137858 100.347003 74.189376 100.47667 74.189376 
z
" clip-path="url(#p7a4924531a)" style="stroke: #000000; stroke-linejoin: miter"/>
   </g>
   <g id="patch_9">
    <path d="M 92.653669 87.39069 
L 114.166922 87.39069 
L 114.166922 65.877437 
L 92.653669 65.877437 
z
" clip-path="url(#p7a4924531a)" style="fill: #b2b2b2; stroke: #000000; stroke-linejoin: miter"/>
   </g>
   <g id="patch_10">
    <path d="M 95.587295 90.324315 
L 117.100548 90.324315 
L 117.100548 68.811062 
L 95.587295 68.811062 
z
" clip-path="url(#p7a4924531a)" style="fill: #808080; stroke: #000000; stroke-linejoin: miter"/>
   </g>
   <g id="patch_11">
    <path d="M 28.50506 58.543373 
L 35.350186 58.543373 
L 35.350186 65.388499 
L 28.50506 65.388499 
z
" clip-path="url(#p7a4924531a)" style="fill: #4c4c4c; stroke: #000000; stroke-linejoin: miter"/>
   </g>
   <g id="patch_12">
    <path d="M 129.812924 59.032311 
L 140.569551 59.032311 
L 140.569551 48.275685 
L 129.812924 48.275685 
z
" clip-path="url(#p7a4924531a)" style="fill: #b2b2b2; stroke: #000000; stroke-linejoin: miter"/>
   </g>
   <g id="patch_13">
    <path d="M 132.74655 61.965936 
L 143.503176 61.965936 
L 143.503176 51.20931 
L 132.74655 51.20931 
z
" clip-path="url(#p7a4924531a)" style="fill: #808080; stroke: #000000; stroke-linejoin: miter"/>
   </g>
   <g id="patch_14">
    <path d="M 141.058488 60.010186 
C 141.188156 60.010186 141.312531 59.958669 141.40422 59.86698 
C 141.495909 59.775291 141.547426 59.650916 141.547426 59.521249 
C 141.547426 59.391581 141.495909 59.267207 141.40422 59.175518 
C 141.312531 59.083829 141.188156 59.032311 141.058488 59.032311 
C 140.928821 59.032311 140.804446 59.083829 140.712757 59.175518 
C 140.621068 59.267207 140.569551 59.391581 140.569551 59.521249 
C 140.569551 59.650916 140.621068 59.775291 140.712757 59.86698 
C 140.804446 59.958669 140.928821 60.010186 141.058488 60.010186 
z
" clip-path="url(#p7a4924531a)" style="stroke: #000000; stroke-linejoin: miter"/>
   </g>
   <g id="patch_15">
    <path d="M 143.992114 62.943812 
C 144.121782 62.943812 144.246156 62.892294 144.337845 62.800605 
C 144.429534 62.708916 144.481051 62.584542 144.481051 62.454874 
C 144.481051 62.325206 144.429534 62.200832 144.337845 62.109143 
C 144.246156 62.017454 144.121782 61.965936 143.992114 61.965936 
C 143.862446 61.965936 143.738072 62.017454 143.646383 62.109143 
C 143.554694 62.200832 143.503176 62.325206 143.503176 62.454874 
C 143.503176 62.584542 143.554694 62.708916 143.646383 62.800605 
C 143.738072 62.892294 143.862446 62.943812 143.992114 62.943812 
z
" clip-path="url(#p7a4924531a)" style="stroke: #000000; stroke-linejoin: miter"/>
   </g>
   <g id="patch_16">
    <path d="M 146.925739 65.877437 
C 147.055407 65.877437 147.179781 65.825919 147.27147 65.734231 
C 147.363159 65.642542 147.414677 65.518167 147.414677 65.388499 
C 147.414677 65.258832 147.363159 65.134457 147.27147 65.042768 
C 147.179781 64.951079 147.055407 64.899562 146.925739 64.899562 
C 146.796072 64.899562 146.671697 64.951079 146.580008 65.042768 
C 146.488319 65.134457 146.436802 65.258832 146.436802 65.388499 
C 146.436802 65.518167 146.488319 65.642542 146.580008 65.734231 
C 146.671697 65.825919 146.796072 65.877437 146.925739 65.877437 
z
" clip-path="url(#p7a4924531a)" style="stroke: #000000; stroke-linejoin: miter"/>
   </g>
   <g id="patch_17">
    <path d="M 149.859365 68.811062 
C 149.989032 68.811062 150.113407 68.759545 150.205096 68.667856 
C 150.296785 68.576167 150.348302 68.451793 150.348302 68.322125 
C 150.348302 68.192457 150.296785 68.068083 150.205096 67.976394 
C 150.113407 67.884705 149.989032 67.833187 149.859365 67.833187 
C 149.729697 67.833187 149.605323 67.884705 149.513634 67.976394 
C 149.421945 68.068083 149.370427 68.192457 149.370427 68.322125 
C 149.370427 68.451793 149.421945 68.576167 149.513634 68.667856 
C 149.605323 68.759545 149.729697 68.811062 149.859365 68.811062 
z
" clip-path="url(#p7a4924531a)" style="stroke: #000000; stroke-linejoin: miter"/>
   </g>
   <g id="patch_18">
    <path d="M 147.414677 76.634064 
L 158.171303 76.634064 
L 158.171303 65.877437 
L 147.414677 65.877437 
z
" clip-path="url(#p7a4924531a)" style="fill: #b2b2b2; stroke: #000000; stroke-linejoin: miter"/>
   </g>
   <g id="patch_19">
    <path d="M 150.348302 79.567689 
L 161.104929 79.567689 
L 161.104929 68.811062 
L 150.348302 68.811062 
z
" clip-path="url(#p7a4924531a)" style="fill: #808080; stroke: #000000; stroke-linejoin: miter"/>
   </g>
   <g id="patch_20">
    <path d="M 103.410296 84.457065 
L 105.366046 84.457065 
L 105.366046 86.412815 
L 103.410296 86.412815 
z
" clip-path="url(#p7a4924531a)" style="fill: #4c4c4c; stroke: #000000; stroke-linejoin: miter"/>
   </g>
   <g id="patch_21">
    <path d="M 184.573932 59.032311 
L 195.330559 59.032311 
L 195.330559 48.275685 
L 184.573932 48.275685 
z
" clip-path="url(#p7a4924531a)" style="fill: #b2b2b2; stroke: #000000; stroke-linejoin: miter"/>
   </g>
   <g id="patch_22">
    <path d="M 187.507558 61.965936 
L 198.264184 61.965936 
L 198.264184 51.20931 
L 187.507558 51.20931 
z
" clip-path="url(#p7a4924531a)" style="fill: #808080; stroke: #000000; stroke-linejoin: miter"/>
   </g>
   <g id="patch_23">
    <path d="M 195.819496 60.010186 
C 195.949164 60.010186 196.073538 59.958669 196.165227 59.86698 
C 196.256916 59.775291 196.308434 59.650916 196.308434 59.521249 
C 196.308434 59.391581 196.256916 59.267207 196.165227 59.175518 
C 196.073538 59.083829 195.949164 59.032311 195.819496 59.032311 
C 195.689828 59.032311 195.565454 59.083829 195.473765 59.175518 
C 195.382076 59.267207 195.330559 59.391581 195.330559 59.521249 
C 195.330559 59.650916 195.382076 59.775291 195.473765 59.86698 
C 195.565454 59.958669 195.689828 60.010186 195.819496 60.010186 
z
" clip-path="url(#p7a4924531a)" style="stroke: #000000; stroke-linejoin: miter"/>
   </g>
   <g id="patch_24">
    <path d="M 198.753122 62.943812 
C 198.882789 62.943812 199.007164 62.892294 199.098853 62.800605 
C 199.190542 62.708916 199.242059 62.584542 199.242059 62.454874 
C 199.242059 62.325206 199.190542 62.200832 199.098853 62.109143 
C 199.007164 62.017454 198.882789 61.965936 198.753122 61.965936 
C 198.623454 61.965936 198.499079 62.017454 198.407391 62.109143 
C 198.315702 62.200832 198.264184 62.325206 198.264184 62.454874 
C 198.264184 62.584542 198.315702 62.708916 198.407391 62.800605 
C 198.499079 62.892294 198.623454 62.943812 198.753122 62.943812 
z
" clip-path="url(#p7a4924531a)" style="stroke: #000000; stroke-linejoin: miter"/>
   </g>
   <g id="patch_25">
    <path d="M 201.686747 65.877437 
C 201.816415 65.877437 201.940789 65.825919 202.032478 65.734231 
C 202.124167 65.642542 202.175685 65.518167 202.175685 65.388499 
C 202.175685 65.258832 202.124167 65.134457 202.032478 65.042768 
C 201.940789 64.951079 201.816415 64.899562 201.686747 64.899562 
C 201.557079 64.899562 201.432705 64.951079 201.341016 65.042768 
C 201.249327 65.134457 201.197809 65.258832 201.197809 65.388499 
C 201.197809 65.518167 201.249327 65.642542 201.341016 65.734231 
C 201.432705 65.825919 201.557079 65.877437 201.686747 65.877437 
z
" clip-path="url(#p7a4924531a)" style="stroke: #000000; stroke-linejoin: miter"/>
   </g>
   <g id="patch_26">
    <path d="M 204.620372 68.811062 
C 204.75004 68.811062 204.874415 68.759545 204.966103 68.667856 
C 205.057792 68.576167 205.10931 68.451793 205.10931 68.322125 
C 205.10931 68.192457 205.057792 68.068083 204.966103 67.976394 
C 204.874415 67.884705 204.75004 67.833187 204.620372 67.833187 
C 204.490705 67.833187 204.36633 67.884705 204.274641 67.976394 
C 204.182952 68.068083 204.131435 68.192457 204.131435 68.322125 
C 204.131435 68.451793 204.182952 68.576167 204.274641 68.667856 
C 204.36633 68.759545 204.490705 68.811062 204.620372 68.811062 
z
" clip-path="url(#p7a4924531a)" style="stroke: #000000; stroke-linejoin: miter"/>
   </g>
   <g id="patch_27">
    <path d="M 202.175685 76.634064 
L 212.932311 76.634064 
L 212.932311 65.877437 
L 202.175685 65.877437 
z
" clip-path="url(#p7a4924531a)" style="fill: #b2b2b2; stroke: #000000; stroke-linejoin: miter"/>
   </g>
   <g id="patch_28">
    <path d="M 205.10931 79.567689 
L 215.865936 79.567689 
L 215.865936 68.811062 
L 205.10931 68.811062 
z
" clip-path="url(#p7a4924531a)" style="fill: #808080; stroke: #000000; stroke-linejoin: miter"/>
   </g>
   <g id="patch_29">
    <path d="M 153.477503 72.722563 
L 156.411128 72.722563 
L 156.411128 75.656188 
L 153.477503 75.656188 
z
" clip-path="url(#p7a4924531a)" style="fill: #4c4c4c; stroke: #000000; stroke-linejoin: miter"/>
   </g>
   <g id="patch_30">
    <path d="M 239.33494 51.20931 
L 242.268565 51.20931 
L 242.268565 48.275685 
L 239.33494 48.275685 
z
" clip-path="url(#p7a4924531a)" style="fill: #b2b2b2; stroke: #000000; stroke-linejoin: miter"/>
   </g>
   <g id="patch_31">
    <path d="M 242.268565 54.142935 
L 245.202191 54.142935 
L 245.202191 51.20931 
L 242.268565 51.20931 
z
" clip-path="url(#p7a4924531a)" style="fill: #808080; stroke: #000000; stroke-linejoin: miter"/>
   </g>
   <g id="patch_32">
    <path d="M 246.669003 56.098686 
C 246.798671 56.098686 246.923045 56.047168 247.014734 55.955479 
C 247.106423 55.86379 247.157941 55.739416 247.157941 55.609748 
C 247.157941 55.48008 247.106423 55.355706 247.014734 55.264017 
C 246.923045 55.172328 246.798671 55.120811 246.669003 55.120811 
C 246.539336 55.120811 246.414961 55.172328 246.323272 55.264017 
C 246.231583 55.355706 246.180066 55.48008 246.180066 55.609748 
C 246.180066 55.739416 246.231583 55.86379 246.323272 55.955479 
C 246.414961 56.047168 246.539336 56.098686 246.669003 56.098686 
z
" clip-path="url(#p7a4924531a)" style="stroke: #000000; stroke-linejoin: miter"/>
   </g>
   <g id="patch_33">
    <path d="M 249.602629 59.032311 
C 249.732296 59.032311 249.856671 58.980794 249.94836 58.889105 
C 250.040049 58.797416 250.091566 58.673041 250.091566 58.543373 
C 250.091566 58.413706 250.040049 58.289331 249.94836 58.197642 
C 249.856671 58.105953 249.732296 58.054436 249.602629 58.054436 
C 249.472961 58.054436 249.348587 58.105953 249.256898 58.197642 
C 249.165209 58.289331 249.113691 58.413706 249.113691 58.543373 
C 249.113691 58.673041 249.165209 58.797416 249.256898 58.889105 
C 249.348587 58.980794 249.472961 59.032311 249.602629 59.032311 
z
" clip-path="url(#p7a4924531a)" style="stroke: #000000; stroke-linejoin: miter"/>
   </g>
   <g id="patch_34">
    <path d="M 252.536254 61.965936 
C 252.665922 61.965936 252.790296 61.914419 252.881985 61.82273 
C 252.973674 61.731041 253.025192 61.606667 253.025192 61.476999 
C 253.025192 61.347331 252.973674 61.222957 252.881985 61.131268 
C 252.790296 61.039579 252.665922 60.988061 252.536254 60.988061 
C 252.406586 60.988061 252.282212 61.039579 252.190523 61.131268 
C 252.098834 61.222957 252.047317 61.347331 252.047317 61.476999 
C 252.047317 61.606667 252.098834 61.731041 252.190523 61.82273 
C 252.282212 61.914419 252.406586 61.965936 252.536254 61.965936 
z
" clip-path="url(#p7a4924531a)" style="stroke: #000000; stroke-linejoin: miter"/>
   </g>
   <g id="patch_35">
    <path d="M 255.46988 64.899562 
C 255.599547 64.899562 255.723922 64.848044 255.815611 64.756355 
C 255.9073 64.664666 255.958817 64.540292 255.958817 64.410624 
C 255.958817 64.280957 255.9073 64.156582 255.815611 64.064893 
C 255.723922 63.973204 255.599547 63.921687 255.46988 63.921687 
C 255.340212 63.921687 255.215837 63.973204 255.124148 64.064893 
C 255.032459 64.156582 254.980942 64.280957 254.980942 64.410624 
C 254.980942 64.540292 255.032459 64.664666 255.124148 64.756355 
C 255.215837 64.848044 255.340212 64.899562 255.46988 64.899562 
z
" clip-path="url(#p7a4924531a)" style="stroke: #000000; stroke-linejoin: miter"/>
   </g>
   <g id="patch_36">
    <path d="M 256.936692 68.811062 
L 259.870318 68.811062 
L 259.870318 65.877437 
L 256.936692 65.877437 
z
" clip-path="url(#p7a4924531a)" style="fill: #b2b2b2; stroke: #000000; stroke-linejoin: miter"/>
   </g>
   <g id="patch_37">
    <path d="M 259.870318 71.744688 
L 262.803943 71.744688 
L 262.803943 68.811062 
L 259.870318 68.811062 
z
" clip-path="url(#p7a4924531a)" style="fill: #808080; stroke: #000000; stroke-linejoin: miter"/>
   </g>
   <g id="patch_38">
    <path d="M 208.23851 75.069463 
L 211.172136 75.069463 
L 211.172136 78.003089 
L 208.23851 78.003089 
z
" clip-path="url(#p7a4924531a)" style="fill: #4c4c4c; stroke: #000000; stroke-linejoin: miter"/>
   </g>
   <g id="patch_39">
    <path d="M 294.095947 50.231435 
L 296.051698 50.231435 
L 296.051698 48.275685 
L 294.095947 48.275685 
z
" clip-path="url(#p7a4924531a)" style="fill: #b2b2b2; stroke: #000000; stroke-linejoin: miter"/>
   </g>
   <g id="patch_40">
    <path d="M 297.029573 53.16506 
L 298.985323 53.16506 
L 298.985323 51.20931 
L 297.029573 51.20931 
z
" clip-path="url(#p7a4924531a)" style="fill: #808080; stroke: #000000; stroke-linejoin: miter"/>
   </g>
   <g id="patch_41">
    <path d="M 300.941073 55.609748 
C 301.070741 55.609748 301.195116 55.558231 301.286804 55.466542 
C 301.378493 55.374853 301.430011 55.250478 301.430011 55.120811 
C 301.430011 54.991143 301.378493 54.866768 301.286804 54.775079 
C 301.195116 54.68339 301.070741 54.631873 300.941073 54.631873 
C 300.811406 54.631873 300.687031 54.68339 300.595342 54.775079 
C 300.503653 54.866768 300.452136 54.991143 300.452136 55.120811 
C 300.452136 55.250478 300.503653 55.374853 300.595342 55.466542 
C 300.687031 55.558231 300.811406 55.609748 300.941073 55.609748 
z
" clip-path="url(#p7a4924531a)" style="stroke: #000000; stroke-linejoin: miter"/>
   </g>
   <g id="patch_42">
    <path d="M 303.874699 58.543373 
C 304.004367 58.543373 304.128741 58.491856 304.22043 58.400167 
C 304.312119 58.308478 304.363636 58.184104 304.363636 58.054436 
C 304.363636 57.924768 304.312119 57.800394 304.22043 57.708705 
C 304.128741 57.617016 304.004367 57.565498 303.874699 57.565498 
C 303.745031 57.565498 303.620657 57.617016 303.528968 57.708705 
C 303.437279 57.800394 303.385761 57.924768 303.385761 58.054436 
C 303.385761 58.184104 303.437279 58.308478 303.528968 58.400167 
C 303.620657 58.491856 303.745031 58.543373 303.874699 58.543373 
z
" clip-path="url(#p7a4924531a)" style="stroke: #000000; stroke-linejoin: miter"/>
   </g>
   <g id="patch_43">
    <path d="M 306.808324 61.476999 
C 306.937992 61.476999 307.062366 61.425481 307.154055 61.333792 
C 307.245744 61.242103 307.297262 61.117729 307.297262 60.988061 
C 307.297262 60.858394 307.245744 60.734019 307.154055 60.64233 
C 307.062366 60.550641 306.937992 60.499124 306.808324 60.499124 
C 306.678656 60.499124 306.554282 60.550641 306.462593 60.64233 
C 306.370904 60.734019 306.319387 60.858394 306.319387 60.988061 
C 306.319387 61.117729 306.370904 61.242103 306.462593 61.333792 
C 306.554282 61.425481 306.678656 61.476999 306.808324 61.476999 
z
" clip-path="url(#p7a4924531a)" style="stroke: #000000; stroke-linejoin: miter"/>
   </g>
   <g id="patch_44">
    <path d="M 309.74195 64.410624 
C 309.871617 64.410624 309.995992 64.359107 310.087681 64.267418 
C 310.17937 64.175729 310.230887 64.051355 310.230887 63.921687 
C 310.230887 63.792019 310.17937 63.667645 310.087681 63.575956 
C 309.995992 63.484267 309.871617 63.432749 309.74195 63.432749 
C 309.612282 63.432749 309.487907 63.484267 309.396219 63.575956 
C 309.30453 63.667645 309.253012 63.792019 309.253012 63.921687 
C 309.253012 64.051355 309.30453 64.175729 309.396219 64.267418 
C 309.487907 64.359107 309.612282 64.410624 309.74195 64.410624 
z
" clip-path="url(#p7a4924531a)" style="stroke: #000000; stroke-linejoin: miter"/>
   </g>
   <g id="patch_45">
    <path d="M 311.6977 67.833187 
L 313.65345 67.833187 
L 313.65345 65.877437 
L 311.6977 65.877437 
z
" clip-path="url(#p7a4924531a)" style="fill: #b2b2b2; stroke: #000000; stroke-linejoin: miter"/>
   </g>
   <g id="patch_46">
    <path d="M 314.631325 70.766813 
L 316.587076 70.766813 
L 316.587076 68.811062 
L 314.631325 68.811062 
z
" clip-path="url(#p7a4924531a)" style="fill: #808080; stroke: #000000; stroke-linejoin: miter"/>
   </g>
   <g id="patch_47">
    <path d="M 348.856955 50.231435 
L 350.812705 50.231435 
L 350.812705 48.275685 
L 348.856955 48.275685 
z
" clip-path="url(#p7a4924531a)" style="fill: #b2b2b2; stroke: #000000; stroke-linejoin: miter"/>
   </g>
   <g id="patch_48">
    <path d="M 351.790581 53.16506 
L 353.746331 53.16506 
L 353.746331 51.20931 
L 351.790581 51.20931 
z
" clip-path="url(#p7a4924531a)" style="fill: #808080; stroke: #000000; stroke-linejoin: miter"/>
   </g>
   <g id="patch_49">
    <path d="M 355.702081 55.609748 
C 355.831749 55.609748 355.956123 55.558231 356.047812 55.466542 
C 356.139501 55.374853 356.191019 55.250478 356.191019 55.120811 
C 356.191019 54.991143 356.139501 54.866768 356.047812 54.775079 
C 355.956123 54.68339 355.831749 54.631873 355.702081 54.631873 
C 355.572413 54.631873 355.448039 54.68339 355.35635 54.775079 
C 355.264661 54.866768 355.213143 54.991143 355.213143 55.120811 
C 355.213143 55.250478 355.264661 55.374853 355.35635 55.466542 
C 355.448039 55.558231 355.572413 55.609748 355.702081 55.609748 
z
" clip-path="url(#p7a4924531a)" style="stroke: #000000; stroke-linejoin: miter"/>
   </g>
   <g id="patch_50">
    <path d="M 358.635706 58.543373 
C 358.765374 58.543373 358.889749 58.491856 358.981438 58.400167 
C 359.073126 58.308478 359.124644 58.184104 359.124644 58.054436 
C 359.124644 57.924768 359.073126 57.800394 358.981438 57.708705 
C 358.889749 57.617016 358.765374 57.565498 358.635706 57.565498 
C 358.506039 57.565498 358.381664 57.617016 358.289975 57.708705 
C 358.198286 57.800394 358.146769 57.924768 358.146769 58.054436 
C 358.146769 58.184104 358.198286 58.308478 358.289975 58.400167 
C 358.381664 58.491856 358.506039 58.543373 358.635706 58.543373 
z
" clip-path="url(#p7a4924531a)" style="stroke: #000000; stroke-linejoin: miter"/>
   </g>
   <g id="patch_51">
    <path d="M 361.569332 61.476999 
C 361.699 61.476999 361.823374 61.425481 361.915063 61.333792 
C 362.006752 61.242103 362.058269 61.117729 362.058269 60.988061 
C 362.058269 60.858394 362.006752 60.734019 361.915063 60.64233 
C 361.823374 60.550641 361.699 60.499124 361.569332 60.499124 
C 361.439664 60.499124 361.31529 60.550641 361.223601 60.64233 
C 361.131912 60.734019 361.080394 60.858394 361.080394 60.988061 
C 361.080394 61.117729 361.131912 61.242103 361.223601 61.333792 
C 361.31529 61.425481 361.439664 61.476999 361.569332 61.476999 
z
" clip-path="url(#p7a4924531a)" style="stroke: #000000; stroke-linejoin: miter"/>
   </g>
   <g id="patch_52">
    <path d="M 364.502957 64.410624 
C 364.632625 64.410624 364.756999 64.359107 364.848688 64.267418 
C 364.940377 64.175729 364.991895 64.051355 364.991895 63.921687 
C 364.991895 63.792019 364.940377 63.667645 364.848688 63.575956 
C 364.756999 63.484267 364.632625 63.432749 364.502957 63.432749 
C 364.37329 63.432749 364.248915 63.484267 364.157226 63.575956 
C 364.065537 63.667645 364.01402 63.792019 364.01402 63.921687 
C 364.01402 64.051355 364.065537 64.175729 364.157226 64.267418 
C 364.248915 64.359107 364.37329 64.410624 364.502957 64.410624 
z
" clip-path="url(#p7a4924531a)" style="stroke: #000000; stroke-linejoin: miter"/>
   </g>
   <g id="patch_53">
    <path d="M 366.458708 67.833187 
L 368.414458 67.833187 
L 368.414458 65.877437 
L 366.458708 65.877437 
z
" clip-path="url(#p7a4924531a)" style="fill: #b2b2b2; stroke: #000000; stroke-linejoin: miter"/>
   </g>
   <g id="patch_54">
    <path d="M 369.392333 70.766813 
L 371.348083 70.766813 
L 371.348083 68.811062 
L 369.392333 68.811062 
z
" clip-path="url(#p7a4924531a)" style="fill: #808080; stroke: #000000; stroke-linejoin: miter"/>
   </g>
   <g id="patch_55">
    <path d="M 403.617963 50.231435 
L 405.573713 50.231435 
L 405.573713 48.275685 
L 403.617963 48.275685 
z
" clip-path="url(#p7a4924531a)" style="fill: #b2b2b2; stroke: #000000; stroke-linejoin: miter"/>
   </g>
   <g id="patch_56">
    <path d="M 406.551588 53.16506 
L 408.507338 53.16506 
L 408.507338 51.20931 
L 406.551588 51.20931 
z
" clip-path="url(#p7a4924531a)" style="fill: #808080; stroke: #000000; stroke-linejoin: miter"/>
   </g>
   <g id="patch_57">
    <path d="M 410.463089 55.609748 
C 410.592756 55.609748 410.717131 55.558231 410.80882 55.466542 
C 410.900509 55.374853 410.952026 55.250478 410.952026 55.120811 
C 410.952026 54.991143 410.900509 54.866768 410.80882 54.775079 
C 410.717131 54.68339 410.592756 54.631873 410.463089 54.631873 
C 410.333421 54.631873 410.209047 54.68339 410.117358 54.775079 
C 410.025669 54.866768 409.974151 54.991143 409.974151 55.120811 
C 409.974151 55.250478 410.025669 55.374853 410.117358 55.466542 
C 410.209047 55.558231 410.333421 55.609748 410.463089 55.609748 
z
" clip-path="url(#p7a4924531a)" style="stroke: #000000; stroke-linejoin: miter"/>
   </g>
   <g id="patch_58">
    <path d="M 413.396714 58.543373 
C 413.526382 58.543373 413.650756 58.491856 413.742445 58.400167 
C 413.834134 58.308478 413.885652 58.184104 413.885652 58.054436 
C 413.885652 57.924768 413.834134 57.800394 413.742445 57.708705 
C 413.650756 57.617016 413.526382 57.565498 413.396714 57.565498 
C 413.267046 57.565498 413.142672 57.617016 413.050983 57.708705 
C 412.959294 57.800394 412.907777 57.924768 412.907777 58.054436 
C 412.907777 58.184104 412.959294 58.308478 413.050983 58.400167 
C 413.142672 58.491856 413.267046 58.543373 413.396714 58.543373 
z
" clip-path="url(#p7a4924531a)" style="stroke: #000000; stroke-linejoin: miter"/>
   </g>
   <g id="patch_59">
    <path d="M 416.33034 61.476999 
C 416.460007 61.476999 416.584382 61.425481 416.676071 61.333792 
C 416.76776 61.242103 416.819277 61.117729 416.819277 60.988061 
C 416.819277 60.858394 416.76776 60.734019 416.676071 60.64233 
C 416.584382 60.550641 416.460007 60.499124 416.33034 60.499124 
C 416.200672 60.499124 416.076297 60.550641 415.984608 60.64233 
C 415.89292 60.734019 415.841402 60.858394 415.841402 60.988061 
C 415.841402 61.117729 415.89292 61.242103 415.984608 61.333792 
C 416.076297 61.425481 416.200672 61.476999 416.33034 61.476999 
z
" clip-path="url(#p7a4924531a)" style="stroke: #000000; stroke-linejoin: miter"/>
   </g>
   <g id="patch_60">
    <path d="M 419.263965 64.410624 
C 419.393633 64.410624 419.518007 64.359107 419.609696 64.267418 
C 419.701385 64.175729 419.752903 64.051355 419.752903 63.921687 
C 419.752903 63.792019 419.701385 63.667645 419.609696 63.575956 
C 419.518007 63.484267 419.393633 63.432749 419.263965 63.432749 
C 419.134297 63.432749 419.009923 63.484267 418.918234 63.575956 
C 418.826545 63.667645 418.775027 63.792019 418.775027 63.921687 
C 418.775027 64.051355 418.826545 64.175729 418.918234 64.267418 
C 419.009923 64.359107 419.134297 64.410624 419.263965 64.410624 
z
" clip-path="url(#p7a4924531a)" style="stroke: #000000; stroke-linejoin: miter"/>
   </g>
   <g id="patch_61">
    <path d="M 421.219715 67.833187 
L 423.175465 67.833187 
L 423.175465 65.877437 
L 421.219715 65.877437 
z
" clip-path="url(#p7a4924531a)" style="fill: #b2b2b2; stroke: #000000; stroke-linejoin: miter"/>
   </g>
   <g id="patch_62">
    <path d="M 424.153341 70.766813 
L 426.109091 70.766813 
L 426.109091 68.811062 
L 424.153341 68.811062 
z
" clip-path="url(#p7a4924531a)" style="fill: #808080; stroke: #000000; stroke-linejoin: miter"/>
   </g>
   <g id="line2d_1">
    <path d="M 28.50506 58.543373 
L 104.192596 79.567689 
" clip-path="url(#p7a4924531a)" style="fill: none; stroke: #262626; stroke-width: 1.5; stroke-linecap: square"/>
   </g>
   <g id="line2d_2">
    <path d="M 35.350186 58.543373 
L 104.192596 79.567689 
" clip-path="url(#p7a4924531a)" style="fill: none; stroke: #262626; stroke-width: 1.5; stroke-linecap: square"/>
   </g>
   <g id="line2d_3">
    <path d="M 28.50506 65.388499 
L 104.192596 79.567689 
" clip-path="url(#p7a4924531a)" style="fill: none; stroke: #262626; stroke-width: 1.5; stroke-linecap: square"/>
   </g>
   <g id="line2d_4">
    <path d="M 35.350186 65.388499 
L 104.192596 79.567689 
" clip-path="url(#p7a4924531a)" style="fill: none; stroke: #262626; stroke-width: 1.5; stroke-linecap: square"/>
   </g>
   <g id="line2d_5">
    <path d="M 103.410296 84.457065 
L 154.650953 77.416364 
" clip-path="url(#p7a4924531a)" style="fill: none; stroke: #262626; stroke-width: 1.5; stroke-linecap: square"/>
   </g>
   <g id="line2d_6">
    <path d="M 105.366046 84.457065 
L 154.650953 77.416364 
" clip-path="url(#p7a4924531a)" style="fill: none; stroke: #262626; stroke-width: 1.5; stroke-linecap: square"/>
   </g>
   <g id="line2d_7">
    <path d="M 103.410296 86.412815 
L 154.650953 77.416364 
" clip-path="url(#p7a4924531a)" style="fill: none; stroke: #262626; stroke-width: 1.5; stroke-linecap: square"/>
   </g>
   <g id="line2d_8">
    <path d="M 105.366046 86.412815 
L 154.650953 77.416364 
" clip-path="url(#p7a4924531a)" style="fill: none; stroke: #262626; stroke-width: 1.5; stroke-linecap: square"/>
   </g>
   <g id="line2d_9">
    <path d="M 153.477503 72.722563 
L 209.411961 74.189376 
" clip-path="url(#p7a4924531a)" style="fill: none; stroke: #262626; stroke-width: 1.5; stroke-linecap: square"/>
   </g>
   <g id="line2d_10">
    <path d="M 156.411128 72.722563 
L 209.411961 74.189376 
" clip-path="url(#p7a4924531a)" style="fill: none; stroke: #262626; stroke-width: 1.5; stroke-linecap: square"/>
   </g>
   <g id="line2d_11">
    <path d="M 153.477503 75.656188 
L 209.411961 74.189376 
" clip-path="url(#p7a4924531a)" style="fill: none; stroke: #262626; stroke-width: 1.5; stroke-linecap: square"/>
   </g>
   <g id="line2d_12">
    <path d="M 156.411128 75.656188 
L 209.411961 74.189376 
" clip-path="url(#p7a4924531a)" style="fill: none; stroke: #262626; stroke-width: 1.5; stroke-linecap: square"/>
   </g>
   <g id="line2d_13">
    <path d="M 208.23851 75.069463 
L 261.043768 71.157963 
" clip-path="url(#p7a4924531a)" style="fill: none; stroke: #262626; stroke-width: 1.5; stroke-linecap: square"/>
   </g>
   <g id="line2d_14">
    <path d="M 211.172136 75.069463 
L 261.043768 71.157963 
" clip-path="url(#p7a4924531a)" style="fill: none; stroke: #262626; stroke-width: 1.5; stroke-linecap: square"/>
   </g>
   <g id="line2d_15">
    <path d="M 208.23851 78.003089 
L 261.043768 71.157963 
" clip-path="url(#p7a4924531a)" style="fill: none; stroke: #262626; stroke-width: 1.5; stroke-linecap: square"/>
   </g>
   <g id="line2d_16">
    <path d="M 211.172136 78.003089 
L 261.043768 71.157963 
" clip-path="url(#p7a4924531a)" style="fill: none; stroke: #262626; stroke-width: 1.5; stroke-linecap: square"/>
   </g>
   <g id="text_1">
    <!-- Inputs -->
    <g transform="translate(20.290909 37.645497) scale(0.06 -0.06)">
     <defs>
      <path id="DejaVuSans-49" d="M 628 4666 
L 1259 4666 
L 1259 0 
L 628 0 
L 628 4666 
z
" transform="scale(0.015625)"/>
      <path id="DejaVuSans-6e" d="M 3513 2113 
L 3513 0 
L 2938 0 
L 2938 2094 
Q 2938 2591 2744 2837 
Q 2550 3084 2163 3084 
Q 1697 3084 1428 2787 
Q 1159 2491 1159 1978 
L 1159 0 
L 581 0 
L 581 3500 
L 1159 3500 
L 1159 2956 
Q 1366 3272 1645 3428 
Q 1925 3584 2291 3584 
Q 2894 3584 3203 3211 
Q 3513 2838 3513 2113 
z
" transform="scale(0.015625)"/>
      <path id="DejaVuSans-70" d="M 1159 525 
L 1159 -1331 
L 581 -1331 
L 581 3500 
L 1159 3500 
L 1159 2969 
Q 1341 3281 1617 3432 
Q 1894 3584 2278 3584 
Q 2916 3584 3314 3078 
Q 3713 2572 3713 1747 
Q 3713 922 3314 415 
Q 2916 -91 2278 -91 
Q 1894 -91 1617 61 
Q 1341 213 1159 525 
z
M 3116 1747 
Q 3116 2381 2855 2742 
Q 2594 3103 2138 3103 
Q 1681 3103 1420 2742 
Q 1159 2381 1159 1747 
Q 1159 1113 1420 752 
Q 1681 391 2138 391 
Q 2594 391 2855 752 
Q 3116 1113 3116 1747 
z
" transform="scale(0.015625)"/>
      <path id="DejaVuSans-75" d="M 544 1381 
L 544 3500 
L 1119 3500 
L 1119 1403 
Q 1119 906 1312 657 
Q 1506 409 1894 409 
Q 2359 409 2629 706 
Q 2900 1003 2900 1516 
L 2900 3500 
L 3475 3500 
L 3475 0 
L 2900 0 
L 2900 538 
Q 2691 219 2414 64 
Q 2138 -91 1772 -91 
Q 1169 -91 856 284 
Q 544 659 544 1381 
z
M 1991 3584 
L 1991 3584 
z
" transform="scale(0.015625)"/>
      <path id="DejaVuSans-74" d="M 1172 4494 
L 1172 3500 
L 2356 3500 
L 2356 3053 
L 1172 3053 
L 1172 1153 
Q 1172 725 1289 603 
Q 1406 481 1766 481 
L 2356 481 
L 2356 0 
L 1766 0 
Q 1100 0 847 248 
Q 594 497 594 1153 
L 594 3053 
L 172 3053 
L 172 3500 
L 594 3500 
L 594 4494 
L 1172 4494 
z
" transform="scale(0.015625)"/>
      <path id="DejaVuSans-73" d="M 2834 3397 
L 2834 2853 
Q 2591 2978 2328 3040 
Q 2066 3103 1784 3103 
Q 1356 3103 1142 2972 
Q 928 2841 928 2578 
Q 928 2378 1081 2264 
Q 1234 2150 1697 2047 
L 1894 2003 
Q 2506 1872 2764 1633 
Q 3022 1394 3022 966 
Q 3022 478 2636 193 
Q 2250 -91 1575 -91 
Q 1294 -91 989 -36 
Q 684 19 347 128 
L 347 722 
Q 666 556 975 473 
Q 1284 391 1588 391 
Q 1994 391 2212 530 
Q 2431 669 2431 922 
Q 2431 1156 2273 1281 
Q 2116 1406 1581 1522 
L 1381 1569 
Q 847 1681 609 1914 
Q 372 2147 372 2553 
Q 372 3047 722 3315 
Q 1072 3584 1716 3584 
Q 2034 3584 2315 3537 
Q 2597 3491 2834 3397 
z
" transform="scale(0.015625)"/>
     </defs>
     <use xlink:href="#DejaVuSans-49"/>
     <use xlink:href="#DejaVuSans-6e" x="29.492188"/>
     <use xlink:href="#DejaVuSans-70" x="92.871094"/>
     <use xlink:href="#DejaVuSans-75" x="156.347656"/>
     <use xlink:href="#DejaVuSans-74" x="219.726562"/>
     <use xlink:href="#DejaVuSans-73" x="258.935547"/>
    </g>
    <!-- 1@28x28 -->
    <g transform="translate(20.290909 44.364184) scale(0.06 -0.06)">
     <defs>
      <path id="DejaVuSans-31" d="M 794 531 
L 1825 531 
L 1825 4091 
L 703 3866 
L 703 4441 
L 1819 4666 
L 2450 4666 
L 2450 531 
L 3481 531 
L 3481 0 
L 794 0 
L 794 531 
z
" transform="scale(0.015625)"/>
      <path id="DejaVuSans-40" d="M 2381 1678 
Q 2381 1231 2603 976 
Q 2825 722 3213 722 
Q 3597 722 3817 978 
Q 4038 1234 4038 1678 
Q 4038 2116 3813 2373 
Q 3588 2631 3206 2631 
Q 2828 2631 2604 2375 
Q 2381 2119 2381 1678 
z
M 4084 744 
Q 3897 503 3655 389 
Q 3413 275 3091 275 
Q 2553 275 2217 664 
Q 1881 1053 1881 1678 
Q 1881 2303 2218 2693 
Q 2556 3084 3091 3084 
Q 3413 3084 3656 2967 
Q 3900 2850 4084 2613 
L 4084 3022 
L 4531 3022 
L 4531 722 
Q 4988 791 5245 1139 
Q 5503 1488 5503 2041 
Q 5503 2375 5404 2669 
Q 5306 2963 5106 3213 
Q 4781 3622 4314 3839 
Q 3847 4056 3297 4056 
Q 2913 4056 2559 3954 
Q 2206 3853 1906 3653 
Q 1416 3334 1139 2817 
Q 863 2300 863 1697 
Q 863 1200 1042 765 
Q 1222 331 1563 0 
Q 1891 -325 2322 -495 
Q 2753 -666 3244 -666 
Q 3647 -666 4036 -530 
Q 4425 -394 4750 -141 
L 5031 -488 
Q 4641 -791 4180 -952 
Q 3719 -1113 3244 -1113 
Q 2666 -1113 2153 -908 
Q 1641 -703 1241 -313 
Q 841 78 631 592 
Q 422 1106 422 1697 
Q 422 2266 634 2781 
Q 847 3297 1241 3688 
Q 1644 4084 2172 4295 
Q 2700 4506 3291 4506 
Q 3953 4506 4520 4234 
Q 5088 3963 5472 3463 
Q 5706 3156 5829 2797 
Q 5953 2438 5953 2053 
Q 5953 1231 5456 756 
Q 4959 281 4084 263 
L 4084 744 
z
" transform="scale(0.015625)"/>
      <path id="DejaVuSans-32" d="M 1228 531 
L 3431 531 
L 3431 0 
L 469 0 
L 469 531 
Q 828 903 1448 1529 
Q 2069 2156 2228 2338 
Q 2531 2678 2651 2914 
Q 2772 3150 2772 3378 
Q 2772 3750 2511 3984 
Q 2250 4219 1831 4219 
Q 1534 4219 1204 4116 
Q 875 4013 500 3803 
L 500 4441 
Q 881 4594 1212 4672 
Q 1544 4750 1819 4750 
Q 2544 4750 2975 4387 
Q 3406 4025 3406 3419 
Q 3406 3131 3298 2873 
Q 3191 2616 2906 2266 
Q 2828 2175 2409 1742 
Q 1991 1309 1228 531 
z
" transform="scale(0.015625)"/>
      <path id="DejaVuSans-38" d="M 2034 2216 
Q 1584 2216 1326 1975 
Q 1069 1734 1069 1313 
Q 1069 891 1326 650 
Q 1584 409 2034 409 
Q 2484 409 2743 651 
Q 3003 894 3003 1313 
Q 3003 1734 2745 1975 
Q 2488 2216 2034 2216 
z
M 1403 2484 
Q 997 2584 770 2862 
Q 544 3141 544 3541 
Q 544 4100 942 4425 
Q 1341 4750 2034 4750 
Q 2731 4750 3128 4425 
Q 3525 4100 3525 3541 
Q 3525 3141 3298 2862 
Q 3072 2584 2669 2484 
Q 3125 2378 3379 2068 
Q 3634 1759 3634 1313 
Q 3634 634 3220 271 
Q 2806 -91 2034 -91 
Q 1263 -91 848 271 
Q 434 634 434 1313 
Q 434 1759 690 2068 
Q 947 2378 1403 2484 
z
M 1172 3481 
Q 1172 3119 1398 2916 
Q 1625 2713 2034 2713 
Q 2441 2713 2670 2916 
Q 2900 3119 2900 3481 
Q 2900 3844 2670 4047 
Q 2441 4250 2034 4250 
Q 1625 4250 1398 4047 
Q 1172 3844 1172 3481 
z
" transform="scale(0.015625)"/>
      <path id="DejaVuSans-78" d="M 3513 3500 
L 2247 1797 
L 3578 0 
L 2900 0 
L 1881 1375 
L 863 0 
L 184 0 
L 1544 1831 
L 300 3500 
L 978 3500 
L 1906 2253 
L 2834 3500 
L 3513 3500 
z
" transform="scale(0.015625)"/>
     </defs>
     <use xlink:href="#DejaVuSans-31"/>
     <use xlink:href="#DejaVuSans-40" x="63.623047"/>
     <use xlink:href="#DejaVuSans-32" x="163.623047"/>
     <use xlink:href="#DejaVuSans-38" x="227.246094"/>
     <use xlink:href="#DejaVuSans-78" x="290.869141"/>
     <use xlink:href="#DejaVuSans-32" x="350.048828"/>
     <use xlink:href="#DejaVuSans-38" x="413.671875"/>
    </g>
   </g>
   <g id="text_2">
    <!-- Feature -->
    <g transform="translate(75.051917 30.926809) scale(0.06 -0.06)">
     <defs>
      <path id="DejaVuSans-46" d="M 628 4666 
L 3309 4666 
L 3309 4134 
L 1259 4134 
L 1259 2759 
L 3109 2759 
L 3109 2228 
L 1259 2228 
L 1259 0 
L 628 0 
L 628 4666 
z
" transform="scale(0.015625)"/>
      <path id="DejaVuSans-65" d="M 3597 1894 
L 3597 1613 
L 953 1613 
Q 991 1019 1311 708 
Q 1631 397 2203 397 
Q 2534 397 2845 478 
Q 3156 559 3463 722 
L 3463 178 
Q 3153 47 2828 -22 
Q 2503 -91 2169 -91 
Q 1331 -91 842 396 
Q 353 884 353 1716 
Q 353 2575 817 3079 
Q 1281 3584 2069 3584 
Q 2775 3584 3186 3129 
Q 3597 2675 3597 1894 
z
M 3022 2063 
Q 3016 2534 2758 2815 
Q 2500 3097 2075 3097 
Q 1594 3097 1305 2825 
Q 1016 2553 972 2059 
L 3022 2063 
z
" transform="scale(0.015625)"/>
      <path id="DejaVuSans-61" d="M 2194 1759 
Q 1497 1759 1228 1600 
Q 959 1441 959 1056 
Q 959 750 1161 570 
Q 1363 391 1709 391 
Q 2188 391 2477 730 
Q 2766 1069 2766 1631 
L 2766 1759 
L 2194 1759 
z
M 3341 1997 
L 3341 0 
L 2766 0 
L 2766 531 
Q 2569 213 2275 61 
Q 1981 -91 1556 -91 
Q 1019 -91 701 211 
Q 384 513 384 1019 
Q 384 1609 779 1909 
Q 1175 2209 1959 2209 
L 2766 2209 
L 2766 2266 
Q 2766 2663 2505 2880 
Q 2244 3097 1772 3097 
Q 1472 3097 1187 3025 
Q 903 2953 641 2809 
L 641 3341 
Q 956 3463 1253 3523 
Q 1550 3584 1831 3584 
Q 2591 3584 2966 3190 
Q 3341 2797 3341 1997 
z
" transform="scale(0.015625)"/>
      <path id="DejaVuSans-72" d="M 2631 2963 
Q 2534 3019 2420 3045 
Q 2306 3072 2169 3072 
Q 1681 3072 1420 2755 
Q 1159 2438 1159 1844 
L 1159 0 
L 581 0 
L 581 3500 
L 1159 3500 
L 1159 2956 
Q 1341 3275 1631 3429 
Q 1922 3584 2338 3584 
Q 2397 3584 2469 3576 
Q 2541 3569 2628 3553 
L 2631 2963 
z
" transform="scale(0.015625)"/>
     </defs>
     <use xlink:href="#DejaVuSans-46"/>
     <use xlink:href="#DejaVuSans-65" x="52.019531"/>
     <use xlink:href="#DejaVuSans-61" x="113.542969"/>
     <use xlink:href="#DejaVuSans-74" x="174.822266"/>
     <use xlink:href="#DejaVuSans-75" x="214.03125"/>
     <use xlink:href="#DejaVuSans-72" x="277.410156"/>
     <use xlink:href="#DejaVuSans-65" x="316.273438"/>
    </g>
    <!-- maps -->
    <g transform="translate(75.051917 37.645497) scale(0.06 -0.06)">
     <defs>
      <path id="DejaVuSans-6d" d="M 3328 2828 
Q 3544 3216 3844 3400 
Q 4144 3584 4550 3584 
Q 5097 3584 5394 3201 
Q 5691 2819 5691 2113 
L 5691 0 
L 5113 0 
L 5113 2094 
Q 5113 2597 4934 2840 
Q 4756 3084 4391 3084 
Q 3944 3084 3684 2787 
Q 3425 2491 3425 1978 
L 3425 0 
L 2847 0 
L 2847 2094 
Q 2847 2600 2669 2842 
Q 2491 3084 2119 3084 
Q 1678 3084 1418 2786 
Q 1159 2488 1159 1978 
L 1159 0 
L 581 0 
L 581 3500 
L 1159 3500 
L 1159 2956 
Q 1356 3278 1631 3431 
Q 1906 3584 2284 3584 
Q 2666 3584 2933 3390 
Q 3200 3197 3328 2828 
z
" transform="scale(0.015625)"/>
     </defs>
     <use xlink:href="#DejaVuSans-6d"/>
     <use xlink:href="#DejaVuSans-61" x="97.412109"/>
     <use xlink:href="#DejaVuSans-70" x="158.691406"/>
     <use xlink:href="#DejaVuSans-73" x="222.167969"/>
    </g>
    <!-- 12@22x22 -->
    <g transform="translate(75.051917 44.364184) scale(0.06 -0.06)">
     <use xlink:href="#DejaVuSans-31"/>
     <use xlink:href="#DejaVuSans-32" x="63.623047"/>
     <use xlink:href="#DejaVuSans-40" x="127.246094"/>
     <use xlink:href="#DejaVuSans-32" x="227.246094"/>
     <use xlink:href="#DejaVuSans-32" x="290.869141"/>
     <use xlink:href="#DejaVuSans-78" x="354.492188"/>
     <use xlink:href="#DejaVuSans-32" x="413.671875"/>
     <use xlink:href="#DejaVuSans-32" x="477.294922"/>
    </g>
   </g>
   <g id="text_3">
    <!-- Convolution -->
    <g transform="translate(47.671413 107.074631) scale(0.06 -0.06)">
     <defs>
      <path id="DejaVuSans-43" d="M 4122 4306 
L 4122 3641 
Q 3803 3938 3442 4084 
Q 3081 4231 2675 4231 
Q 1875 4231 1450 3742 
Q 1025 3253 1025 2328 
Q 1025 1406 1450 917 
Q 1875 428 2675 428 
Q 3081 428 3442 575 
Q 3803 722 4122 1019 
L 4122 359 
Q 3791 134 3420 21 
Q 3050 -91 2638 -91 
Q 1578 -91 968 557 
Q 359 1206 359 2328 
Q 359 3453 968 4101 
Q 1578 4750 2638 4750 
Q 3056 4750 3426 4639 
Q 3797 4528 4122 4306 
z
" transform="scale(0.015625)"/>
      <path id="DejaVuSans-6f" d="M 1959 3097 
Q 1497 3097 1228 2736 
Q 959 2375 959 1747 
Q 959 1119 1226 758 
Q 1494 397 1959 397 
Q 2419 397 2687 759 
Q 2956 1122 2956 1747 
Q 2956 2369 2687 2733 
Q 2419 3097 1959 3097 
z
M 1959 3584 
Q 2709 3584 3137 3096 
Q 3566 2609 3566 1747 
Q 3566 888 3137 398 
Q 2709 -91 1959 -91 
Q 1206 -91 779 398 
Q 353 888 353 1747 
Q 353 2609 779 3096 
Q 1206 3584 1959 3584 
z
" transform="scale(0.015625)"/>
      <path id="DejaVuSans-76" d="M 191 3500 
L 800 3500 
L 1894 563 
L 2988 3500 
L 3597 3500 
L 2284 0 
L 1503 0 
L 191 3500 
z
" transform="scale(0.015625)"/>
      <path id="DejaVuSans-6c" d="M 603 4863 
L 1178 4863 
L 1178 0 
L 603 0 
L 603 4863 
z
" transform="scale(0.015625)"/>
      <path id="DejaVuSans-69" d="M 603 3500 
L 1178 3500 
L 1178 0 
L 603 0 
L 603 3500 
z
M 603 4863 
L 1178 4863 
L 1178 4134 
L 603 4134 
L 603 4863 
z
" transform="scale(0.015625)"/>
     </defs>
     <use xlink:href="#DejaVuSans-43"/>
     <use xlink:href="#DejaVuSans-6f" x="69.824219"/>
     <use xlink:href="#DejaVuSans-6e" x="131.005859"/>
     <use xlink:href="#DejaVuSans-76" x="194.384766"/>
     <use xlink:href="#DejaVuSans-6f" x="253.564453"/>
     <use xlink:href="#DejaVuSans-6c" x="314.746094"/>
     <use xlink:href="#DejaVuSans-75" x="342.529297"/>
     <use xlink:href="#DejaVuSans-74" x="405.908203"/>
     <use xlink:href="#DejaVuSans-69" x="445.117188"/>
     <use xlink:href="#DejaVuSans-6f" x="472.900391"/>
     <use xlink:href="#DejaVuSans-6e" x="534.082031"/>
    </g>
    <!-- 7x7 kernel -->
    <g transform="translate(47.671413 113.793319) scale(0.06 -0.06)">
     <defs>
      <path id="DejaVuSans-37" d="M 525 4666 
L 3525 4666 
L 3525 4397 
L 1831 0 
L 1172 0 
L 2766 4134 
L 525 4134 
L 525 4666 
z
" transform="scale(0.015625)"/>
      <path id="DejaVuSans-20" transform="scale(0.015625)"/>
      <path id="DejaVuSans-6b" d="M 581 4863 
L 1159 4863 
L 1159 1991 
L 2875 3500 
L 3609 3500 
L 1753 1863 
L 3688 0 
L 2938 0 
L 1159 1709 
L 1159 0 
L 581 0 
L 581 4863 
z
" transform="scale(0.015625)"/>
     </defs>
     <use xlink:href="#DejaVuSans-37"/>
     <use xlink:href="#DejaVuSans-78" x="63.623047"/>
     <use xlink:href="#DejaVuSans-37" x="122.802734"/>
     <use xlink:href="#DejaVuSans-20" x="186.425781"/>
     <use xlink:href="#DejaVuSans-6b" x="218.212891"/>
     <use xlink:href="#DejaVuSans-65" x="272.498047"/>
     <use xlink:href="#DejaVuSans-72" x="334.021484"/>
     <use xlink:href="#DejaVuSans-6e" x="373.384766"/>
     <use xlink:href="#DejaVuSans-65" x="436.763672"/>
     <use xlink:href="#DejaVuSans-6c" x="498.287109"/>
    </g>
   </g>
   <g id="text_4">
    <!-- Feature -->
    <g transform="translate(129.812924 30.926809) scale(0.06 -0.06)">
     <use xlink:href="#DejaVuSans-46"/>
     <use xlink:href="#DejaVuSans-65" x="52.019531"/>
     <use xlink:href="#DejaVuSans-61" x="113.542969"/>
     <use xlink:href="#DejaVuSans-74" x="174.822266"/>
     <use xlink:href="#DejaVuSans-75" x="214.03125"/>
     <use xlink:href="#DejaVuSans-72" x="277.410156"/>
     <use xlink:href="#DejaVuSans-65" x="316.273438"/>
    </g>
    <!-- maps -->
    <g transform="translate(129.812924 37.645497) scale(0.06 -0.06)">
     <use xlink:href="#DejaVuSans-6d"/>
     <use xlink:href="#DejaVuSans-61" x="97.412109"/>
     <use xlink:href="#DejaVuSans-70" x="158.691406"/>
     <use xlink:href="#DejaVuSans-73" x="222.167969"/>
    </g>
    <!-- 12@11x11 -->
    <g transform="translate(129.812924 44.364184) scale(0.06 -0.06)">
     <use xlink:href="#DejaVuSans-31"/>
     <use xlink:href="#DejaVuSans-32" x="63.623047"/>
     <use xlink:href="#DejaVuSans-40" x="127.246094"/>
     <use xlink:href="#DejaVuSans-31" x="227.246094"/>
     <use xlink:href="#DejaVuSans-31" x="290.869141"/>
     <use xlink:href="#DejaVuSans-78" x="354.492188"/>
     <use xlink:href="#DejaVuSans-31" x="413.671875"/>
     <use xlink:href="#DejaVuSans-31" x="477.294922"/>
    </g>
   </g>
   <g id="text_5">
    <!-- Max-Pooling -->
    <g transform="translate(102.432421 107.074631) scale(0.06 -0.06)">
     <defs>
      <path id="DejaVuSans-4d" d="M 628 4666 
L 1569 4666 
L 2759 1491 
L 3956 4666 
L 4897 4666 
L 4897 0 
L 4281 0 
L 4281 4097 
L 3078 897 
L 2444 897 
L 1241 4097 
L 1241 0 
L 628 0 
L 628 4666 
z
" transform="scale(0.015625)"/>
      <path id="DejaVuSans-2d" d="M 313 2009 
L 1997 2009 
L 1997 1497 
L 313 1497 
L 313 2009 
z
" transform="scale(0.015625)"/>
      <path id="DejaVuSans-50" d="M 1259 4147 
L 1259 2394 
L 2053 2394 
Q 2494 2394 2734 2622 
Q 2975 2850 2975 3272 
Q 2975 3691 2734 3919 
Q 2494 4147 2053 4147 
L 1259 4147 
z
M 628 4666 
L 2053 4666 
Q 2838 4666 3239 4311 
Q 3641 3956 3641 3272 
Q 3641 2581 3239 2228 
Q 2838 1875 2053 1875 
L 1259 1875 
L 1259 0 
L 628 0 
L 628 4666 
z
" transform="scale(0.015625)"/>
      <path id="DejaVuSans-67" d="M 2906 1791 
Q 2906 2416 2648 2759 
Q 2391 3103 1925 3103 
Q 1463 3103 1205 2759 
Q 947 2416 947 1791 
Q 947 1169 1205 825 
Q 1463 481 1925 481 
Q 2391 481 2648 825 
Q 2906 1169 2906 1791 
z
M 3481 434 
Q 3481 -459 3084 -895 
Q 2688 -1331 1869 -1331 
Q 1566 -1331 1297 -1286 
Q 1028 -1241 775 -1147 
L 775 -588 
Q 1028 -725 1275 -790 
Q 1522 -856 1778 -856 
Q 2344 -856 2625 -561 
Q 2906 -266 2906 331 
L 2906 616 
Q 2728 306 2450 153 
Q 2172 0 1784 0 
Q 1141 0 747 490 
Q 353 981 353 1791 
Q 353 2603 747 3093 
Q 1141 3584 1784 3584 
Q 2172 3584 2450 3431 
Q 2728 3278 2906 2969 
L 2906 3500 
L 3481 3500 
L 3481 434 
z
" transform="scale(0.015625)"/>
     </defs>
     <use xlink:href="#DejaVuSans-4d"/>
     <use xlink:href="#DejaVuSans-61" x="86.279297"/>
     <use xlink:href="#DejaVuSans-78" x="147.558594"/>
     <use xlink:href="#DejaVuSans-2d" x="206.738281"/>
     <use xlink:href="#DejaVuSans-50" x="242.822266"/>
     <use xlink:href="#DejaVuSans-6f" x="299.5"/>
     <use xlink:href="#DejaVuSans-6f" x="360.681641"/>
     <use xlink:href="#DejaVuSans-6c" x="421.863281"/>
     <use xlink:href="#DejaVuSans-69" x="449.646484"/>
     <use xlink:href="#DejaVuSans-6e" x="477.429688"/>
     <use xlink:href="#DejaVuSans-67" x="540.808594"/>
    </g>
    <!-- 2x2 kernel -->
    <g transform="translate(102.432421 113.793319) scale(0.06 -0.06)">
     <use xlink:href="#DejaVuSans-32"/>
     <use xlink:href="#DejaVuSans-78" x="63.623047"/>
     <use xlink:href="#DejaVuSans-32" x="122.802734"/>
     <use xlink:href="#DejaVuSans-20" x="186.425781"/>
     <use xlink:href="#DejaVuSans-6b" x="218.212891"/>
     <use xlink:href="#DejaVuSans-65" x="272.498047"/>
     <use xlink:href="#DejaVuSans-72" x="334.021484"/>
     <use xlink:href="#DejaVuSans-6e" x="373.384766"/>
     <use xlink:href="#DejaVuSans-65" x="436.763672"/>
     <use xlink:href="#DejaVuSans-6c" x="498.287109"/>
    </g>
   </g>
   <g id="text_6">
    <!-- Feature -->
    <g transform="translate(184.573932 30.926809) scale(0.06 -0.06)">
     <use xlink:href="#DejaVuSans-46"/>
     <use xlink:href="#DejaVuSans-65" x="52.019531"/>
     <use xlink:href="#DejaVuSans-61" x="113.542969"/>
     <use xlink:href="#DejaVuSans-74" x="174.822266"/>
     <use xlink:href="#DejaVuSans-75" x="214.03125"/>
     <use xlink:href="#DejaVuSans-72" x="277.410156"/>
     <use xlink:href="#DejaVuSans-65" x="316.273438"/>
    </g>
    <!-- maps -->
    <g transform="translate(184.573932 37.645497) scale(0.06 -0.06)">
     <use xlink:href="#DejaVuSans-6d"/>
     <use xlink:href="#DejaVuSans-61" x="97.412109"/>
     <use xlink:href="#DejaVuSans-70" x="158.691406"/>
     <use xlink:href="#DejaVuSans-73" x="222.167969"/>
    </g>
    <!-- 24@11x11 -->
    <g transform="translate(184.573932 44.364184) scale(0.06 -0.06)">
     <defs>
      <path id="DejaVuSans-34" d="M 2419 4116 
L 825 1625 
L 2419 1625 
L 2419 4116 
z
M 2253 4666 
L 3047 4666 
L 3047 1625 
L 3713 1625 
L 3713 1100 
L 3047 1100 
L 3047 0 
L 2419 0 
L 2419 1100 
L 313 1100 
L 313 1709 
L 2253 4666 
z
" transform="scale(0.015625)"/>
     </defs>
     <use xlink:href="#DejaVuSans-32"/>
     <use xlink:href="#DejaVuSans-34" x="63.623047"/>
     <use xlink:href="#DejaVuSans-40" x="127.246094"/>
     <use xlink:href="#DejaVuSans-31" x="227.246094"/>
     <use xlink:href="#DejaVuSans-31" x="290.869141"/>
     <use xlink:href="#DejaVuSans-78" x="354.492188"/>
     <use xlink:href="#DejaVuSans-31" x="413.671875"/>
     <use xlink:href="#DejaVuSans-31" x="477.294922"/>
    </g>
   </g>
   <g id="text_7">
    <!-- Convolution -->
    <g transform="translate(157.193428 107.074631) scale(0.06 -0.06)">
     <use xlink:href="#DejaVuSans-43"/>
     <use xlink:href="#DejaVuSans-6f" x="69.824219"/>
     <use xlink:href="#DejaVuSans-6e" x="131.005859"/>
     <use xlink:href="#DejaVuSans-76" x="194.384766"/>
     <use xlink:href="#DejaVuSans-6f" x="253.564453"/>
     <use xlink:href="#DejaVuSans-6c" x="314.746094"/>
     <use xlink:href="#DejaVuSans-75" x="342.529297"/>
     <use xlink:href="#DejaVuSans-74" x="405.908203"/>
     <use xlink:href="#DejaVuSans-69" x="445.117188"/>
     <use xlink:href="#DejaVuSans-6f" x="472.900391"/>
     <use xlink:href="#DejaVuSans-6e" x="534.082031"/>
    </g>
    <!-- 3x3 kernel -->
    <g transform="translate(157.193428 113.793319) scale(0.06 -0.06)">
     <defs>
      <path id="DejaVuSans-33" d="M 2597 2516 
Q 3050 2419 3304 2112 
Q 3559 1806 3559 1356 
Q 3559 666 3084 287 
Q 2609 -91 1734 -91 
Q 1441 -91 1130 -33 
Q 819 25 488 141 
L 488 750 
Q 750 597 1062 519 
Q 1375 441 1716 441 
Q 2309 441 2620 675 
Q 2931 909 2931 1356 
Q 2931 1769 2642 2001 
Q 2353 2234 1838 2234 
L 1294 2234 
L 1294 2753 
L 1863 2753 
Q 2328 2753 2575 2939 
Q 2822 3125 2822 3475 
Q 2822 3834 2567 4026 
Q 2313 4219 1838 4219 
Q 1578 4219 1281 4162 
Q 984 4106 628 3988 
L 628 4550 
Q 988 4650 1302 4700 
Q 1616 4750 1894 4750 
Q 2613 4750 3031 4423 
Q 3450 4097 3450 3541 
Q 3450 3153 3228 2886 
Q 3006 2619 2597 2516 
z
" transform="scale(0.015625)"/>
     </defs>
     <use xlink:href="#DejaVuSans-33"/>
     <use xlink:href="#DejaVuSans-78" x="63.623047"/>
     <use xlink:href="#DejaVuSans-33" x="122.802734"/>
     <use xlink:href="#DejaVuSans-20" x="186.425781"/>
     <use xlink:href="#DejaVuSans-6b" x="218.212891"/>
     <use xlink:href="#DejaVuSans-65" x="272.498047"/>
     <use xlink:href="#DejaVuSans-72" x="334.021484"/>
     <use xlink:href="#DejaVuSans-6e" x="373.384766"/>
     <use xlink:href="#DejaVuSans-65" x="436.763672"/>
     <use xlink:href="#DejaVuSans-6c" x="498.287109"/>
    </g>
   </g>
   <g id="text_8">
    <!-- Feature -->
    <g transform="translate(239.33494 30.926809) scale(0.06 -0.06)">
     <use xlink:href="#DejaVuSans-46"/>
     <use xlink:href="#DejaVuSans-65" x="52.019531"/>
     <use xlink:href="#DejaVuSans-61" x="113.542969"/>
     <use xlink:href="#DejaVuSans-74" x="174.822266"/>
     <use xlink:href="#DejaVuSans-75" x="214.03125"/>
     <use xlink:href="#DejaVuSans-72" x="277.410156"/>
     <use xlink:href="#DejaVuSans-65" x="316.273438"/>
    </g>
    <!-- maps -->
    <g transform="translate(239.33494 37.645497) scale(0.06 -0.06)">
     <use xlink:href="#DejaVuSans-6d"/>
     <use xlink:href="#DejaVuSans-61" x="97.412109"/>
     <use xlink:href="#DejaVuSans-70" x="158.691406"/>
     <use xlink:href="#DejaVuSans-73" x="222.167969"/>
    </g>
    <!-- 24@3x3 -->
    <g transform="translate(239.33494 44.364184) scale(0.06 -0.06)">
     <use xlink:href="#DejaVuSans-32"/>
     <use xlink:href="#DejaVuSans-34" x="63.623047"/>
     <use xlink:href="#DejaVuSans-40" x="127.246094"/>
     <use xlink:href="#DejaVuSans-33" x="227.246094"/>
     <use xlink:href="#DejaVuSans-78" x="290.869141"/>
     <use xlink:href="#DejaVuSans-33" x="350.048828"/>
    </g>
   </g>
   <g id="text_9">
    <!-- Avg-Pooling -->
    <g transform="translate(211.954436 107.074631) scale(0.06 -0.06)">
     <defs>
      <path id="DejaVuSans-41" d="M 2188 4044 
L 1331 1722 
L 3047 1722 
L 2188 4044 
z
M 1831 4666 
L 2547 4666 
L 4325 0 
L 3669 0 
L 3244 1197 
L 1141 1197 
L 716 0 
L 50 0 
L 1831 4666 
z
" transform="scale(0.015625)"/>
     </defs>
     <use xlink:href="#DejaVuSans-41"/>
     <use xlink:href="#DejaVuSans-76" x="62.533203"/>
     <use xlink:href="#DejaVuSans-67" x="121.712891"/>
     <use xlink:href="#DejaVuSans-2d" x="185.189453"/>
     <use xlink:href="#DejaVuSans-50" x="221.273438"/>
     <use xlink:href="#DejaVuSans-6f" x="277.951172"/>
     <use xlink:href="#DejaVuSans-6f" x="339.132812"/>
     <use xlink:href="#DejaVuSans-6c" x="400.314453"/>
     <use xlink:href="#DejaVuSans-69" x="428.097656"/>
     <use xlink:href="#DejaVuSans-6e" x="455.880859"/>
     <use xlink:href="#DejaVuSans-67" x="519.259766"/>
    </g>
    <!-- 3x3 kernel -->
    <g transform="translate(211.954436 113.793319) scale(0.06 -0.06)">
     <use xlink:href="#DejaVuSans-33"/>
     <use xlink:href="#DejaVuSans-78" x="63.623047"/>
     <use xlink:href="#DejaVuSans-33" x="122.802734"/>
     <use xlink:href="#DejaVuSans-20" x="186.425781"/>
     <use xlink:href="#DejaVuSans-6b" x="218.212891"/>
     <use xlink:href="#DejaVuSans-65" x="272.498047"/>
     <use xlink:href="#DejaVuSans-72" x="334.021484"/>
     <use xlink:href="#DejaVuSans-6e" x="373.384766"/>
     <use xlink:href="#DejaVuSans-65" x="436.763672"/>
     <use xlink:href="#DejaVuSans-6c" x="498.287109"/>
    </g>
   </g>
   <g id="text_10">
    <!-- Hidden -->
    <g transform="translate(294.095947 30.926809) scale(0.06 -0.06)">
     <defs>
      <path id="DejaVuSans-48" d="M 628 4666 
L 1259 4666 
L 1259 2753 
L 3553 2753 
L 3553 4666 
L 4184 4666 
L 4184 0 
L 3553 0 
L 3553 2222 
L 1259 2222 
L 1259 0 
L 628 0 
L 628 4666 
z
" transform="scale(0.015625)"/>
      <path id="DejaVuSans-64" d="M 2906 2969 
L 2906 4863 
L 3481 4863 
L 3481 0 
L 2906 0 
L 2906 525 
Q 2725 213 2448 61 
Q 2172 -91 1784 -91 
Q 1150 -91 751 415 
Q 353 922 353 1747 
Q 353 2572 751 3078 
Q 1150 3584 1784 3584 
Q 2172 3584 2448 3432 
Q 2725 3281 2906 2969 
z
M 947 1747 
Q 947 1113 1208 752 
Q 1469 391 1925 391 
Q 2381 391 2643 752 
Q 2906 1113 2906 1747 
Q 2906 2381 2643 2742 
Q 2381 3103 1925 3103 
Q 1469 3103 1208 2742 
Q 947 2381 947 1747 
z
" transform="scale(0.015625)"/>
     </defs>
     <use xlink:href="#DejaVuSans-48"/>
     <use xlink:href="#DejaVuSans-69" x="75.195312"/>
     <use xlink:href="#DejaVuSans-64" x="102.978516"/>
     <use xlink:href="#DejaVuSans-64" x="166.455078"/>
     <use xlink:href="#DejaVuSans-65" x="229.931641"/>
     <use xlink:href="#DejaVuSans-6e" x="291.455078"/>
    </g>
    <!-- units -->
    <g transform="translate(294.095947 37.645497) scale(0.06 -0.06)">
     <use xlink:href="#DejaVuSans-75"/>
     <use xlink:href="#DejaVuSans-6e" x="63.378906"/>
     <use xlink:href="#DejaVuSans-69" x="126.757812"/>
     <use xlink:href="#DejaVuSans-74" x="154.541016"/>
     <use xlink:href="#DejaVuSans-73" x="193.75"/>
    </g>
    <!-- 216 -->
    <g transform="translate(294.095947 44.364184) scale(0.06 -0.06)">
     <defs>
      <path id="DejaVuSans-36" d="M 2113 2584 
Q 1688 2584 1439 2293 
Q 1191 2003 1191 1497 
Q 1191 994 1439 701 
Q 1688 409 2113 409 
Q 2538 409 2786 701 
Q 3034 994 3034 1497 
Q 3034 2003 2786 2293 
Q 2538 2584 2113 2584 
z
M 3366 4563 
L 3366 3988 
Q 3128 4100 2886 4159 
Q 2644 4219 2406 4219 
Q 1781 4219 1451 3797 
Q 1122 3375 1075 2522 
Q 1259 2794 1537 2939 
Q 1816 3084 2150 3084 
Q 2853 3084 3261 2657 
Q 3669 2231 3669 1497 
Q 3669 778 3244 343 
Q 2819 -91 2113 -91 
Q 1303 -91 875 529 
Q 447 1150 447 2328 
Q 447 3434 972 4092 
Q 1497 4750 2381 4750 
Q 2619 4750 2861 4703 
Q 3103 4656 3366 4563 
z
" transform="scale(0.015625)"/>
     </defs>
     <use xlink:href="#DejaVuSans-32"/>
     <use xlink:href="#DejaVuSans-31" x="63.623047"/>
     <use xlink:href="#DejaVuSans-36" x="127.246094"/>
    </g>
   </g>
   <g id="text_11">
    <!-- Flatten -->
    <g transform="translate(266.715444 113.793319) scale(0.06 -0.06)">
     <use xlink:href="#DejaVuSans-46"/>
     <use xlink:href="#DejaVuSans-6c" x="57.519531"/>
     <use xlink:href="#DejaVuSans-61" x="85.302734"/>
     <use xlink:href="#DejaVuSans-74" x="146.582031"/>
     <use xlink:href="#DejaVuSans-74" x="185.791016"/>
     <use xlink:href="#DejaVuSans-65" x="225"/>
     <use xlink:href="#DejaVuSans-6e" x="286.523438"/>
    </g>
   </g>
   <g id="text_12">
    <!-- Hidden -->
    <g transform="translate(348.856955 30.926809) scale(0.06 -0.06)">
     <use xlink:href="#DejaVuSans-48"/>
     <use xlink:href="#DejaVuSans-69" x="75.195312"/>
     <use xlink:href="#DejaVuSans-64" x="102.978516"/>
     <use xlink:href="#DejaVuSans-64" x="166.455078"/>
     <use xlink:href="#DejaVuSans-65" x="229.931641"/>
     <use xlink:href="#DejaVuSans-6e" x="291.455078"/>
    </g>
    <!-- units -->
    <g transform="translate(348.856955 37.645497) scale(0.06 -0.06)">
     <use xlink:href="#DejaVuSans-75"/>
     <use xlink:href="#DejaVuSans-6e" x="63.378906"/>
     <use xlink:href="#DejaVuSans-69" x="126.757812"/>
     <use xlink:href="#DejaVuSans-74" x="154.541016"/>
     <use xlink:href="#DejaVuSans-73" x="193.75"/>
    </g>
    <!-- 64 -->
    <g transform="translate(348.856955 44.364184) scale(0.06 -0.06)">
     <use xlink:href="#DejaVuSans-36"/>
     <use xlink:href="#DejaVuSans-34" x="63.623047"/>
    </g>
   </g>
   <g id="text_13">
    <!-- Fully -->
    <g transform="translate(321.476451 107.074631) scale(0.06 -0.06)">
     <defs>
      <path id="DejaVuSans-79" d="M 2059 -325 
Q 1816 -950 1584 -1140 
Q 1353 -1331 966 -1331 
L 506 -1331 
L 506 -850 
L 844 -850 
Q 1081 -850 1212 -737 
Q 1344 -625 1503 -206 
L 1606 56 
L 191 3500 
L 800 3500 
L 1894 763 
L 2988 3500 
L 3597 3500 
L 2059 -325 
z
" transform="scale(0.015625)"/>
     </defs>
     <use xlink:href="#DejaVuSans-46"/>
     <use xlink:href="#DejaVuSans-75" x="52.019531"/>
     <use xlink:href="#DejaVuSans-6c" x="115.398438"/>
     <use xlink:href="#DejaVuSans-6c" x="143.181641"/>
     <use xlink:href="#DejaVuSans-79" x="170.964844"/>
    </g>
    <!-- connected -->
    <g transform="translate(321.476451 113.793319) scale(0.06 -0.06)">
     <defs>
      <path id="DejaVuSans-63" d="M 3122 3366 
L 3122 2828 
Q 2878 2963 2633 3030 
Q 2388 3097 2138 3097 
Q 1578 3097 1268 2742 
Q 959 2388 959 1747 
Q 959 1106 1268 751 
Q 1578 397 2138 397 
Q 2388 397 2633 464 
Q 2878 531 3122 666 
L 3122 134 
Q 2881 22 2623 -34 
Q 2366 -91 2075 -91 
Q 1284 -91 818 406 
Q 353 903 353 1747 
Q 353 2603 823 3093 
Q 1294 3584 2113 3584 
Q 2378 3584 2631 3529 
Q 2884 3475 3122 3366 
z
" transform="scale(0.015625)"/>
     </defs>
     <use xlink:href="#DejaVuSans-63"/>
     <use xlink:href="#DejaVuSans-6f" x="54.980469"/>
     <use xlink:href="#DejaVuSans-6e" x="116.162109"/>
     <use xlink:href="#DejaVuSans-6e" x="179.541016"/>
     <use xlink:href="#DejaVuSans-65" x="242.919922"/>
     <use xlink:href="#DejaVuSans-63" x="304.443359"/>
     <use xlink:href="#DejaVuSans-74" x="359.423828"/>
     <use xlink:href="#DejaVuSans-65" x="398.632812"/>
     <use xlink:href="#DejaVuSans-64" x="460.15625"/>
    </g>
   </g>
   <g id="text_14">
    <!-- Outputs -->
    <g transform="translate(403.617963 37.645497) scale(0.06 -0.06)">
     <defs>
      <path id="DejaVuSans-4f" d="M 2522 4238 
Q 1834 4238 1429 3725 
Q 1025 3213 1025 2328 
Q 1025 1447 1429 934 
Q 1834 422 2522 422 
Q 3209 422 3611 934 
Q 4013 1447 4013 2328 
Q 4013 3213 3611 3725 
Q 3209 4238 2522 4238 
z
M 2522 4750 
Q 3503 4750 4090 4092 
Q 4678 3434 4678 2328 
Q 4678 1225 4090 567 
Q 3503 -91 2522 -91 
Q 1538 -91 948 565 
Q 359 1222 359 2328 
Q 359 3434 948 4092 
Q 1538 4750 2522 4750 
z
" transform="scale(0.015625)"/>
     </defs>
     <use xlink:href="#DejaVuSans-4f"/>
     <use xlink:href="#DejaVuSans-75" x="78.710938"/>
     <use xlink:href="#DejaVuSans-74" x="142.089844"/>
     <use xlink:href="#DejaVuSans-70" x="181.298828"/>
     <use xlink:href="#DejaVuSans-75" x="244.775391"/>
     <use xlink:href="#DejaVuSans-74" x="308.154297"/>
     <use xlink:href="#DejaVuSans-73" x="347.363281"/>
    </g>
    <!-- 10 -->
    <g transform="translate(403.617963 44.364184) scale(0.06 -0.06)">
     <defs>
      <path id="DejaVuSans-30" d="M 2034 4250 
Q 1547 4250 1301 3770 
Q 1056 3291 1056 2328 
Q 1056 1369 1301 889 
Q 1547 409 2034 409 
Q 2525 409 2770 889 
Q 3016 1369 3016 2328 
Q 3016 3291 2770 3770 
Q 2525 4250 2034 4250 
z
M 2034 4750 
Q 2819 4750 3233 4129 
Q 3647 3509 3647 2328 
Q 3647 1150 3233 529 
Q 2819 -91 2034 -91 
Q 1250 -91 836 529 
Q 422 1150 422 2328 
Q 422 3509 836 4129 
Q 1250 4750 2034 4750 
z
" transform="scale(0.015625)"/>
     </defs>
     <use xlink:href="#DejaVuSans-31"/>
     <use xlink:href="#DejaVuSans-30" x="63.623047"/>
    </g>
   </g>
   <g id="text_15">
    <!-- Fully -->
    <g transform="translate(376.237459 107.074631) scale(0.06 -0.06)">
     <use xlink:href="#DejaVuSans-46"/>
     <use xlink:href="#DejaVuSans-75" x="52.019531"/>
     <use xlink:href="#DejaVuSans-6c" x="115.398438"/>
     <use xlink:href="#DejaVuSans-6c" x="143.181641"/>
     <use xlink:href="#DejaVuSans-79" x="170.964844"/>
    </g>
    <!-- connected -->
    <g transform="translate(376.237459 113.793319) scale(0.06 -0.06)">
     <use xlink:href="#DejaVuSans-63"/>
     <use xlink:href="#DejaVuSans-6f" x="54.980469"/>
     <use xlink:href="#DejaVuSans-6e" x="116.162109"/>
     <use xlink:href="#DejaVuSans-6e" x="179.541016"/>
     <use xlink:href="#DejaVuSans-65" x="242.919922"/>
     <use xlink:href="#DejaVuSans-63" x="304.443359"/>
     <use xlink:href="#DejaVuSans-74" x="359.423828"/>
     <use xlink:href="#DejaVuSans-65" x="398.632812"/>
     <use xlink:href="#DejaVuSans-64" x="460.15625"/>
    </g>
   </g>
  </g>
 </g>
 <defs>
  <clipPath id="p7a4924531a">
   <rect x="0" y="0" width="446.4" height="138.6"/>
  </clipPath>
 </defs>
</svg>
