<?xml version="1.0" encoding="utf-8" standalone="no"?>
<!DOCTYPE svg PUBLIC "-//W3C//DTD SVG 1.1//EN"
  "http://www.w3.org/Graphics/SVG/1.1/DTD/svg11.dtd">
<svg xmlns:xlink="http://www.w3.org/1999/xlink" width="446.4pt" height="138.6pt" viewBox="0 0 446.4 138.6" xmlns="http://www.w3.org/2000/svg" version="1.1">
 <metadata>
  <rdf:RDF xmlns:dc="http://purl.org/dc/elements/1.1/" xmlns:cc="http://creativecommons.org/ns#" xmlns:rdf="http://www.w3.org/1999/02/22-rdf-syntax-ns#">
   <cc:Work>
    <dc:type rdf:resource="http://purl.org/dc/dcmitype/StillImage"/>
    <dc:date>2022-03-24T15:11:00.904593</dc:date>
    <dc:format>image/svg+xml</dc:format>
    <dc:creator>
     <cc:Agent>
      <dc:title>Matplotlib v3.5.1, https://matplotlib.org/</dc:title>
     </cc:Agent>
    </dc:creator>
   </cc:Work>
  </rdf:RDF>
 </metadata>
 <defs>
  <style type="text/css">*{stroke-linejoin: round; stroke-linecap: butt}</style>
 </defs>
 <g id="figure_1">
  <g id="patch_1">
   <path d="M 0 138.6 
L 446.4 138.6 
L 446.4 0 
L 0 0 
z
" style="fill: #ffffff"/>
  </g>
  <g id="axes_1">
   <g id="patch_2">
    <path d="M 20.290909 76.623683 
L 44.415981 76.623683 
L 44.415981 52.49861 
L 20.290909 52.49861 
z
" clip-path="url(#p77da39f7cd)" style="fill: #b2b2b2; stroke: #000000; stroke-linejoin: miter"/>
   </g>
   <g id="patch_3">
    <path d="M 68.541054 73.177244 
L 89.219687 73.177244 
L 89.219687 52.49861 
L 68.541054 52.49861 
z
" clip-path="url(#p77da39f7cd)" style="fill: #b2b2b2; stroke: #000000; stroke-linejoin: miter"/>
   </g>
   <g id="patch_4">
    <path d="M 71.125883 75.762073 
L 91.804517 75.762073 
L 91.804517 55.083439 
L 71.125883 55.083439 
z
" clip-path="url(#p77da39f7cd)" style="fill: #808080; stroke: #000000; stroke-linejoin: miter"/>
   </g>
   <g id="patch_5">
    <path d="M 73.710712 78.346902 
L 94.389346 78.346902 
L 94.389346 57.668269 
L 73.710712 57.668269 
z
" clip-path="url(#p77da39f7cd)" style="fill: #b2b2b2; stroke: #000000; stroke-linejoin: miter"/>
   </g>
   <g id="patch_6">
    <path d="M 76.295541 80.931731 
L 96.974175 80.931731 
L 96.974175 60.253098 
L 76.295541 60.253098 
z
" clip-path="url(#p77da39f7cd)" style="fill: #808080; stroke: #000000; stroke-linejoin: miter"/>
   </g>
   <g id="patch_7">
    <path d="M 78.880371 83.516561 
L 99.559004 83.516561 
L 99.559004 62.837927 
L 78.880371 62.837927 
z
" clip-path="url(#p77da39f7cd)" style="fill: #b2b2b2; stroke: #000000; stroke-linejoin: miter"/>
   </g>
   <g id="patch_8">
    <path d="M 81.4652 86.10139 
L 102.143833 86.10139 
L 102.143833 65.422756 
L 81.4652 65.422756 
z
" clip-path="url(#p77da39f7cd)" style="fill: #808080; stroke: #000000; stroke-linejoin: miter"/>
   </g>
   <g id="patch_9">
    <path d="M 28.217719 62.407122 
L 32.525767 62.407122 
L 32.525767 66.715171 
L 28.217719 66.715171 
z
" clip-path="url(#p77da39f7cd)" style="fill: #4c4c4c; stroke: #000000; stroke-linejoin: miter"/>
   </g>
   <g id="patch_10">
    <path d="M 116.791199 62.837927 
L 127.130515 62.837927 
L 127.130515 52.49861 
L 116.791199 52.49861 
z
" clip-path="url(#p77da39f7cd)" style="fill: #b2b2b2; stroke: #000000; stroke-linejoin: miter"/>
   </g>
   <g id="patch_11">
    <path d="M 119.376028 65.422756 
L 129.715345 65.422756 
L 129.715345 55.083439 
L 119.376028 55.083439 
z
" clip-path="url(#p77da39f7cd)" style="fill: #808080; stroke: #000000; stroke-linejoin: miter"/>
   </g>
   <g id="patch_12">
    <path d="M 121.960857 68.007585 
L 132.300174 68.007585 
L 132.300174 57.668269 
L 121.960857 57.668269 
z
" clip-path="url(#p77da39f7cd)" style="fill: #b2b2b2; stroke: #000000; stroke-linejoin: miter"/>
   </g>
   <g id="patch_13">
    <path d="M 124.545686 70.592415 
L 134.885003 70.592415 
L 134.885003 60.253098 
L 124.545686 60.253098 
z
" clip-path="url(#p77da39f7cd)" style="fill: #808080; stroke: #000000; stroke-linejoin: miter"/>
   </g>
   <g id="patch_14">
    <path d="M 127.130515 73.177244 
L 137.469832 73.177244 
L 137.469832 62.837927 
L 127.130515 62.837927 
z
" clip-path="url(#p77da39f7cd)" style="fill: #b2b2b2; stroke: #000000; stroke-linejoin: miter"/>
   </g>
   <g id="patch_15">
    <path d="M 129.715345 75.762073 
L 140.054661 75.762073 
L 140.054661 65.422756 
L 129.715345 65.422756 
z
" clip-path="url(#p77da39f7cd)" style="fill: #808080; stroke: #000000; stroke-linejoin: miter"/>
   </g>
   <g id="patch_16">
    <path d="M 89.047365 80.587087 
L 90.770585 80.587087 
L 90.770585 82.310307 
L 89.047365 82.310307 
z
" clip-path="url(#p77da39f7cd)" style="fill: #4c4c4c; stroke: #000000; stroke-linejoin: miter"/>
   </g>
   <g id="patch_17">
    <path d="M 165.041343 59.391488 
L 171.934221 59.391488 
L 171.934221 52.49861 
L 165.041343 52.49861 
z
" clip-path="url(#p77da39f7cd)" style="fill: #b2b2b2; stroke: #000000; stroke-linejoin: miter"/>
   </g>
   <g id="patch_18">
    <path d="M 167.626173 61.976317 
L 174.51905 61.976317 
L 174.51905 55.083439 
L 167.626173 55.083439 
z
" clip-path="url(#p77da39f7cd)" style="fill: #808080; stroke: #000000; stroke-linejoin: miter"/>
   </g>
   <g id="patch_19">
    <path d="M 173.657441 61.545512 
C 173.771691 61.545512 173.881278 61.50012 173.962066 61.419333 
C 174.042853 61.338545 174.088246 61.228958 174.088246 61.114708 
C 174.088246 61.000457 174.042853 60.89087 173.962066 60.810083 
C 173.881278 60.729295 173.771691 60.683903 173.657441 60.683903 
C 173.54319 60.683903 173.433603 60.729295 173.352816 60.810083 
C 173.272028 60.89087 173.226636 61.000457 173.226636 61.114708 
C 173.226636 61.228958 173.272028 61.338545 173.352816 61.419333 
C 173.433603 61.50012 173.54319 61.545512 173.657441 61.545512 
z
" clip-path="url(#p77da39f7cd)" style="stroke: #000000; stroke-linejoin: miter"/>
   </g>
   <g id="patch_20">
    <path d="M 176.24227 64.130342 
C 176.356521 64.130342 176.466107 64.084949 176.546895 64.004162 
C 176.627682 63.923374 176.673075 63.813788 176.673075 63.699537 
C 176.673075 63.585286 176.627682 63.475699 176.546895 63.394912 
C 176.466107 63.314124 176.356521 63.268732 176.24227 63.268732 
C 176.128019 63.268732 176.018432 63.314124 175.937645 63.394912 
C 175.856857 63.475699 175.811465 63.585286 175.811465 63.699537 
C 175.811465 63.813788 175.856857 63.923374 175.937645 64.004162 
C 176.018432 64.084949 176.128019 64.130342 176.24227 64.130342 
z
" clip-path="url(#p77da39f7cd)" style="stroke: #000000; stroke-linejoin: miter"/>
   </g>
   <g id="patch_21">
    <path d="M 178.827099 66.715171 
C 178.94135 66.715171 179.050937 66.669778 179.131724 66.588991 
C 179.212512 66.508203 179.257904 66.398617 179.257904 66.284366 
C 179.257904 66.170115 179.212512 66.060528 179.131724 65.979741 
C 179.050937 65.898953 178.94135 65.853561 178.827099 65.853561 
C 178.712848 65.853561 178.603261 65.898953 178.522474 65.979741 
C 178.441686 66.060528 178.396294 66.170115 178.396294 66.284366 
C 178.396294 66.398617 178.441686 66.508203 178.522474 66.588991 
C 178.603261 66.669778 178.712848 66.715171 178.827099 66.715171 
z
" clip-path="url(#p77da39f7cd)" style="stroke: #000000; stroke-linejoin: miter"/>
   </g>
   <g id="patch_22">
    <path d="M 181.411928 69.3 
C 181.526179 69.3 181.635766 69.254608 181.716553 69.17382 
C 181.797341 69.093033 181.842733 68.983446 181.842733 68.869195 
C 181.842733 68.754944 181.797341 68.645358 181.716553 68.56457 
C 181.635766 68.483783 181.526179 68.43839 181.411928 68.43839 
C 181.297677 68.43839 181.188091 68.483783 181.107303 68.56457 
C 181.026516 68.645358 180.981123 68.754944 180.981123 68.869195 
C 180.981123 68.983446 181.026516 69.093033 181.107303 69.17382 
C 181.188091 69.254608 181.297677 69.3 181.411928 69.3 
z
" clip-path="url(#p77da39f7cd)" style="stroke: #000000; stroke-linejoin: miter"/>
   </g>
   <g id="patch_23">
    <path d="M 180.550318 74.900463 
L 187.443196 74.900463 
L 187.443196 68.007585 
L 180.550318 68.007585 
z
" clip-path="url(#p77da39f7cd)" style="fill: #b2b2b2; stroke: #000000; stroke-linejoin: miter"/>
   </g>
   <g id="patch_24">
    <path d="M 183.135148 77.485292 
L 190.028025 77.485292 
L 190.028025 70.592415 
L 183.135148 70.592415 
z
" clip-path="url(#p77da39f7cd)" style="fill: #808080; stroke: #000000; stroke-linejoin: miter"/>
   </g>
   <g id="patch_25">
    <path d="M 132.127852 68.43839 
L 136.4359 68.43839 
L 136.4359 72.746439 
L 132.127852 72.746439 
z
" clip-path="url(#p77da39f7cd)" style="fill: #4c4c4c; stroke: #000000; stroke-linejoin: miter"/>
   </g>
   <g id="patch_26">
    <path d="M 213.291488 55.945049 
L 216.737927 55.945049 
L 216.737927 52.49861 
L 213.291488 52.49861 
z
" clip-path="url(#p77da39f7cd)" style="fill: #b2b2b2; stroke: #000000; stroke-linejoin: miter"/>
   </g>
   <g id="patch_27">
    <path d="M 215.876317 58.529878 
L 219.322756 58.529878 
L 219.322756 55.083439 
L 215.876317 55.083439 
z
" clip-path="url(#p77da39f7cd)" style="fill: #808080; stroke: #000000; stroke-linejoin: miter"/>
   </g>
   <g id="patch_28">
    <path d="M 220.184366 59.822293 
C 220.298617 59.822293 220.408203 59.776901 220.488991 59.696113 
C 220.569778 59.615326 220.615171 59.505739 220.615171 59.391488 
C 220.615171 59.277237 220.569778 59.167651 220.488991 59.086863 
C 220.408203 59.006076 220.298617 58.960683 220.184366 58.960683 
C 220.070115 58.960683 219.960528 59.006076 219.879741 59.086863 
C 219.798953 59.167651 219.753561 59.277237 219.753561 59.391488 
C 219.753561 59.505739 219.798953 59.615326 219.879741 59.696113 
C 219.960528 59.776901 220.070115 59.822293 220.184366 59.822293 
z
" clip-path="url(#p77da39f7cd)" style="stroke: #000000; stroke-linejoin: miter"/>
   </g>
   <g id="patch_29">
    <path d="M 222.769195 62.407122 
C 222.883446 62.407122 222.993033 62.36173 223.07382 62.280942 
C 223.154608 62.200155 223.2 62.090568 223.2 61.976317 
C 223.2 61.862067 223.154608 61.75248 223.07382 61.671692 
C 222.993033 61.590905 222.883446 61.545512 222.769195 61.545512 
C 222.654944 61.545512 222.545358 61.590905 222.46457 61.671692 
C 222.383783 61.75248 222.33839 61.862067 222.33839 61.976317 
C 222.33839 62.090568 222.383783 62.200155 222.46457 62.280942 
C 222.545358 62.36173 222.654944 62.407122 222.769195 62.407122 
z
" clip-path="url(#p77da39f7cd)" style="stroke: #000000; stroke-linejoin: miter"/>
   </g>
   <g id="patch_30">
    <path d="M 225.354024 64.991951 
C 225.468275 64.991951 225.577862 64.946559 225.658649 64.865772 
C 225.739437 64.784984 225.784829 64.675397 225.784829 64.561146 
C 225.784829 64.446896 225.739437 64.337309 225.658649 64.256521 
C 225.577862 64.175734 225.468275 64.130342 225.354024 64.130342 
C 225.239774 64.130342 225.130187 64.175734 225.049399 64.256521 
C 224.968612 64.337309 224.923219 64.446896 224.923219 64.561146 
C 224.923219 64.675397 224.968612 64.784984 225.049399 64.865772 
C 225.130187 64.946559 225.239774 64.991951 225.354024 64.991951 
z
" clip-path="url(#p77da39f7cd)" style="stroke: #000000; stroke-linejoin: miter"/>
   </g>
   <g id="patch_31">
    <path d="M 227.938854 67.576781 
C 228.053104 67.576781 228.162691 67.531388 228.243479 67.450601 
C 228.324266 67.369813 228.369658 67.260226 228.369658 67.145976 
C 228.369658 67.031725 228.324266 66.922138 228.243479 66.841351 
C 228.162691 66.760563 228.053104 66.715171 227.938854 66.715171 
C 227.824603 66.715171 227.715016 66.760563 227.634228 66.841351 
C 227.553441 66.922138 227.508049 67.031725 227.508049 67.145976 
C 227.508049 67.260226 227.553441 67.369813 227.634228 67.450601 
C 227.715016 67.531388 227.824603 67.576781 227.938854 67.576781 
z
" clip-path="url(#p77da39f7cd)" style="stroke: #000000; stroke-linejoin: miter"/>
   </g>
   <g id="patch_32">
    <path d="M 228.800463 71.454024 
L 232.246902 71.454024 
L 232.246902 68.007585 
L 228.800463 68.007585 
z
" clip-path="url(#p77da39f7cd)" style="fill: #b2b2b2; stroke: #000000; stroke-linejoin: miter"/>
   </g>
   <g id="patch_33">
    <path d="M 231.385292 74.038854 
L 234.831731 74.038854 
L 234.831731 70.592415 
L 231.385292 70.592415 
z
" clip-path="url(#p77da39f7cd)" style="fill: #808080; stroke: #000000; stroke-linejoin: miter"/>
   </g>
   <g id="patch_34">
    <path d="M 185.203011 74.728141 
L 186.92623 74.728141 
L 186.92623 76.451361 
L 185.203011 76.451361 
z
" clip-path="url(#p77da39f7cd)" style="fill: #4c4c4c; stroke: #000000; stroke-linejoin: miter"/>
   </g>
   <g id="patch_35">
    <path d="M 261.541633 54.22183 
L 263.264852 54.22183 
L 263.264852 52.49861 
L 261.541633 52.49861 
z
" clip-path="url(#p77da39f7cd)" style="fill: #b2b2b2; stroke: #000000; stroke-linejoin: miter"/>
   </g>
   <g id="patch_36">
    <path d="M 264.126462 56.806659 
L 265.849682 56.806659 
L 265.849682 55.083439 
L 264.126462 55.083439 
z
" clip-path="url(#p77da39f7cd)" style="fill: #808080; stroke: #000000; stroke-linejoin: miter"/>
   </g>
   <g id="patch_37">
    <path d="M 267.572901 58.960683 
C 267.687152 58.960683 267.796739 58.915291 267.877526 58.834503 
C 267.958314 58.753716 268.003706 58.644129 268.003706 58.529878 
C 268.003706 58.415628 267.958314 58.306041 267.877526 58.225253 
C 267.796739 58.144466 267.687152 58.099074 267.572901 58.099074 
C 267.45865 58.099074 267.349063 58.144466 267.268276 58.225253 
C 267.187488 58.306041 267.142096 58.415628 267.142096 58.529878 
C 267.142096 58.644129 267.187488 58.753716 267.268276 58.834503 
C 267.349063 58.915291 267.45865 58.960683 267.572901 58.960683 
z
" clip-path="url(#p77da39f7cd)" style="stroke: #000000; stroke-linejoin: miter"/>
   </g>
   <g id="patch_38">
    <path d="M 270.15773 61.545512 
C 270.271981 61.545512 270.381568 61.50012 270.462355 61.419333 
C 270.543143 61.338545 270.588535 61.228958 270.588535 61.114708 
C 270.588535 61.000457 270.543143 60.89087 270.462355 60.810083 
C 270.381568 60.729295 270.271981 60.683903 270.15773 60.683903 
C 270.043479 60.683903 269.933893 60.729295 269.853105 60.810083 
C 269.772318 60.89087 269.726925 61.000457 269.726925 61.114708 
C 269.726925 61.228958 269.772318 61.338545 269.853105 61.419333 
C 269.933893 61.50012 270.043479 61.545512 270.15773 61.545512 
z
" clip-path="url(#p77da39f7cd)" style="stroke: #000000; stroke-linejoin: miter"/>
   </g>
   <g id="patch_39">
    <path d="M 272.742559 64.130342 
C 272.85681 64.130342 272.966397 64.084949 273.047184 64.004162 
C 273.127972 63.923374 273.173364 63.813788 273.173364 63.699537 
C 273.173364 63.585286 273.127972 63.475699 273.047184 63.394912 
C 272.966397 63.314124 272.85681 63.268732 272.742559 63.268732 
C 272.628309 63.268732 272.518722 63.314124 272.437934 63.394912 
C 272.357147 63.475699 272.311754 63.585286 272.311754 63.699537 
C 272.311754 63.813788 272.357147 63.923374 272.437934 64.004162 
C 272.518722 64.084949 272.628309 64.130342 272.742559 64.130342 
z
" clip-path="url(#p77da39f7cd)" style="stroke: #000000; stroke-linejoin: miter"/>
   </g>
   <g id="patch_40">
    <path d="M 275.327389 66.715171 
C 275.441639 66.715171 275.551226 66.669778 275.632014 66.588991 
C 275.712801 66.508203 275.758193 66.398617 275.758193 66.284366 
C 275.758193 66.170115 275.712801 66.060528 275.632014 65.979741 
C 275.551226 65.898953 275.441639 65.853561 275.327389 65.853561 
C 275.213138 65.853561 275.103551 65.898953 275.022763 65.979741 
C 274.941976 66.060528 274.896584 66.170115 274.896584 66.284366 
C 274.896584 66.398617 274.941976 66.508203 275.022763 66.588991 
C 275.103551 66.669778 275.213138 66.715171 275.327389 66.715171 
z
" clip-path="url(#p77da39f7cd)" style="stroke: #000000; stroke-linejoin: miter"/>
   </g>
   <g id="patch_41">
    <path d="M 277.050608 69.730805 
L 278.773827 69.730805 
L 278.773827 68.007585 
L 277.050608 68.007585 
z
" clip-path="url(#p77da39f7cd)" style="fill: #b2b2b2; stroke: #000000; stroke-linejoin: miter"/>
   </g>
   <g id="patch_42">
    <path d="M 279.635437 72.315634 
L 281.358657 72.315634 
L 281.358657 70.592415 
L 279.635437 70.592415 
z
" clip-path="url(#p77da39f7cd)" style="fill: #808080; stroke: #000000; stroke-linejoin: miter"/>
   </g>
   <g id="patch_43">
    <path d="M 309.791778 54.22183 
L 311.514997 54.22183 
L 311.514997 52.49861 
L 309.791778 52.49861 
z
" clip-path="url(#p77da39f7cd)" style="fill: #b2b2b2; stroke: #000000; stroke-linejoin: miter"/>
   </g>
   <g id="patch_44">
    <path d="M 312.376607 56.806659 
L 314.099826 56.806659 
L 314.099826 55.083439 
L 312.376607 55.083439 
z
" clip-path="url(#p77da39f7cd)" style="fill: #808080; stroke: #000000; stroke-linejoin: miter"/>
   </g>
   <g id="patch_45">
    <path d="M 315.823046 58.960683 
C 315.937297 58.960683 316.046883 58.915291 316.127671 58.834503 
C 316.208458 58.753716 316.253851 58.644129 316.253851 58.529878 
C 316.253851 58.415628 316.208458 58.306041 316.127671 58.225253 
C 316.046883 58.144466 315.937297 58.099074 315.823046 58.099074 
C 315.708795 58.099074 315.599208 58.144466 315.518421 58.225253 
C 315.437633 58.306041 315.392241 58.415628 315.392241 58.529878 
C 315.392241 58.644129 315.437633 58.753716 315.518421 58.834503 
C 315.599208 58.915291 315.708795 58.960683 315.823046 58.960683 
z
" clip-path="url(#p77da39f7cd)" style="stroke: #000000; stroke-linejoin: miter"/>
   </g>
   <g id="patch_46">
    <path d="M 318.407875 61.545512 
C 318.522126 61.545512 318.631712 61.50012 318.7125 61.419333 
C 318.793287 61.338545 318.83868 61.228958 318.83868 61.114708 
C 318.83868 61.000457 318.793287 60.89087 318.7125 60.810083 
C 318.631712 60.729295 318.522126 60.683903 318.407875 60.683903 
C 318.293624 60.683903 318.184037 60.729295 318.10325 60.810083 
C 318.022462 60.89087 317.97707 61.000457 317.97707 61.114708 
C 317.97707 61.228958 318.022462 61.338545 318.10325 61.419333 
C 318.184037 61.50012 318.293624 61.545512 318.407875 61.545512 
z
" clip-path="url(#p77da39f7cd)" style="stroke: #000000; stroke-linejoin: miter"/>
   </g>
   <g id="patch_47">
    <path d="M 320.992704 64.130342 
C 321.106955 64.130342 321.216542 64.084949 321.297329 64.004162 
C 321.378117 63.923374 321.423509 63.813788 321.423509 63.699537 
C 321.423509 63.585286 321.378117 63.475699 321.297329 63.394912 
C 321.216542 63.314124 321.106955 63.268732 320.992704 63.268732 
C 320.878453 63.268732 320.768867 63.314124 320.688079 63.394912 
C 320.607292 63.475699 320.561899 63.585286 320.561899 63.699537 
C 320.561899 63.813788 320.607292 63.923374 320.688079 64.004162 
C 320.768867 64.084949 320.878453 64.130342 320.992704 64.130342 
z
" clip-path="url(#p77da39f7cd)" style="stroke: #000000; stroke-linejoin: miter"/>
   </g>
   <g id="patch_48">
    <path d="M 323.577533 66.715171 
C 323.691784 66.715171 323.801371 66.669778 323.882158 66.588991 
C 323.962946 66.508203 324.008338 66.398617 324.008338 66.284366 
C 324.008338 66.170115 323.962946 66.060528 323.882158 65.979741 
C 323.801371 65.898953 323.691784 65.853561 323.577533 65.853561 
C 323.463283 65.853561 323.353696 65.898953 323.272908 65.979741 
C 323.192121 66.060528 323.146728 66.170115 323.146728 66.284366 
C 323.146728 66.398617 323.192121 66.508203 323.272908 66.588991 
C 323.353696 66.669778 323.463283 66.715171 323.577533 66.715171 
z
" clip-path="url(#p77da39f7cd)" style="stroke: #000000; stroke-linejoin: miter"/>
   </g>
   <g id="patch_49">
    <path d="M 325.300753 69.730805 
L 327.023972 69.730805 
L 327.023972 68.007585 
L 325.300753 68.007585 
z
" clip-path="url(#p77da39f7cd)" style="fill: #b2b2b2; stroke: #000000; stroke-linejoin: miter"/>
   </g>
   <g id="patch_50">
    <path d="M 327.885582 72.315634 
L 329.608801 72.315634 
L 329.608801 70.592415 
L 327.885582 70.592415 
z
" clip-path="url(#p77da39f7cd)" style="fill: #808080; stroke: #000000; stroke-linejoin: miter"/>
   </g>
   <g id="patch_51">
    <path d="M 358.041922 54.22183 
L 359.765142 54.22183 
L 359.765142 52.49861 
L 358.041922 52.49861 
z
" clip-path="url(#p77da39f7cd)" style="fill: #b2b2b2; stroke: #000000; stroke-linejoin: miter"/>
   </g>
   <g id="patch_52">
    <path d="M 360.626752 56.806659 
L 362.349971 56.806659 
L 362.349971 55.083439 
L 360.626752 55.083439 
z
" clip-path="url(#p77da39f7cd)" style="fill: #808080; stroke: #000000; stroke-linejoin: miter"/>
   </g>
   <g id="patch_53">
    <path d="M 364.073191 58.960683 
C 364.187441 58.960683 364.297028 58.915291 364.377816 58.834503 
C 364.458603 58.753716 364.503995 58.644129 364.503995 58.529878 
C 364.503995 58.415628 364.458603 58.306041 364.377816 58.225253 
C 364.297028 58.144466 364.187441 58.099074 364.073191 58.099074 
C 363.95894 58.099074 363.849353 58.144466 363.768565 58.225253 
C 363.687778 58.306041 363.642386 58.415628 363.642386 58.529878 
C 363.642386 58.644129 363.687778 58.753716 363.768565 58.834503 
C 363.849353 58.915291 363.95894 58.960683 364.073191 58.960683 
z
" clip-path="url(#p77da39f7cd)" style="stroke: #000000; stroke-linejoin: miter"/>
   </g>
   <g id="patch_54">
    <path d="M 366.65802 61.545512 
C 366.77227 61.545512 366.881857 61.50012 366.962645 61.419333 
C 367.043432 61.338545 367.088825 61.228958 367.088825 61.114708 
C 367.088825 61.000457 367.043432 60.89087 366.962645 60.810083 
C 366.881857 60.729295 366.77227 60.683903 366.65802 60.683903 
C 366.543769 60.683903 366.434182 60.729295 366.353395 60.810083 
C 366.272607 60.89087 366.227215 61.000457 366.227215 61.114708 
C 366.227215 61.228958 366.272607 61.338545 366.353395 61.419333 
C 366.434182 61.50012 366.543769 61.545512 366.65802 61.545512 
z
" clip-path="url(#p77da39f7cd)" style="stroke: #000000; stroke-linejoin: miter"/>
   </g>
   <g id="patch_55">
    <path d="M 369.242849 64.130342 
C 369.3571 64.130342 369.466686 64.084949 369.547474 64.004162 
C 369.628261 63.923374 369.673654 63.813788 369.673654 63.699537 
C 369.673654 63.585286 369.628261 63.475699 369.547474 63.394912 
C 369.466686 63.314124 369.3571 63.268732 369.242849 63.268732 
C 369.128598 63.268732 369.019011 63.314124 368.938224 63.394912 
C 368.857436 63.475699 368.812044 63.585286 368.812044 63.699537 
C 368.812044 63.813788 368.857436 63.923374 368.938224 64.004162 
C 369.019011 64.084949 369.128598 64.130342 369.242849 64.130342 
z
" clip-path="url(#p77da39f7cd)" style="stroke: #000000; stroke-linejoin: miter"/>
   </g>
   <g id="patch_56">
    <path d="M 371.827678 66.715171 
C 371.941929 66.715171 372.051516 66.669778 372.132303 66.588991 
C 372.213091 66.508203 372.258483 66.398617 372.258483 66.284366 
C 372.258483 66.170115 372.213091 66.060528 372.132303 65.979741 
C 372.051516 65.898953 371.941929 65.853561 371.827678 65.853561 
C 371.713427 65.853561 371.603841 65.898953 371.523053 65.979741 
C 371.442266 66.060528 371.396873 66.170115 371.396873 66.284366 
C 371.396873 66.398617 371.442266 66.508203 371.523053 66.588991 
C 371.603841 66.669778 371.713427 66.715171 371.827678 66.715171 
z
" clip-path="url(#p77da39f7cd)" style="stroke: #000000; stroke-linejoin: miter"/>
   </g>
   <g id="patch_57">
    <path d="M 373.550898 69.730805 
L 375.274117 69.730805 
L 375.274117 68.007585 
L 373.550898 68.007585 
z
" clip-path="url(#p77da39f7cd)" style="fill: #b2b2b2; stroke: #000000; stroke-linejoin: miter"/>
   </g>
   <g id="patch_58">
    <path d="M 376.135727 72.315634 
L 377.858946 72.315634 
L 377.858946 70.592415 
L 376.135727 70.592415 
z
" clip-path="url(#p77da39f7cd)" style="fill: #808080; stroke: #000000; stroke-linejoin: miter"/>
   </g>
   <g id="patch_59">
    <path d="M 406.292067 54.22183 
L 408.015287 54.22183 
L 408.015287 52.49861 
L 406.292067 52.49861 
z
" clip-path="url(#p77da39f7cd)" style="fill: #b2b2b2; stroke: #000000; stroke-linejoin: miter"/>
   </g>
   <g id="patch_60">
    <path d="M 408.876896 56.806659 
L 410.600116 56.806659 
L 410.600116 55.083439 
L 408.876896 55.083439 
z
" clip-path="url(#p77da39f7cd)" style="fill: #808080; stroke: #000000; stroke-linejoin: miter"/>
   </g>
   <g id="patch_61">
    <path d="M 412.323335 58.960683 
C 412.437586 58.960683 412.547173 58.915291 412.62796 58.834503 
C 412.708748 58.753716 412.75414 58.644129 412.75414 58.529878 
C 412.75414 58.415628 412.708748 58.306041 412.62796 58.225253 
C 412.547173 58.144466 412.437586 58.099074 412.323335 58.099074 
C 412.209084 58.099074 412.099498 58.144466 412.01871 58.225253 
C 411.937923 58.306041 411.89253 58.415628 411.89253 58.529878 
C 411.89253 58.644129 411.937923 58.753716 412.01871 58.834503 
C 412.099498 58.915291 412.209084 58.960683 412.323335 58.960683 
z
" clip-path="url(#p77da39f7cd)" style="stroke: #000000; stroke-linejoin: miter"/>
   </g>
   <g id="patch_62">
    <path d="M 414.908164 61.545512 
C 415.022415 61.545512 415.132002 61.50012 415.212789 61.419333 
C 415.293577 61.338545 415.338969 61.228958 415.338969 61.114708 
C 415.338969 61.000457 415.293577 60.89087 415.212789 60.810083 
C 415.132002 60.729295 415.022415 60.683903 414.908164 60.683903 
C 414.793914 60.683903 414.684327 60.729295 414.603539 60.810083 
C 414.522752 60.89087 414.47736 61.000457 414.47736 61.114708 
C 414.47736 61.228958 414.522752 61.338545 414.603539 61.419333 
C 414.684327 61.50012 414.793914 61.545512 414.908164 61.545512 
z
" clip-path="url(#p77da39f7cd)" style="stroke: #000000; stroke-linejoin: miter"/>
   </g>
   <g id="patch_63">
    <path d="M 417.492994 64.130342 
C 417.607244 64.130342 417.716831 64.084949 417.797619 64.004162 
C 417.878406 63.923374 417.923798 63.813788 417.923798 63.699537 
C 417.923798 63.585286 417.878406 63.475699 417.797619 63.394912 
C 417.716831 63.314124 417.607244 63.268732 417.492994 63.268732 
C 417.378743 63.268732 417.269156 63.314124 417.188369 63.394912 
C 417.107581 63.475699 417.062189 63.585286 417.062189 63.699537 
C 417.062189 63.813788 417.107581 63.923374 417.188369 64.004162 
C 417.269156 64.084949 417.378743 64.130342 417.492994 64.130342 
z
" clip-path="url(#p77da39f7cd)" style="stroke: #000000; stroke-linejoin: miter"/>
   </g>
   <g id="patch_64">
    <path d="M 420.077823 66.715171 
C 420.192074 66.715171 420.30166 66.669778 420.382448 66.588991 
C 420.463235 66.508203 420.508628 66.398617 420.508628 66.284366 
C 420.508628 66.170115 420.463235 66.060528 420.382448 65.979741 
C 420.30166 65.898953 420.192074 65.853561 420.077823 65.853561 
C 419.963572 65.853561 419.853985 65.898953 419.773198 65.979741 
C 419.69241 66.060528 419.647018 66.170115 419.647018 66.284366 
C 419.647018 66.398617 419.69241 66.508203 419.773198 66.588991 
C 419.853985 66.669778 419.963572 66.715171 420.077823 66.715171 
z
" clip-path="url(#p77da39f7cd)" style="stroke: #000000; stroke-linejoin: miter"/>
   </g>
   <g id="patch_65">
    <path d="M 421.801042 69.730805 
L 423.524262 69.730805 
L 423.524262 68.007585 
L 421.801042 68.007585 
z
" clip-path="url(#p77da39f7cd)" style="fill: #b2b2b2; stroke: #000000; stroke-linejoin: miter"/>
   </g>
   <g id="patch_66">
    <path d="M 424.385871 72.315634 
L 426.109091 72.315634 
L 426.109091 70.592415 
L 424.385871 70.592415 
z
" clip-path="url(#p77da39f7cd)" style="fill: #808080; stroke: #000000; stroke-linejoin: miter"/>
   </g>
   <g id="line2d_1">
    <path d="M 28.217719 62.407122 
L 89.736653 75.762073 
" clip-path="url(#p77da39f7cd)" style="fill: none; stroke: #262626; stroke-width: 1.5; stroke-linecap: square"/>
   </g>
   <g id="line2d_2">
    <path d="M 32.525767 62.407122 
L 89.736653 75.762073 
" clip-path="url(#p77da39f7cd)" style="fill: none; stroke: #262626; stroke-width: 1.5; stroke-linecap: square"/>
   </g>
   <g id="line2d_3">
    <path d="M 28.217719 66.715171 
L 89.736653 75.762073 
" clip-path="url(#p77da39f7cd)" style="fill: none; stroke: #262626; stroke-width: 1.5; stroke-linecap: square"/>
   </g>
   <g id="line2d_4">
    <path d="M 32.525767 66.715171 
L 89.736653 75.762073 
" clip-path="url(#p77da39f7cd)" style="fill: none; stroke: #262626; stroke-width: 1.5; stroke-linecap: square"/>
   </g>
   <g id="line2d_5">
    <path d="M 89.047365 80.587087 
L 133.851071 73.69421 
" clip-path="url(#p77da39f7cd)" style="fill: none; stroke: #262626; stroke-width: 1.5; stroke-linecap: square"/>
   </g>
   <g id="line2d_6">
    <path d="M 90.770585 80.587087 
L 133.851071 73.69421 
" clip-path="url(#p77da39f7cd)" style="fill: none; stroke: #262626; stroke-width: 1.5; stroke-linecap: square"/>
   </g>
   <g id="line2d_7">
    <path d="M 89.047365 82.310307 
L 133.851071 73.69421 
" clip-path="url(#p77da39f7cd)" style="fill: none; stroke: #262626; stroke-width: 1.5; stroke-linecap: square"/>
   </g>
   <g id="line2d_8">
    <path d="M 90.770585 82.310307 
L 133.851071 73.69421 
" clip-path="url(#p77da39f7cd)" style="fill: none; stroke: #262626; stroke-width: 1.5; stroke-linecap: square"/>
   </g>
   <g id="line2d_9">
    <path d="M 132.127852 68.43839 
L 185.892299 74.038854 
" clip-path="url(#p77da39f7cd)" style="fill: none; stroke: #262626; stroke-width: 1.5; stroke-linecap: square"/>
   </g>
   <g id="line2d_10">
    <path d="M 136.4359 68.43839 
L 185.892299 74.038854 
" clip-path="url(#p77da39f7cd)" style="fill: none; stroke: #262626; stroke-width: 1.5; stroke-linecap: square"/>
   </g>
   <g id="line2d_11">
    <path d="M 132.127852 72.746439 
L 185.892299 74.038854 
" clip-path="url(#p77da39f7cd)" style="fill: none; stroke: #262626; stroke-width: 1.5; stroke-linecap: square"/>
   </g>
   <g id="line2d_12">
    <path d="M 136.4359 72.746439 
L 185.892299 74.038854 
" clip-path="url(#p77da39f7cd)" style="fill: none; stroke: #262626; stroke-width: 1.5; stroke-linecap: square"/>
   </g>
   <g id="line2d_13">
    <path d="M 185.203011 74.728141 
L 232.763868 73.349566 
" clip-path="url(#p77da39f7cd)" style="fill: none; stroke: #262626; stroke-width: 1.5; stroke-linecap: square"/>
   </g>
   <g id="line2d_14">
    <path d="M 186.92623 74.728141 
L 232.763868 73.349566 
" clip-path="url(#p77da39f7cd)" style="fill: none; stroke: #262626; stroke-width: 1.5; stroke-linecap: square"/>
   </g>
   <g id="line2d_15">
    <path d="M 185.203011 76.451361 
L 232.763868 73.349566 
" clip-path="url(#p77da39f7cd)" style="fill: none; stroke: #262626; stroke-width: 1.5; stroke-linecap: square"/>
   </g>
   <g id="line2d_16">
    <path d="M 186.92623 76.451361 
L 232.763868 73.349566 
" clip-path="url(#p77da39f7cd)" style="fill: none; stroke: #262626; stroke-width: 1.5; stroke-linecap: square"/>
   </g>
   <g id="text_1">
    <!-- Inputs -->
    <g transform="translate(20.290909 42.333484)scale(0.06 -0.06)">
     <defs>
      <path id="DejaVuSans-49" d="M 628 4666 
L 1259 4666 
L 1259 0 
L 628 0 
L 628 4666 
z
" transform="scale(0.015625)"/>
      <path id="DejaVuSans-6e" d="M 3513 2113 
L 3513 0 
L 2938 0 
L 2938 2094 
Q 2938 2591 2744 2837 
Q 2550 3084 2163 3084 
Q 1697 3084 1428 2787 
Q 1159 2491 1159 1978 
L 1159 0 
L 581 0 
L 581 3500 
L 1159 3500 
L 1159 2956 
Q 1366 3272 1645 3428 
Q 1925 3584 2291 3584 
Q 2894 3584 3203 3211 
Q 3513 2838 3513 2113 
z
" transform="scale(0.015625)"/>
      <path id="DejaVuSans-70" d="M 1159 525 
L 1159 -1331 
L 581 -1331 
L 581 3500 
L 1159 3500 
L 1159 2969 
Q 1341 3281 1617 3432 
Q 1894 3584 2278 3584 
Q 2916 3584 3314 3078 
Q 3713 2572 3713 1747 
Q 3713 922 3314 415 
Q 2916 -91 2278 -91 
Q 1894 -91 1617 61 
Q 1341 213 1159 525 
z
M 3116 1747 
Q 3116 2381 2855 2742 
Q 2594 3103 2138 3103 
Q 1681 3103 1420 2742 
Q 1159 2381 1159 1747 
Q 1159 1113 1420 752 
Q 1681 391 2138 391 
Q 2594 391 2855 752 
Q 3116 1113 3116 1747 
z
" transform="scale(0.015625)"/>
      <path id="DejaVuSans-75" d="M 544 1381 
L 544 3500 
L 1119 3500 
L 1119 1403 
Q 1119 906 1312 657 
Q 1506 409 1894 409 
Q 2359 409 2629 706 
Q 2900 1003 2900 1516 
L 2900 3500 
L 3475 3500 
L 3475 0 
L 2900 0 
L 2900 538 
Q 2691 219 2414 64 
Q 2138 -91 1772 -91 
Q 1169 -91 856 284 
Q 544 659 544 1381 
z
M 1991 3584 
L 1991 3584 
z
" transform="scale(0.015625)"/>
      <path id="DejaVuSans-74" d="M 1172 4494 
L 1172 3500 
L 2356 3500 
L 2356 3053 
L 1172 3053 
L 1172 1153 
Q 1172 725 1289 603 
Q 1406 481 1766 481 
L 2356 481 
L 2356 0 
L 1766 0 
Q 1100 0 847 248 
Q 594 497 594 1153 
L 594 3053 
L 172 3053 
L 172 3500 
L 594 3500 
L 594 4494 
L 1172 4494 
z
" transform="scale(0.015625)"/>
      <path id="DejaVuSans-73" d="M 2834 3397 
L 2834 2853 
Q 2591 2978 2328 3040 
Q 2066 3103 1784 3103 
Q 1356 3103 1142 2972 
Q 928 2841 928 2578 
Q 928 2378 1081 2264 
Q 1234 2150 1697 2047 
L 1894 2003 
Q 2506 1872 2764 1633 
Q 3022 1394 3022 966 
Q 3022 478 2636 193 
Q 2250 -91 1575 -91 
Q 1294 -91 989 -36 
Q 684 19 347 128 
L 347 722 
Q 666 556 975 473 
Q 1284 391 1588 391 
Q 1994 391 2212 530 
Q 2431 669 2431 922 
Q 2431 1156 2273 1281 
Q 2116 1406 1581 1522 
L 1381 1569 
Q 847 1681 609 1914 
Q 372 2147 372 2553 
Q 372 3047 722 3315 
Q 1072 3584 1716 3584 
Q 2034 3584 2315 3537 
Q 2597 3491 2834 3397 
z
" transform="scale(0.015625)"/>
     </defs>
     <use xlink:href="#DejaVuSans-49"/>
     <use xlink:href="#DejaVuSans-6e" x="29.492188"/>
     <use xlink:href="#DejaVuSans-70" x="92.871094"/>
     <use xlink:href="#DejaVuSans-75" x="156.347656"/>
     <use xlink:href="#DejaVuSans-74" x="219.726562"/>
     <use xlink:href="#DejaVuSans-73" x="258.935547"/>
    </g>
    <!-- 1@28x28 -->
    <g transform="translate(20.290909 49.052171)scale(0.06 -0.06)">
     <defs>
      <path id="DejaVuSans-31" d="M 794 531 
L 1825 531 
L 1825 4091 
L 703 3866 
L 703 4441 
L 1819 4666 
L 2450 4666 
L 2450 531 
L 3481 531 
L 3481 0 
L 794 0 
L 794 531 
z
" transform="scale(0.015625)"/>
      <path id="DejaVuSans-40" d="M 2381 1678 
Q 2381 1231 2603 976 
Q 2825 722 3213 722 
Q 3597 722 3817 978 
Q 4038 1234 4038 1678 
Q 4038 2116 3813 2373 
Q 3588 2631 3206 2631 
Q 2828 2631 2604 2375 
Q 2381 2119 2381 1678 
z
M 4084 744 
Q 3897 503 3655 389 
Q 3413 275 3091 275 
Q 2553 275 2217 664 
Q 1881 1053 1881 1678 
Q 1881 2303 2218 2693 
Q 2556 3084 3091 3084 
Q 3413 3084 3656 2967 
Q 3900 2850 4084 2613 
L 4084 3022 
L 4531 3022 
L 4531 722 
Q 4988 791 5245 1139 
Q 5503 1488 5503 2041 
Q 5503 2375 5404 2669 
Q 5306 2963 5106 3213 
Q 4781 3622 4314 3839 
Q 3847 4056 3297 4056 
Q 2913 4056 2559 3954 
Q 2206 3853 1906 3653 
Q 1416 3334 1139 2817 
Q 863 2300 863 1697 
Q 863 1200 1042 765 
Q 1222 331 1563 0 
Q 1891 -325 2322 -495 
Q 2753 -666 3244 -666 
Q 3647 -666 4036 -530 
Q 4425 -394 4750 -141 
L 5031 -488 
Q 4641 -791 4180 -952 
Q 3719 -1113 3244 -1113 
Q 2666 -1113 2153 -908 
Q 1641 -703 1241 -313 
Q 841 78 631 592 
Q 422 1106 422 1697 
Q 422 2266 634 2781 
Q 847 3297 1241 3688 
Q 1644 4084 2172 4295 
Q 2700 4506 3291 4506 
Q 3953 4506 4520 4234 
Q 5088 3963 5472 3463 
Q 5706 3156 5829 2797 
Q 5953 2438 5953 2053 
Q 5953 1231 5456 756 
Q 4959 281 4084 263 
L 4084 744 
z
" transform="scale(0.015625)"/>
      <path id="DejaVuSans-32" d="M 1228 531 
L 3431 531 
L 3431 0 
L 469 0 
L 469 531 
Q 828 903 1448 1529 
Q 2069 2156 2228 2338 
Q 2531 2678 2651 2914 
Q 2772 3150 2772 3378 
Q 2772 3750 2511 3984 
Q 2250 4219 1831 4219 
Q 1534 4219 1204 4116 
Q 875 4013 500 3803 
L 500 4441 
Q 881 4594 1212 4672 
Q 1544 4750 1819 4750 
Q 2544 4750 2975 4387 
Q 3406 4025 3406 3419 
Q 3406 3131 3298 2873 
Q 3191 2616 2906 2266 
Q 2828 2175 2409 1742 
Q 1991 1309 1228 531 
z
" transform="scale(0.015625)"/>
      <path id="DejaVuSans-38" d="M 2034 2216 
Q 1584 2216 1326 1975 
Q 1069 1734 1069 1313 
Q 1069 891 1326 650 
Q 1584 409 2034 409 
Q 2484 409 2743 651 
Q 3003 894 3003 1313 
Q 3003 1734 2745 1975 
Q 2488 2216 2034 2216 
z
M 1403 2484 
Q 997 2584 770 2862 
Q 544 3141 544 3541 
Q 544 4100 942 4425 
Q 1341 4750 2034 4750 
Q 2731 4750 3128 4425 
Q 3525 4100 3525 3541 
Q 3525 3141 3298 2862 
Q 3072 2584 2669 2484 
Q 3125 2378 3379 2068 
Q 3634 1759 3634 1313 
Q 3634 634 3220 271 
Q 2806 -91 2034 -91 
Q 1263 -91 848 271 
Q 434 634 434 1313 
Q 434 1759 690 2068 
Q 947 2378 1403 2484 
z
M 1172 3481 
Q 1172 3119 1398 2916 
Q 1625 2713 2034 2713 
Q 2441 2713 2670 2916 
Q 2900 3119 2900 3481 
Q 2900 3844 2670 4047 
Q 2441 4250 2034 4250 
Q 1625 4250 1398 4047 
Q 1172 3844 1172 3481 
z
" transform="scale(0.015625)"/>
      <path id="DejaVuSans-78" d="M 3513 3500 
L 2247 1797 
L 3578 0 
L 2900 0 
L 1881 1375 
L 863 0 
L 184 0 
L 1544 1831 
L 300 3500 
L 978 3500 
L 1906 2253 
L 2834 3500 
L 3513 3500 
z
" transform="scale(0.015625)"/>
     </defs>
     <use xlink:href="#DejaVuSans-31"/>
     <use xlink:href="#DejaVuSans-40" x="63.623047"/>
     <use xlink:href="#DejaVuSans-32" x="163.623047"/>
     <use xlink:href="#DejaVuSans-38" x="227.246094"/>
     <use xlink:href="#DejaVuSans-78" x="290.869141"/>
     <use xlink:href="#DejaVuSans-32" x="350.048828"/>
     <use xlink:href="#DejaVuSans-38" x="413.671875"/>
    </g>
   </g>
   <g id="text_2">
    <!-- Feature -->
    <g transform="translate(68.541054 35.614796)scale(0.06 -0.06)">
     <defs>
      <path id="DejaVuSans-46" d="M 628 4666 
L 3309 4666 
L 3309 4134 
L 1259 4134 
L 1259 2759 
L 3109 2759 
L 3109 2228 
L 1259 2228 
L 1259 0 
L 628 0 
L 628 4666 
z
" transform="scale(0.015625)"/>
      <path id="DejaVuSans-65" d="M 3597 1894 
L 3597 1613 
L 953 1613 
Q 991 1019 1311 708 
Q 1631 397 2203 397 
Q 2534 397 2845 478 
Q 3156 559 3463 722 
L 3463 178 
Q 3153 47 2828 -22 
Q 2503 -91 2169 -91 
Q 1331 -91 842 396 
Q 353 884 353 1716 
Q 353 2575 817 3079 
Q 1281 3584 2069 3584 
Q 2775 3584 3186 3129 
Q 3597 2675 3597 1894 
z
M 3022 2063 
Q 3016 2534 2758 2815 
Q 2500 3097 2075 3097 
Q 1594 3097 1305 2825 
Q 1016 2553 972 2059 
L 3022 2063 
z
" transform="scale(0.015625)"/>
      <path id="DejaVuSans-61" d="M 2194 1759 
Q 1497 1759 1228 1600 
Q 959 1441 959 1056 
Q 959 750 1161 570 
Q 1363 391 1709 391 
Q 2188 391 2477 730 
Q 2766 1069 2766 1631 
L 2766 1759 
L 2194 1759 
z
M 3341 1997 
L 3341 0 
L 2766 0 
L 2766 531 
Q 2569 213 2275 61 
Q 1981 -91 1556 -91 
Q 1019 -91 701 211 
Q 384 513 384 1019 
Q 384 1609 779 1909 
Q 1175 2209 1959 2209 
L 2766 2209 
L 2766 2266 
Q 2766 2663 2505 2880 
Q 2244 3097 1772 3097 
Q 1472 3097 1187 3025 
Q 903 2953 641 2809 
L 641 3341 
Q 956 3463 1253 3523 
Q 1550 3584 1831 3584 
Q 2591 3584 2966 3190 
Q 3341 2797 3341 1997 
z
" transform="scale(0.015625)"/>
      <path id="DejaVuSans-72" d="M 2631 2963 
Q 2534 3019 2420 3045 
Q 2306 3072 2169 3072 
Q 1681 3072 1420 2755 
Q 1159 2438 1159 1844 
L 1159 0 
L 581 0 
L 581 3500 
L 1159 3500 
L 1159 2956 
Q 1341 3275 1631 3429 
Q 1922 3584 2338 3584 
Q 2397 3584 2469 3576 
Q 2541 3569 2628 3553 
L 2631 2963 
z
" transform="scale(0.015625)"/>
     </defs>
     <use xlink:href="#DejaVuSans-46"/>
     <use xlink:href="#DejaVuSans-65" x="52.019531"/>
     <use xlink:href="#DejaVuSans-61" x="113.542969"/>
     <use xlink:href="#DejaVuSans-74" x="174.822266"/>
     <use xlink:href="#DejaVuSans-75" x="214.03125"/>
     <use xlink:href="#DejaVuSans-72" x="277.410156"/>
     <use xlink:href="#DejaVuSans-65" x="316.273438"/>
    </g>
    <!-- maps -->
    <g transform="translate(68.541054 42.333484)scale(0.06 -0.06)">
     <defs>
      <path id="DejaVuSans-6d" d="M 3328 2828 
Q 3544 3216 3844 3400 
Q 4144 3584 4550 3584 
Q 5097 3584 5394 3201 
Q 5691 2819 5691 2113 
L 5691 0 
L 5113 0 
L 5113 2094 
Q 5113 2597 4934 2840 
Q 4756 3084 4391 3084 
Q 3944 3084 3684 2787 
Q 3425 2491 3425 1978 
L 3425 0 
L 2847 0 
L 2847 2094 
Q 2847 2600 2669 2842 
Q 2491 3084 2119 3084 
Q 1678 3084 1418 2786 
Q 1159 2488 1159 1978 
L 1159 0 
L 581 0 
L 581 3500 
L 1159 3500 
L 1159 2956 
Q 1356 3278 1631 3431 
Q 1906 3584 2284 3584 
Q 2666 3584 2933 3390 
Q 3200 3197 3328 2828 
z
" transform="scale(0.015625)"/>
     </defs>
     <use xlink:href="#DejaVuSans-6d"/>
     <use xlink:href="#DejaVuSans-61" x="97.412109"/>
     <use xlink:href="#DejaVuSans-70" x="158.691406"/>
     <use xlink:href="#DejaVuSans-73" x="222.167969"/>
    </g>
    <!-- 6@24x24 -->
    <g transform="translate(68.541054 49.052171)scale(0.06 -0.06)">
     <defs>
      <path id="DejaVuSans-36" d="M 2113 2584 
Q 1688 2584 1439 2293 
Q 1191 2003 1191 1497 
Q 1191 994 1439 701 
Q 1688 409 2113 409 
Q 2538 409 2786 701 
Q 3034 994 3034 1497 
Q 3034 2003 2786 2293 
Q 2538 2584 2113 2584 
z
M 3366 4563 
L 3366 3988 
Q 3128 4100 2886 4159 
Q 2644 4219 2406 4219 
Q 1781 4219 1451 3797 
Q 1122 3375 1075 2522 
Q 1259 2794 1537 2939 
Q 1816 3084 2150 3084 
Q 2853 3084 3261 2657 
Q 3669 2231 3669 1497 
Q 3669 778 3244 343 
Q 2819 -91 2113 -91 
Q 1303 -91 875 529 
Q 447 1150 447 2328 
Q 447 3434 972 4092 
Q 1497 4750 2381 4750 
Q 2619 4750 2861 4703 
Q 3103 4656 3366 4563 
z
" transform="scale(0.015625)"/>
      <path id="DejaVuSans-34" d="M 2419 4116 
L 825 1625 
L 2419 1625 
L 2419 4116 
z
M 2253 4666 
L 3047 4666 
L 3047 1625 
L 3713 1625 
L 3713 1100 
L 3047 1100 
L 3047 0 
L 2419 0 
L 2419 1100 
L 313 1100 
L 313 1709 
L 2253 4666 
z
" transform="scale(0.015625)"/>
     </defs>
     <use xlink:href="#DejaVuSans-36"/>
     <use xlink:href="#DejaVuSans-40" x="63.623047"/>
     <use xlink:href="#DejaVuSans-32" x="163.623047"/>
     <use xlink:href="#DejaVuSans-34" x="227.246094"/>
     <use xlink:href="#DejaVuSans-78" x="290.869141"/>
     <use xlink:href="#DejaVuSans-32" x="350.048828"/>
     <use xlink:href="#DejaVuSans-34" x="413.671875"/>
    </g>
   </g>
   <g id="text_3">
    <!-- Convolution -->
    <g transform="translate(44.415981 103.507775)scale(0.06 -0.06)">
     <defs>
      <path id="DejaVuSans-43" d="M 4122 4306 
L 4122 3641 
Q 3803 3938 3442 4084 
Q 3081 4231 2675 4231 
Q 1875 4231 1450 3742 
Q 1025 3253 1025 2328 
Q 1025 1406 1450 917 
Q 1875 428 2675 428 
Q 3081 428 3442 575 
Q 3803 722 4122 1019 
L 4122 359 
Q 3791 134 3420 21 
Q 3050 -91 2638 -91 
Q 1578 -91 968 557 
Q 359 1206 359 2328 
Q 359 3453 968 4101 
Q 1578 4750 2638 4750 
Q 3056 4750 3426 4639 
Q 3797 4528 4122 4306 
z
" transform="scale(0.015625)"/>
      <path id="DejaVuSans-6f" d="M 1959 3097 
Q 1497 3097 1228 2736 
Q 959 2375 959 1747 
Q 959 1119 1226 758 
Q 1494 397 1959 397 
Q 2419 397 2687 759 
Q 2956 1122 2956 1747 
Q 2956 2369 2687 2733 
Q 2419 3097 1959 3097 
z
M 1959 3584 
Q 2709 3584 3137 3096 
Q 3566 2609 3566 1747 
Q 3566 888 3137 398 
Q 2709 -91 1959 -91 
Q 1206 -91 779 398 
Q 353 888 353 1747 
Q 353 2609 779 3096 
Q 1206 3584 1959 3584 
z
" transform="scale(0.015625)"/>
      <path id="DejaVuSans-76" d="M 191 3500 
L 800 3500 
L 1894 563 
L 2988 3500 
L 3597 3500 
L 2284 0 
L 1503 0 
L 191 3500 
z
" transform="scale(0.015625)"/>
      <path id="DejaVuSans-6c" d="M 603 4863 
L 1178 4863 
L 1178 0 
L 603 0 
L 603 4863 
z
" transform="scale(0.015625)"/>
      <path id="DejaVuSans-69" d="M 603 3500 
L 1178 3500 
L 1178 0 
L 603 0 
L 603 3500 
z
M 603 4863 
L 1178 4863 
L 1178 4134 
L 603 4134 
L 603 4863 
z
" transform="scale(0.015625)"/>
     </defs>
     <use xlink:href="#DejaVuSans-43"/>
     <use xlink:href="#DejaVuSans-6f" x="69.824219"/>
     <use xlink:href="#DejaVuSans-6e" x="131.005859"/>
     <use xlink:href="#DejaVuSans-76" x="194.384766"/>
     <use xlink:href="#DejaVuSans-6f" x="253.564453"/>
     <use xlink:href="#DejaVuSans-6c" x="314.746094"/>
     <use xlink:href="#DejaVuSans-75" x="342.529297"/>
     <use xlink:href="#DejaVuSans-74" x="405.908203"/>
     <use xlink:href="#DejaVuSans-69" x="445.117188"/>
     <use xlink:href="#DejaVuSans-6f" x="472.900391"/>
     <use xlink:href="#DejaVuSans-6e" x="534.082031"/>
    </g>
    <!-- 5x5 kernel -->
    <g transform="translate(44.415981 110.226462)scale(0.06 -0.06)">
     <defs>
      <path id="DejaVuSans-35" d="M 691 4666 
L 3169 4666 
L 3169 4134 
L 1269 4134 
L 1269 2991 
Q 1406 3038 1543 3061 
Q 1681 3084 1819 3084 
Q 2600 3084 3056 2656 
Q 3513 2228 3513 1497 
Q 3513 744 3044 326 
Q 2575 -91 1722 -91 
Q 1428 -91 1123 -41 
Q 819 9 494 109 
L 494 744 
Q 775 591 1075 516 
Q 1375 441 1709 441 
Q 2250 441 2565 725 
Q 2881 1009 2881 1497 
Q 2881 1984 2565 2268 
Q 2250 2553 1709 2553 
Q 1456 2553 1204 2497 
Q 953 2441 691 2322 
L 691 4666 
z
" transform="scale(0.015625)"/>
      <path id="DejaVuSans-20" transform="scale(0.015625)"/>
      <path id="DejaVuSans-6b" d="M 581 4863 
L 1159 4863 
L 1159 1991 
L 2875 3500 
L 3609 3500 
L 1753 1863 
L 3688 0 
L 2938 0 
L 1159 1709 
L 1159 0 
L 581 0 
L 581 4863 
z
" transform="scale(0.015625)"/>
     </defs>
     <use xlink:href="#DejaVuSans-35"/>
     <use xlink:href="#DejaVuSans-78" x="63.623047"/>
     <use xlink:href="#DejaVuSans-35" x="122.802734"/>
     <use xlink:href="#DejaVuSans-20" x="186.425781"/>
     <use xlink:href="#DejaVuSans-6b" x="218.212891"/>
     <use xlink:href="#DejaVuSans-65" x="272.498047"/>
     <use xlink:href="#DejaVuSans-72" x="334.021484"/>
     <use xlink:href="#DejaVuSans-6e" x="373.384766"/>
     <use xlink:href="#DejaVuSans-65" x="436.763672"/>
     <use xlink:href="#DejaVuSans-6c" x="498.287109"/>
    </g>
   </g>
   <g id="text_4">
    <!-- Feature -->
    <g transform="translate(116.791199 35.614796)scale(0.06 -0.06)">
     <use xlink:href="#DejaVuSans-46"/>
     <use xlink:href="#DejaVuSans-65" x="52.019531"/>
     <use xlink:href="#DejaVuSans-61" x="113.542969"/>
     <use xlink:href="#DejaVuSans-74" x="174.822266"/>
     <use xlink:href="#DejaVuSans-75" x="214.03125"/>
     <use xlink:href="#DejaVuSans-72" x="277.410156"/>
     <use xlink:href="#DejaVuSans-65" x="316.273438"/>
    </g>
    <!-- maps -->
    <g transform="translate(116.791199 42.333484)scale(0.06 -0.06)">
     <use xlink:href="#DejaVuSans-6d"/>
     <use xlink:href="#DejaVuSans-61" x="97.412109"/>
     <use xlink:href="#DejaVuSans-70" x="158.691406"/>
     <use xlink:href="#DejaVuSans-73" x="222.167969"/>
    </g>
    <!-- 6@12x12 -->
    <g transform="translate(116.791199 49.052171)scale(0.06 -0.06)">
     <use xlink:href="#DejaVuSans-36"/>
     <use xlink:href="#DejaVuSans-40" x="63.623047"/>
     <use xlink:href="#DejaVuSans-31" x="163.623047"/>
     <use xlink:href="#DejaVuSans-32" x="227.246094"/>
     <use xlink:href="#DejaVuSans-78" x="290.869141"/>
     <use xlink:href="#DejaVuSans-31" x="350.048828"/>
     <use xlink:href="#DejaVuSans-32" x="413.671875"/>
    </g>
   </g>
   <g id="text_5">
    <!-- Max-Pooling -->
    <g transform="translate(92.666126 103.507775)scale(0.06 -0.06)">
     <defs>
      <path id="DejaVuSans-4d" d="M 628 4666 
L 1569 4666 
L 2759 1491 
L 3956 4666 
L 4897 4666 
L 4897 0 
L 4281 0 
L 4281 4097 
L 3078 897 
L 2444 897 
L 1241 4097 
L 1241 0 
L 628 0 
L 628 4666 
z
" transform="scale(0.015625)"/>
      <path id="DejaVuSans-2d" d="M 313 2009 
L 1997 2009 
L 1997 1497 
L 313 1497 
L 313 2009 
z
" transform="scale(0.015625)"/>
      <path id="DejaVuSans-50" d="M 1259 4147 
L 1259 2394 
L 2053 2394 
Q 2494 2394 2734 2622 
Q 2975 2850 2975 3272 
Q 2975 3691 2734 3919 
Q 2494 4147 2053 4147 
L 1259 4147 
z
M 628 4666 
L 2053 4666 
Q 2838 4666 3239 4311 
Q 3641 3956 3641 3272 
Q 3641 2581 3239 2228 
Q 2838 1875 2053 1875 
L 1259 1875 
L 1259 0 
L 628 0 
L 628 4666 
z
" transform="scale(0.015625)"/>
      <path id="DejaVuSans-67" d="M 2906 1791 
Q 2906 2416 2648 2759 
Q 2391 3103 1925 3103 
Q 1463 3103 1205 2759 
Q 947 2416 947 1791 
Q 947 1169 1205 825 
Q 1463 481 1925 481 
Q 2391 481 2648 825 
Q 2906 1169 2906 1791 
z
M 3481 434 
Q 3481 -459 3084 -895 
Q 2688 -1331 1869 -1331 
Q 1566 -1331 1297 -1286 
Q 1028 -1241 775 -1147 
L 775 -588 
Q 1028 -725 1275 -790 
Q 1522 -856 1778 -856 
Q 2344 -856 2625 -561 
Q 2906 -266 2906 331 
L 2906 616 
Q 2728 306 2450 153 
Q 2172 0 1784 0 
Q 1141 0 747 490 
Q 353 981 353 1791 
Q 353 2603 747 3093 
Q 1141 3584 1784 3584 
Q 2172 3584 2450 3431 
Q 2728 3278 2906 2969 
L 2906 3500 
L 3481 3500 
L 3481 434 
z
" transform="scale(0.015625)"/>
     </defs>
     <use xlink:href="#DejaVuSans-4d"/>
     <use xlink:href="#DejaVuSans-61" x="86.279297"/>
     <use xlink:href="#DejaVuSans-78" x="147.558594"/>
     <use xlink:href="#DejaVuSans-2d" x="206.738281"/>
     <use xlink:href="#DejaVuSans-50" x="242.822266"/>
     <use xlink:href="#DejaVuSans-6f" x="299.5"/>
     <use xlink:href="#DejaVuSans-6f" x="360.681641"/>
     <use xlink:href="#DejaVuSans-6c" x="421.863281"/>
     <use xlink:href="#DejaVuSans-69" x="449.646484"/>
     <use xlink:href="#DejaVuSans-6e" x="477.429688"/>
     <use xlink:href="#DejaVuSans-67" x="540.808594"/>
    </g>
    <!-- 2x2 kernel -->
    <g transform="translate(92.666126 110.226462)scale(0.06 -0.06)">
     <use xlink:href="#DejaVuSans-32"/>
     <use xlink:href="#DejaVuSans-78" x="63.623047"/>
     <use xlink:href="#DejaVuSans-32" x="122.802734"/>
     <use xlink:href="#DejaVuSans-20" x="186.425781"/>
     <use xlink:href="#DejaVuSans-6b" x="218.212891"/>
     <use xlink:href="#DejaVuSans-65" x="272.498047"/>
     <use xlink:href="#DejaVuSans-72" x="334.021484"/>
     <use xlink:href="#DejaVuSans-6e" x="373.384766"/>
     <use xlink:href="#DejaVuSans-65" x="436.763672"/>
     <use xlink:href="#DejaVuSans-6c" x="498.287109"/>
    </g>
   </g>
   <g id="text_6">
    <!-- Feature -->
    <g transform="translate(165.041343 35.614796)scale(0.06 -0.06)">
     <use xlink:href="#DejaVuSans-46"/>
     <use xlink:href="#DejaVuSans-65" x="52.019531"/>
     <use xlink:href="#DejaVuSans-61" x="113.542969"/>
     <use xlink:href="#DejaVuSans-74" x="174.822266"/>
     <use xlink:href="#DejaVuSans-75" x="214.03125"/>
     <use xlink:href="#DejaVuSans-72" x="277.410156"/>
     <use xlink:href="#DejaVuSans-65" x="316.273438"/>
    </g>
    <!-- maps -->
    <g transform="translate(165.041343 42.333484)scale(0.06 -0.06)">
     <use xlink:href="#DejaVuSans-6d"/>
     <use xlink:href="#DejaVuSans-61" x="97.412109"/>
     <use xlink:href="#DejaVuSans-70" x="158.691406"/>
     <use xlink:href="#DejaVuSans-73" x="222.167969"/>
    </g>
    <!-- 16@8x8 -->
    <g transform="translate(165.041343 49.052171)scale(0.06 -0.06)">
     <use xlink:href="#DejaVuSans-31"/>
     <use xlink:href="#DejaVuSans-36" x="63.623047"/>
     <use xlink:href="#DejaVuSans-40" x="127.246094"/>
     <use xlink:href="#DejaVuSans-38" x="227.246094"/>
     <use xlink:href="#DejaVuSans-78" x="290.869141"/>
     <use xlink:href="#DejaVuSans-38" x="350.048828"/>
    </g>
   </g>
   <g id="text_7">
    <!-- Convolution -->
    <g transform="translate(140.916271 103.507775)scale(0.06 -0.06)">
     <use xlink:href="#DejaVuSans-43"/>
     <use xlink:href="#DejaVuSans-6f" x="69.824219"/>
     <use xlink:href="#DejaVuSans-6e" x="131.005859"/>
     <use xlink:href="#DejaVuSans-76" x="194.384766"/>
     <use xlink:href="#DejaVuSans-6f" x="253.564453"/>
     <use xlink:href="#DejaVuSans-6c" x="314.746094"/>
     <use xlink:href="#DejaVuSans-75" x="342.529297"/>
     <use xlink:href="#DejaVuSans-74" x="405.908203"/>
     <use xlink:href="#DejaVuSans-69" x="445.117188"/>
     <use xlink:href="#DejaVuSans-6f" x="472.900391"/>
     <use xlink:href="#DejaVuSans-6e" x="534.082031"/>
    </g>
    <!-- 5x5 kernel -->
    <g transform="translate(140.916271 110.226462)scale(0.06 -0.06)">
     <use xlink:href="#DejaVuSans-35"/>
     <use xlink:href="#DejaVuSans-78" x="63.623047"/>
     <use xlink:href="#DejaVuSans-35" x="122.802734"/>
     <use xlink:href="#DejaVuSans-20" x="186.425781"/>
     <use xlink:href="#DejaVuSans-6b" x="218.212891"/>
     <use xlink:href="#DejaVuSans-65" x="272.498047"/>
     <use xlink:href="#DejaVuSans-72" x="334.021484"/>
     <use xlink:href="#DejaVuSans-6e" x="373.384766"/>
     <use xlink:href="#DejaVuSans-65" x="436.763672"/>
     <use xlink:href="#DejaVuSans-6c" x="498.287109"/>
    </g>
   </g>
   <g id="text_8">
    <!-- Feature -->
    <g transform="translate(213.291488 35.614796)scale(0.06 -0.06)">
     <use xlink:href="#DejaVuSans-46"/>
     <use xlink:href="#DejaVuSans-65" x="52.019531"/>
     <use xlink:href="#DejaVuSans-61" x="113.542969"/>
     <use xlink:href="#DejaVuSans-74" x="174.822266"/>
     <use xlink:href="#DejaVuSans-75" x="214.03125"/>
     <use xlink:href="#DejaVuSans-72" x="277.410156"/>
     <use xlink:href="#DejaVuSans-65" x="316.273438"/>
    </g>
    <!-- maps -->
    <g transform="translate(213.291488 42.333484)scale(0.06 -0.06)">
     <use xlink:href="#DejaVuSans-6d"/>
     <use xlink:href="#DejaVuSans-61" x="97.412109"/>
     <use xlink:href="#DejaVuSans-70" x="158.691406"/>
     <use xlink:href="#DejaVuSans-73" x="222.167969"/>
    </g>
    <!-- 16@4x4 -->
    <g transform="translate(213.291488 49.052171)scale(0.06 -0.06)">
     <use xlink:href="#DejaVuSans-31"/>
     <use xlink:href="#DejaVuSans-36" x="63.623047"/>
     <use xlink:href="#DejaVuSans-40" x="127.246094"/>
     <use xlink:href="#DejaVuSans-34" x="227.246094"/>
     <use xlink:href="#DejaVuSans-78" x="290.869141"/>
     <use xlink:href="#DejaVuSans-34" x="350.048828"/>
    </g>
   </g>
   <g id="text_9">
    <!-- Max-Pooling -->
    <g transform="translate(189.166416 103.507775)scale(0.06 -0.06)">
     <use xlink:href="#DejaVuSans-4d"/>
     <use xlink:href="#DejaVuSans-61" x="86.279297"/>
     <use xlink:href="#DejaVuSans-78" x="147.558594"/>
     <use xlink:href="#DejaVuSans-2d" x="206.738281"/>
     <use xlink:href="#DejaVuSans-50" x="242.822266"/>
     <use xlink:href="#DejaVuSans-6f" x="299.5"/>
     <use xlink:href="#DejaVuSans-6f" x="360.681641"/>
     <use xlink:href="#DejaVuSans-6c" x="421.863281"/>
     <use xlink:href="#DejaVuSans-69" x="449.646484"/>
     <use xlink:href="#DejaVuSans-6e" x="477.429688"/>
     <use xlink:href="#DejaVuSans-67" x="540.808594"/>
    </g>
    <!-- 2x2 kernel -->
    <g transform="translate(189.166416 110.226462)scale(0.06 -0.06)">
     <use xlink:href="#DejaVuSans-32"/>
     <use xlink:href="#DejaVuSans-78" x="63.623047"/>
     <use xlink:href="#DejaVuSans-32" x="122.802734"/>
     <use xlink:href="#DejaVuSans-20" x="186.425781"/>
     <use xlink:href="#DejaVuSans-6b" x="218.212891"/>
     <use xlink:href="#DejaVuSans-65" x="272.498047"/>
     <use xlink:href="#DejaVuSans-72" x="334.021484"/>
     <use xlink:href="#DejaVuSans-6e" x="373.384766"/>
     <use xlink:href="#DejaVuSans-65" x="436.763672"/>
     <use xlink:href="#DejaVuSans-6c" x="498.287109"/>
    </g>
   </g>
   <g id="text_10">
    <!-- Hidden -->
    <g transform="translate(261.541633 35.614796)scale(0.06 -0.06)">
     <defs>
      <path id="DejaVuSans-48" d="M 628 4666 
L 1259 4666 
L 1259 2753 
L 3553 2753 
L 3553 4666 
L 4184 4666 
L 4184 0 
L 3553 0 
L 3553 2222 
L 1259 2222 
L 1259 0 
L 628 0 
L 628 4666 
z
" transform="scale(0.015625)"/>
      <path id="DejaVuSans-64" d="M 2906 2969 
L 2906 4863 
L 3481 4863 
L 3481 0 
L 2906 0 
L 2906 525 
Q 2725 213 2448 61 
Q 2172 -91 1784 -91 
Q 1150 -91 751 415 
Q 353 922 353 1747 
Q 353 2572 751 3078 
Q 1150 3584 1784 3584 
Q 2172 3584 2448 3432 
Q 2725 3281 2906 2969 
z
M 947 1747 
Q 947 1113 1208 752 
Q 1469 391 1925 391 
Q 2381 391 2643 752 
Q 2906 1113 2906 1747 
Q 2906 2381 2643 2742 
Q 2381 3103 1925 3103 
Q 1469 3103 1208 2742 
Q 947 2381 947 1747 
z
" transform="scale(0.015625)"/>
     </defs>
     <use xlink:href="#DejaVuSans-48"/>
     <use xlink:href="#DejaVuSans-69" x="75.195312"/>
     <use xlink:href="#DejaVuSans-64" x="102.978516"/>
     <use xlink:href="#DejaVuSans-64" x="166.455078"/>
     <use xlink:href="#DejaVuSans-65" x="229.931641"/>
     <use xlink:href="#DejaVuSans-6e" x="291.455078"/>
    </g>
    <!-- units -->
    <g transform="translate(261.541633 42.333484)scale(0.06 -0.06)">
     <use xlink:href="#DejaVuSans-75"/>
     <use xlink:href="#DejaVuSans-6e" x="63.378906"/>
     <use xlink:href="#DejaVuSans-69" x="126.757812"/>
     <use xlink:href="#DejaVuSans-74" x="154.541016"/>
     <use xlink:href="#DejaVuSans-73" x="193.75"/>
    </g>
    <!-- 256 -->
    <g transform="translate(261.541633 49.052171)scale(0.06 -0.06)">
     <use xlink:href="#DejaVuSans-32"/>
     <use xlink:href="#DejaVuSans-35" x="63.623047"/>
     <use xlink:href="#DejaVuSans-36" x="127.246094"/>
    </g>
   </g>
   <g id="text_11">
    <!-- Flatten -->
    <g transform="translate(237.416561 110.226462)scale(0.06 -0.06)">
     <use xlink:href="#DejaVuSans-46"/>
     <use xlink:href="#DejaVuSans-6c" x="57.519531"/>
     <use xlink:href="#DejaVuSans-61" x="85.302734"/>
     <use xlink:href="#DejaVuSans-74" x="146.582031"/>
     <use xlink:href="#DejaVuSans-74" x="185.791016"/>
     <use xlink:href="#DejaVuSans-65" x="225"/>
     <use xlink:href="#DejaVuSans-6e" x="286.523438"/>
    </g>
   </g>
   <g id="text_12">
    <!-- Hidden -->
    <g transform="translate(309.791778 35.614796)scale(0.06 -0.06)">
     <use xlink:href="#DejaVuSans-48"/>
     <use xlink:href="#DejaVuSans-69" x="75.195312"/>
     <use xlink:href="#DejaVuSans-64" x="102.978516"/>
     <use xlink:href="#DejaVuSans-64" x="166.455078"/>
     <use xlink:href="#DejaVuSans-65" x="229.931641"/>
     <use xlink:href="#DejaVuSans-6e" x="291.455078"/>
    </g>
    <!-- units -->
    <g transform="translate(309.791778 42.333484)scale(0.06 -0.06)">
     <use xlink:href="#DejaVuSans-75"/>
     <use xlink:href="#DejaVuSans-6e" x="63.378906"/>
     <use xlink:href="#DejaVuSans-69" x="126.757812"/>
     <use xlink:href="#DejaVuSans-74" x="154.541016"/>
     <use xlink:href="#DejaVuSans-73" x="193.75"/>
    </g>
    <!-- 120 -->
    <g transform="translate(309.791778 49.052171)scale(0.06 -0.06)">
     <defs>
      <path id="DejaVuSans-30" d="M 2034 4250 
Q 1547 4250 1301 3770 
Q 1056 3291 1056 2328 
Q 1056 1369 1301 889 
Q 1547 409 2034 409 
Q 2525 409 2770 889 
Q 3016 1369 3016 2328 
Q 3016 3291 2770 3770 
Q 2525 4250 2034 4250 
z
M 2034 4750 
Q 2819 4750 3233 4129 
Q 3647 3509 3647 2328 
Q 3647 1150 3233 529 
Q 2819 -91 2034 -91 
Q 1250 -91 836 529 
Q 422 1150 422 2328 
Q 422 3509 836 4129 
Q 1250 4750 2034 4750 
z
" transform="scale(0.015625)"/>
     </defs>
     <use xlink:href="#DejaVuSans-31"/>
     <use xlink:href="#DejaVuSans-32" x="63.623047"/>
     <use xlink:href="#DejaVuSans-30" x="127.246094"/>
    </g>
   </g>
   <g id="text_13">
    <!-- Fully -->
    <g transform="translate(285.666705 103.507775)scale(0.06 -0.06)">
     <defs>
      <path id="DejaVuSans-79" d="M 2059 -325 
Q 1816 -950 1584 -1140 
Q 1353 -1331 966 -1331 
L 506 -1331 
L 506 -850 
L 844 -850 
Q 1081 -850 1212 -737 
Q 1344 -625 1503 -206 
L 1606 56 
L 191 3500 
L 800 3500 
L 1894 763 
L 2988 3500 
L 3597 3500 
L 2059 -325 
z
" transform="scale(0.015625)"/>
     </defs>
     <use xlink:href="#DejaVuSans-46"/>
     <use xlink:href="#DejaVuSans-75" x="52.019531"/>
     <use xlink:href="#DejaVuSans-6c" x="115.398438"/>
     <use xlink:href="#DejaVuSans-6c" x="143.181641"/>
     <use xlink:href="#DejaVuSans-79" x="170.964844"/>
    </g>
    <!-- connected -->
    <g transform="translate(285.666705 110.226462)scale(0.06 -0.06)">
     <defs>
      <path id="DejaVuSans-63" d="M 3122 3366 
L 3122 2828 
Q 2878 2963 2633 3030 
Q 2388 3097 2138 3097 
Q 1578 3097 1268 2742 
Q 959 2388 959 1747 
Q 959 1106 1268 751 
Q 1578 397 2138 397 
Q 2388 397 2633 464 
Q 2878 531 3122 666 
L 3122 134 
Q 2881 22 2623 -34 
Q 2366 -91 2075 -91 
Q 1284 -91 818 406 
Q 353 903 353 1747 
Q 353 2603 823 3093 
Q 1294 3584 2113 3584 
Q 2378 3584 2631 3529 
Q 2884 3475 3122 3366 
z
" transform="scale(0.015625)"/>
     </defs>
     <use xlink:href="#DejaVuSans-63"/>
     <use xlink:href="#DejaVuSans-6f" x="54.980469"/>
     <use xlink:href="#DejaVuSans-6e" x="116.162109"/>
     <use xlink:href="#DejaVuSans-6e" x="179.541016"/>
     <use xlink:href="#DejaVuSans-65" x="242.919922"/>
     <use xlink:href="#DejaVuSans-63" x="304.443359"/>
     <use xlink:href="#DejaVuSans-74" x="359.423828"/>
     <use xlink:href="#DejaVuSans-65" x="398.632812"/>
     <use xlink:href="#DejaVuSans-64" x="460.15625"/>
    </g>
   </g>
   <g id="text_14">
    <!-- Hidden -->
    <g transform="translate(358.041922 35.614796)scale(0.06 -0.06)">
     <use xlink:href="#DejaVuSans-48"/>
     <use xlink:href="#DejaVuSans-69" x="75.195312"/>
     <use xlink:href="#DejaVuSans-64" x="102.978516"/>
     <use xlink:href="#DejaVuSans-64" x="166.455078"/>
     <use xlink:href="#DejaVuSans-65" x="229.931641"/>
     <use xlink:href="#DejaVuSans-6e" x="291.455078"/>
    </g>
    <!-- units -->
    <g transform="translate(358.041922 42.333484)scale(0.06 -0.06)">
     <use xlink:href="#DejaVuSans-75"/>
     <use xlink:href="#DejaVuSans-6e" x="63.378906"/>
     <use xlink:href="#DejaVuSans-69" x="126.757812"/>
     <use xlink:href="#DejaVuSans-74" x="154.541016"/>
     <use xlink:href="#DejaVuSans-73" x="193.75"/>
    </g>
    <!-- 84 -->
    <g transform="translate(358.041922 49.052171)scale(0.06 -0.06)">
     <use xlink:href="#DejaVuSans-38"/>
     <use xlink:href="#DejaVuSans-34" x="63.623047"/>
    </g>
   </g>
   <g id="text_15">
    <!-- Fully -->
    <g transform="translate(333.91685 103.507775)scale(0.06 -0.06)">
     <use xlink:href="#DejaVuSans-46"/>
     <use xlink:href="#DejaVuSans-75" x="52.019531"/>
     <use xlink:href="#DejaVuSans-6c" x="115.398438"/>
     <use xlink:href="#DejaVuSans-6c" x="143.181641"/>
     <use xlink:href="#DejaVuSans-79" x="170.964844"/>
    </g>
    <!-- connected -->
    <g transform="translate(333.91685 110.226462)scale(0.06 -0.06)">
     <use xlink:href="#DejaVuSans-63"/>
     <use xlink:href="#DejaVuSans-6f" x="54.980469"/>
     <use xlink:href="#DejaVuSans-6e" x="116.162109"/>
     <use xlink:href="#DejaVuSans-6e" x="179.541016"/>
     <use xlink:href="#DejaVuSans-65" x="242.919922"/>
     <use xlink:href="#DejaVuSans-63" x="304.443359"/>
     <use xlink:href="#DejaVuSans-74" x="359.423828"/>
     <use xlink:href="#DejaVuSans-65" x="398.632812"/>
     <use xlink:href="#DejaVuSans-64" x="460.15625"/>
    </g>
   </g>
   <g id="text_16">
    <!-- Outputs -->
    <g transform="translate(406.292067 42.333484)scale(0.06 -0.06)">
     <defs>
      <path id="DejaVuSans-4f" d="M 2522 4238 
Q 1834 4238 1429 3725 
Q 1025 3213 1025 2328 
Q 1025 1447 1429 934 
Q 1834 422 2522 422 
Q 3209 422 3611 934 
Q 4013 1447 4013 2328 
Q 4013 3213 3611 3725 
Q 3209 4238 2522 4238 
z
M 2522 4750 
Q 3503 4750 4090 4092 
Q 4678 3434 4678 2328 
Q 4678 1225 4090 567 
Q 3503 -91 2522 -91 
Q 1538 -91 948 565 
Q 359 1222 359 2328 
Q 359 3434 948 4092 
Q 1538 4750 2522 4750 
z
" transform="scale(0.015625)"/>
     </defs>
     <use xlink:href="#DejaVuSans-4f"/>
     <use xlink:href="#DejaVuSans-75" x="78.710938"/>
     <use xlink:href="#DejaVuSans-74" x="142.089844"/>
     <use xlink:href="#DejaVuSans-70" x="181.298828"/>
     <use xlink:href="#DejaVuSans-75" x="244.775391"/>
     <use xlink:href="#DejaVuSans-74" x="308.154297"/>
     <use xlink:href="#DejaVuSans-73" x="347.363281"/>
    </g>
    <!-- 10 -->
    <g transform="translate(406.292067 49.052171)scale(0.06 -0.06)">
     <use xlink:href="#DejaVuSans-31"/>
     <use xlink:href="#DejaVuSans-30" x="63.623047"/>
    </g>
   </g>
   <g id="text_17">
    <!-- Fully -->
    <g transform="translate(382.166995 103.507775)scale(0.06 -0.06)">
     <use xlink:href="#DejaVuSans-46"/>
     <use xlink:href="#DejaVuSans-75" x="52.019531"/>
     <use xlink:href="#DejaVuSans-6c" x="115.398438"/>
     <use xlink:href="#DejaVuSans-6c" x="143.181641"/>
     <use xlink:href="#DejaVuSans-79" x="170.964844"/>
    </g>
    <!-- connected -->
    <g transform="translate(382.166995 110.226462)scale(0.06 -0.06)">
     <use xlink:href="#DejaVuSans-63"/>
     <use xlink:href="#DejaVuSans-6f" x="54.980469"/>
     <use xlink:href="#DejaVuSans-6e" x="116.162109"/>
     <use xlink:href="#DejaVuSans-6e" x="179.541016"/>
     <use xlink:href="#DejaVuSans-65" x="242.919922"/>
     <use xlink:href="#DejaVuSans-63" x="304.443359"/>
     <use xlink:href="#DejaVuSans-74" x="359.423828"/>
     <use xlink:href="#DejaVuSans-65" x="398.632812"/>
     <use xlink:href="#DejaVuSans-64" x="460.15625"/>
    </g>
   </g>
  </g>
 </g>
 <defs>
  <clipPath id="p77da39f7cd">
   <rect x="0" y="0" width="446.4" height="138.6"/>
  </clipPath>
 </defs>
</svg>
